<?xml version="1.0" encoding="utf-8"?>
<!-- Generator: Adobe Illustrator 16.0.3, SVG Export Plug-In . SVG Version: 6.00 Build 0)  -->
<!DOCTYPE svg PUBLIC "-//W3C//DTD SVG 1.1//EN" "http://www.w3.org/Graphics/SVG/1.1/DTD/svg11.dtd">
<svg version="1.1" id="Layer_1" xmlns="http://www.w3.org/2000/svg" xmlns:xlink="http://www.w3.org/1999/xlink" x="0px" y="0px"
	 width="300px" height="300px" viewBox="0 0 300 300" enable-background="new 0 0 300 300" xml:space="preserve">
<g id="Little_Body">
	<path fill="#22AF75" d="M48.737,215.473c-0.042-3.405,2.004-6.295,5.725-6.295c4.866,0,5.438,4.579,8.873,6.295
		c5.153,2.864,11.45-3.147,16.601,0.573c4.581,2.861,1.431,5.439,1.717,9.447c0.574,5.15,5.438,4.579,8.874,7.155
		c2.862,1.716,5.725,5.438,4.579,8.872c-1.145,3.722-5.439,4.008-5.439,8.587s8.014,13.741,2.29,18.034
		c-2.861,1.716-6.009-1.72-8.3-1.146c-3.721,0.857-4.007,6.582-7.442,8.587c-4.579,3.148-6.011,0.572-9.732-1.719
		c-3.434-1.716-6.011-1.431-9.73-0.858c-2.005,0-7.442,1.718-9.16,0.572c-2.576-1.716-1.718-6.582-1.432-9.158
		c0.287-8.302-6.297-7.442-10.59-13.455c-5.438-6.867,1.145-9.157,3.721-14.596c2.29-4.866-3.149-10.019-2.576-14.884
		C37.574,212.899,48.561,222.765,48.737,215.473"/>
	<g>
		<path fill="#212121" d="M50.237,215.473c0.35-5.36,5.506-5.738,8.456-2.354c1.225,1.404,2.282,2.668,3.885,3.649
			c3.876,2.373,8.69-0.03,12.716-0.461c7.886-0.846,3.642,7.341,5.323,11.213c1.726,3.974,5.837,4.262,9.153,6.424
			c3.643,2.375,5.418,6.513,1.867,9.828c-1.112,1.038-2.473,2.126-2.96,3.643c-1.154,3.595,0.422,6.642,1.871,9.905
			c1.116,2.513,2.757,5.808,1.49,8.559c-1.137,2.469-6.46-0.433-8.381-0.382c-3.42,0.091-5.081,4.679-6.496,7.033
			c-3.975,6.612-9.662-1.16-14.778-1.403c-3.143-0.149-13.764,3.08-14.923-0.511c-1.394-4.318,1.27-8.294-1.468-12.541
			c-2.453-3.806-7.349-5.36-10.057-9.182c-3.286-4.633,3.45-8.18,4.804-12.125c1.633-4.757-1.22-8.725-2.425-13.228
			c-1.734-6.48,5.291-3.427,8.451-3.731C49.179,219.576,50.03,217.621,50.237,215.473c0.186-1.926-2.816-1.908-3,0
			c-0.233,2.419-6.712,0.604-8.552,0.981c-2.825,0.579-3.792,4.209-3.442,6.652c0.379,2.644,1.492,4.992,2.433,7.471
			c1.472,3.879-0.369,6.527-2.763,9.406c-2.164,2.603-3.998,5.847-2.209,9.218c2.313,4.358,5.864,6.379,9.595,9.301
			c4.813,3.771,0.078,9.78,2.746,14.282c1.883,3.177,4.707,2.802,8.027,2.284c2.656-0.414,5.298-0.881,7.99-1.005
			c4.003-0.185,5.802,2.683,9.104,3.943c3.199,1.221,6.957-0.33,8.944-3.077c1.35-1.866,3.039-7.097,6.294-6.211
			c2.668,0.726,4.19,1.863,6.951,0.869c2.626-0.945,3.462-4.655,3.045-7.071c-0.742-4.302-6.361-11.316-3.088-15.277
			c2.147-2.599,5.563-4.658,4.41-8.712c-1.248-4.389-4.646-7.275-8.811-8.911c-4.098-1.608-5.229-3.582-4.221-7.957
			c0.276-1.196,0.452-2.684-0.123-3.825c-1.817-3.612-6.06-5.047-9.884-4.345c-4.099,0.753-8.244,2.553-11.605-0.969
			c-1.493-1.564-2.711-3.735-4.946-4.38c-5.523-1.593-9.538,1.853-9.896,7.332C47.111,217.405,50.111,217.393,50.237,215.473
			L50.237,215.473z"/>
	</g>
</g>
<g id="Main_Body">
	<path fill="#22AF75" d="M107.179,40.901c-0.143-9.935,6.864-18.371,19.61-18.371c16.669,0,18.63,13.361,30.398,18.371
		c17.649,8.351,39.223-9.186,56.872,1.671c15.688,8.351,4.903,15.866,5.884,27.557c1.962,15.032,18.63,13.361,30.396,20.876
		c9.807,5.011,19.612,15.867,15.69,25.887c-3.919,10.856-18.631,11.691-18.631,25.052c0,13.361,27.457,40.083,7.847,52.609
		c-9.809,5.01-20.592-5.01-28.438-3.34c-12.749,2.504-13.729,19.205-25.496,25.052c-15.689,9.186-20.592,1.671-33.339-5.01
		c-11.768-5.011-20.594-4.178-33.34-2.506c-6.863,0-25.493,5.011-31.378,1.669c-8.825-5.01-5.882-19.205-4.902-26.722
		c0.981-24.218-21.573-21.713-36.281-39.248c-18.632-20.041,3.922-26.721,12.747-42.588c7.845-14.195-10.786-29.227-8.825-43.423
		C68.935,33.386,106.575,62.168,107.179,40.901"/>
	<g>
		<path fill="#212121" d="M108.679,40.901c0.204-14.149,15.163-20.339,27.232-15.029c8.15,3.585,12.314,12.567,20.52,16.325
			c9.959,4.56,20.768,1.814,30.992-0.233c6.097-1.221,12.276-2.133,18.457-1.018c5.566,1.005,14.483,5.218,15.246,11.567
			c0.458,3.819-1.584,7.999-2.315,11.697c-0.849,4.285-0.352,8.397,1.595,12.307c3.857,7.747,14.515,9.578,21.816,12.236
			c11.32,4.122,29.28,16.457,21.039,30.361c-4.507,7.605-14.26,9.602-16.892,18.777c-2.101,7.322,2.725,15.069,5.955,21.274
			c4.047,7.775,10.143,17.36,8.063,26.519c-1.363,6.001-7.186,9.067-12.946,8.697c-5.891-0.379-11.199-3.878-17.021-4.729
			c-8.813-1.289-14.545,6.564-18.642,13.061c-6.029,9.56-16.515,19.606-28.858,15.188c-5.025-1.8-9.507-5.423-14.188-7.938
			c-5.284-2.84-11.9-3.753-17.814-3.988c-10.955-0.436-22.161,2.005-32.985,3.45c-4.219,0.563-9.916,1.641-13.919-0.299
			c-5.613-2.72-5.609-10.621-5.313-15.878c0.513-9.09,2.677-17.35-3.073-25.391c-4.833-6.757-13.416-10.091-20.285-14.267
			c-8.26-5.021-21.56-15.568-18.376-26.624c1.211-4.204,4.861-7.626,7.807-10.67c3.322-3.433,6.644-6.808,9.457-10.684
			c6.199-8.543,3.792-17.344-0.32-26.219c-3.47-7.491-11.776-21.779-2.592-28.576c9.845-7.286,25.286,5.869,34.721-2.612
			C108.048,46.397,108.541,43.451,108.679,40.901c0.104-1.934-2.896-1.924-3,0c-0.447,8.256-8.397,7.214-14.556,6.371
			c-6.064-0.831-12.587-2.324-18.585-0.39c-6.396,2.063-8.417,9.038-8.132,15.121c0.493,10.547,8.619,19.265,10.622,29.479
			c3.762,19.184-29.469,26.045-19.561,46.513c4.417,9.125,13.812,15.654,22.338,20.522c8.252,4.712,16.675,8.93,18.721,19.067
			c1.857,9.2-3.404,18.794,0.597,27.855c3.892,8.816,12.61,7.994,20.808,6.981c10.954-1.354,21.904-3.567,32.985-3.45
			c7.152,0.076,14.001,2.156,20.15,5.733c4.271,2.484,8.317,5.342,13.105,6.755c8.969,2.648,19.773-3.453,25.356-10.163
			c6.164-7.408,10.253-20.917,22.375-18.344c9.505,2.018,18.364,8.213,27.079,0.606c5.975-5.216,5.364-13.453,3.157-20.295
			c-2.799-8.672-8.138-16.249-11.589-24.638c-1.722-4.185-2.315-8.374-0.295-12.62s6.712-6.895,10.263-9.704
			c7.794-6.167,9.898-14.95,4.936-23.723c-5.267-9.309-16.154-14.628-25.871-17.927c-4.665-1.584-9.588-2.909-13.53-5.998
			c-4.906-3.843-5.196-10.097-3.913-15.693c1.688-7.368,3.901-14.005-3.372-19.2c-9.597-6.854-19.509-7.042-30.742-4.963
			c-12.018,2.223-24.755,5.923-35.371-2.389c-4.089-3.201-7.16-7.497-11.276-10.684c-4.261-3.3-9.276-4.565-14.589-4.696
			c-11.78-0.289-20.941,8.11-21.11,19.871C105.651,42.837,108.651,42.834,108.679,40.901L108.679,40.901z"/>
	</g>
</g>
<g id="Eye_1_">
	
		<ellipse fill="#FFFFFF" stroke="#212121" stroke-width="2" stroke-miterlimit="10" cx="127.398" cy="92.363" rx="13.031" ry="17.375"/>
	<ellipse fill="#212121" cx="127.734" cy="96.838" rx="9.675" ry="12.9"/>
	<circle fill="#FFFFFF" cx="122.272" cy="86.63" r="2.692"/>
	<g>
		<g>
			<path fill="#212121" d="M98.158,71.904c12.251-11.792,39.141-13.202,40.269,8.61c0.1,1.925,3.1,1.934,3,0
				c-1.266-24.472-31.11-24.476-45.39-10.731C94.641,71.127,96.764,73.246,98.158,71.904L98.158,71.904z"/>
		</g>
	</g>
	<g>
		<g>
			<path fill="#212121" d="M140.684,83.192c3.017-1.631,4.048-4.667,4.834-7.805c0.47-1.877-2.423-2.673-2.893-0.798
				c-0.591,2.36-1.159,4.771-3.455,6.012C137.468,81.521,138.982,84.112,140.684,83.192L140.684,83.192z"/>
		</g>
	</g>
</g>
<g id="Eye">
	
		<ellipse fill="#FFFFFF" stroke="#212121" stroke-width="2" stroke-miterlimit="10" cx="177.324" cy="92.363" rx="13.031" ry="17.375"/>
	<ellipse fill="#212121" cx="176.988" cy="96.838" rx="9.676" ry="12.9"/>
	<circle fill="#FFFFFF" cx="182.45" cy="86.63" r="2.693"/>
	<g>
		<g>
			<path fill="#212121" d="M208.686,69.783c-14.28-13.744-44.125-13.741-45.391,10.731c-0.1,1.934,2.9,1.925,3,0
				c1.128-21.813,28.019-20.401,40.27-8.61C207.958,73.246,210.082,71.127,208.686,69.783L208.686,69.783z"/>
		</g>
	</g>
	<g>
		<g>
			<path fill="#212121" d="M165.552,80.601c-2.296-1.241-2.864-3.652-3.455-6.012c-0.47-1.875-3.363-1.08-2.893,0.798
				c0.786,3.137,1.817,6.173,4.834,7.805C165.739,84.112,167.254,81.521,165.552,80.601L165.552,80.601z"/>
		</g>
	</g>
</g>
<g id="Mouth">
	
		<ellipse fill="#FFFFFF" stroke="#212121" stroke-width="2" stroke-miterlimit="10" cx="151.172" cy="147.062" rx="20.226" ry="24.869"/>
	<g>
		<g>
			<path fill="#212121" d="M134.333,135.923c2.851,2.089,5.457,4.47,8.216,6.673c0.774,0.618,2.308,0.576,2.507-0.662
				c0.409-2.542,0.514-4.532,2.609-6.477c-0.606,0.078-1.212,0.156-1.817,0.235c2.901,1.866,4.254,4.999,6.374,7.594
				c0.583,0.714,1.967,0.522,2.355-0.304c1.306-2.772,2.375-5.631,3.914-8.288c-0.863,0-1.727,0-2.59,0
				c1.875,2.894,3.012,6.104,4.224,9.313c0.439,1.165,2.044,1.563,2.741,0.358c1.586-2.738,3.149-5.403,5.293-7.756
				c1.3-1.426-0.815-3.554-2.121-2.121c-2.322,2.548-4.038,5.387-5.762,8.363c0.914,0.119,1.827,0.239,2.741,0.358
				c-1.303-3.451-2.511-6.918-4.526-10.03c-0.603-0.93-2.005-1.009-2.59,0c-1.539,2.658-2.608,5.516-3.914,8.289
				c0.785-0.102,1.57-0.203,2.355-0.304c-2.377-2.91-3.738-5.977-6.981-8.063c-0.579-0.373-1.337-0.211-1.817,0.235
				c-2.385,2.214-2.874,4.65-3.38,7.8c0.835-0.221,1.671-0.441,2.507-0.662c-2.96-2.363-5.765-4.902-8.823-7.143
				C134.284,132.187,132.79,134.792,134.333,135.923L134.333,135.923z"/>
		</g>
	</g>
	<g>
		<g>
			<path fill="#212121" d="M135.23,158.253c1.775-1.62,3.677-3.07,5.526-4.604c-0.707,0-1.414,0-2.121,0
				c2.067,2.51,3.706,5.269,5.987,7.598c0.526,0.537,1.612,0.634,2.121,0c2.084-2.59,3.406-5.506,5.071-8.363
				c-0.785,0.102-1.57,0.202-2.355,0.304c2.312,2.476,3.428,5.664,5.291,8.446c0.66,0.986,2.479,1.014,2.741-0.358
				c0.726-3.793,3.069-6.284,5.602-9.008c-0.785-0.102-1.57-0.202-2.355-0.304c1.608,2.646,3.113,5.264,5.069,7.671
				c1.221,1.502,3.33-0.634,2.121-2.121c-1.797-2.211-3.129-4.644-4.601-7.063c-0.487-0.802-1.685-1.025-2.355-0.304
				c-2.919,3.139-5.547,6.01-6.373,10.332c0.914-0.12,1.827-0.239,2.741-0.358c-2.015-3.011-3.262-6.379-5.76-9.054
				c-0.663-0.71-1.881-0.511-2.356,0.304c-1.527,2.619-2.684,5.371-4.602,7.756c0.707,0,1.414,0,2.121,0
				c-2.265-2.313-3.933-5.104-5.987-7.598c-0.554-0.673-1.541-0.481-2.121,0c-1.849,1.533-3.751,2.983-5.526,4.604
				C131.677,157.438,133.805,159.554,135.23,158.253L135.23,158.253z"/>
		</g>
	</g>
	<g>
		<g>
			<path fill="#212121" d="M135.465,151.832c-1.735-2.997-1.434-7.34-0.708-10.589c0.601-2.683,1.537-0.69,2.727,0.431
				c1.67,1.574,3.58,2.852,5.297,4.376c0.606-0.785,1.212-1.57,1.818-2.356c-2.399-1.625-4.816-2.978-7.497-4.065
				c-0.762-0.309-1.644,0.33-1.845,1.047c-1.15,4.088,0.505,8.956-3.068,12.002c0.835,0.486,1.671,0.973,2.507,1.459
				c1.25-3.521,4.515-6.525,7.213-9.009c-0.854-0.354-1.707-0.707-2.561-1.061c-0.001,1.769-0.675,3.333-2.021,4.692
				c0.505,0.864,1.01,1.727,1.515,2.59c1.805-1.315,3.698-2.172,5.139-3.919c1.217-1.475-0.866-3.606-2.121-2.121
				c-3.571,4.226-0.755,6.921,1.838,10.798c0.756,1.13,2.948,0.844,2.795-0.757c-0.239-2.502-2.605-6.867-0.843-9.071
				c1.932-2.416,2.032-3.834,2.632-6.879c-0.835,0.221-1.671,0.441-2.507,0.662c2.794,2.202,4.437,5.393,7.441,7.374
				c0.508,0.334,1.426,0.27,1.817-0.235c1.533-1.978,2.774-4.063,3.918-6.29c-0.863,0-1.727,0-2.59,0
				c1.506,2.154,3.352,8.123,7.025,6.717c3.1-1.187,5.773-6.892,5.902-10.007c-0.932,0.252-1.863,0.505-2.795,0.757
				c2.445,4.587,3.003,12.03,0.459,16.677c0.785-0.102,1.57-0.203,2.355-0.304c-2.598-2.746-2.161-7.414-1.227-10.744
				c0.464-1.651-1.877-2.619-2.741-1.156c-0.748,1.265-1.298,2.614-1.919,3.944c-1.57,3.357-4.973-2.117-5.391-2.793
				c-0.632-1.025-2.493-0.983-2.741,0.358c-0.544,2.938-0.411,5.757,2.659,6.912c-0.299-0.734-0.598-1.469-0.896-2.203
				c-0.936,1.617-2.205,2.697-2.992,4.374c0.914,0.119,1.827,0.238,2.741,0.358c-0.377-2.14-0.576-4.303-0.923-6.448
				c-0.207-1.277-2.189-1.462-2.741-0.358c-0.461,0.921-0.921,1.843-1.381,2.765c0.863,0,1.727,0,2.59,0
				c-0.84-1.505-1.463-3.101-2.305-4.605c-0.744-1.331-2.767-0.705-2.795,0.757c-0.058,0.788-0.116,1.575-0.174,2.363
				c0.914-0.119,1.828-0.239,2.741-0.358c-0.944-1.234-1.448-2.543-1.923-4.016c-0.332-1.03-1.705-1.524-2.507-0.662
				c-1.665,1.792-2.427,3.479-2.741,5.896c-0.08,0.616,0.513,1.331,1.101,1.446c0.693,0.15,1.341,0.407,1.944,0.77
				c0-0.863,0-1.727,0-2.59c-1.826,1.191-2.399,2.366-2.584,4.518c-0.166,1.929,2.835,1.912,3,0
				c0.366-0.643,0.732-1.285,1.098-1.928c0.897-0.585,1.046-2.04,0-2.59c-0.944-0.497-1.608-0.865-2.66-1.072
				c0.367,0.482,0.734,0.964,1.101,1.446c0.621-1.258,1.242-2.517,1.862-3.775c-0.835-0.221-1.671-0.441-2.507-0.662
				c0.564,1.75,1.099,3.26,2.225,4.732c0.671,0.876,2.53,1.101,2.742-0.358c0.176-1.207,0.258-1.942,0.281-3.161
				c-0.932,0.252-1.863,0.505-2.795,0.757c0.842,1.505,1.464,3.101,2.305,4.605c0.525,0.941,2.085,1.013,2.59,0
				c0.46-0.921,0.921-1.843,1.381-2.765c-0.914-0.119-1.827-0.239-2.741-0.358c0.348,2.148,0.545,4.305,0.923,6.447
				c0.22,1.247,2.206,1.499,2.741,0.358c0.764-1.626,2.099-2.827,2.992-4.374c0.52-0.897,0.002-1.866-0.896-2.203
				c-0.82-0.964-1.009-2.038-0.563-3.221c-0.914,0.119-1.827,0.239-2.741,0.358c1.349,2.189,3.672,5.701,6.621,5.701
				c3.642,0,4.394-4.355,5.868-6.852c-0.914-0.385-1.827-0.771-2.741-1.156c-1.252,4.46-1.372,10.099,1.998,13.663
				c0.653,0.691,1.898,0.531,2.355-0.304c3.077-5.619,2.502-14.15-0.459-19.704c-0.733-1.377-2.735-0.668-2.795,0.757
				c-0.091,2.188-1.923,4.792-3.221,6.452c-1.051,1.345-3.738-4.134-4.117-4.675c-0.602-0.861-2.037-1.078-2.59,0
				c-1.021,1.986-2.074,3.91-3.449,5.683c0.605-0.078,1.212-0.156,1.817-0.235c-2.767-1.824-4.25-4.869-6.834-6.904
				c-0.801-0.631-2.266-0.563-2.507,0.662c-0.61,3.1-2.345,5.457-3.454,8.29c-0.923,2.356,1.333,6.106,1.558,8.458
				c0.932-0.252,1.863-0.505,2.795-0.757c-1.309-1.957-4.559-4.499-2.308-7.163c-0.707-0.707-1.414-1.414-2.121-2.121
				c-1.251,1.517-2.965,2.307-4.533,3.45c-1.552,1.131-0.245,3.453,1.515,2.59c2.99-1.465,3.23-4.244,3.507-7.282
				c0.126-1.388-1.681-1.871-2.561-1.061c-3.113,2.865-6.542,6.266-7.985,10.333c-0.545,1.535,1.463,2.349,2.507,1.459
				c4.392-3.744,2.444-8.365,3.84-13.326c-0.615,0.349-1.23,0.698-1.845,1.047c2.456,0.996,4.6,2.285,6.78,3.763
				c1.412,0.957,3.088-1.229,1.818-2.356c-1.717-1.524-3.579-2.851-5.297-4.376c-0.941-0.836-1.771-2.184-2.865-2.825
				c-1.869-1.095-3.049,0.341-4.096,1.748c-2.613,3.51-1.825,11.322,0.229,14.87C133.843,155.019,136.436,153.509,135.465,151.832
				L135.465,151.832z"/>
		</g>
	</g>
	<g>
		<g>
			<path fill="#212121" d="M134.169,138.891c1.935,0,1.935-3,0-3S132.235,138.891,134.169,138.891L134.169,138.891z"/>
		</g>
	</g>
	<g>
		<g>
			<path fill="#212121" d="M136.933,153.166c1.935,0,1.935-3,0-3S134.999,153.166,136.933,153.166L136.933,153.166z"/>
		</g>
	</g>
	<g>
		<g>
			<path fill="#212121" d="M142.69,153.166c1.935,0,1.935-3,0-3S140.755,153.166,142.69,153.166L142.69,153.166z"/>
		</g>
	</g>
	<g>
		<g>
			<path fill="#212121" d="M133.622,141.257c1.284,2.08,3.21,3.677,5.372,4.789c1.717,0.883,3.235-1.706,1.514-2.591
				c-1.71-0.879-3.273-2.057-4.294-3.711C135.198,138.101,132.603,139.606,133.622,141.257L133.622,141.257z"/>
		</g>
	</g>
	<g>
		<g>
			<path fill="#212121" d="M133.804,140.351c-0.592,2.743-0.126,5.505-0.583,8.25c0.615-0.349,1.23-0.698,1.845-1.047
				c-1.188-0.419-0.499-3.163-0.315-4.001c0.488-2.226,1.105-4.393,1.446-6.654c0.285-1.892-2.605-2.706-2.893-0.798
				c-0.56,3.716-4.485,12.424,0.964,14.345c0.714,0.252,1.717-0.279,1.845-1.047c0.457-2.742-0.003-5.534,0.583-8.25
				C137.104,139.263,134.211,138.46,133.804,140.351L133.804,140.351z"/>
		</g>
	</g>
	<g>
		<g>
			<path fill="#212121" d="M131.917,151.917c-0.144,1.509-0.065,2.506,0.47,3.898c0.385,1.002,1.667,1.548,2.507,0.662
				c1.742-1.834,5.045-5.748,7.315-2.013c0.773,1.272,1.435,2.537,2.397,3.679c0.607,0.721,1.938,0.513,2.356-0.304
				c1.993-3.891,0.521-4.806-1-8.264c-0.786,0.606-1.571,1.212-2.356,1.818c1.658,1.344,3.217,3.567,5.587,2.786
				c3.111-1.025,0.878-5.483,0.102-7.188c-0.684,0.684-1.368,1.368-2.052,2.052c2.936,1.407,5.985,4.496,7.061,7.603
				c0.491,1.421,2.406,1.435,2.893,0c0.991-2.922,4.189-6.004,6.364-8.171c-0.707,0-1.414,0-2.121,0
				c1.849,2.37,3.693,5.167,5.183,7.78c0.957,1.681,3.55,0.17,2.59-1.514c-1.634-2.868-3.618-5.781-5.651-8.387
				c-0.505-0.647-1.596-0.524-2.121,0c-2.71,2.7-5.889,5.816-7.136,9.496c0.964,0,1.929,0,2.893,0
				c-1.343-3.881-4.735-7.621-8.439-9.397c-1.406-0.674-2.684,0.667-2.052,2.052c1.043,2.29,0.318,1.816-0.977,0.766
				c-1.357-1.1-3.051,0.236-2.356,1.818c0.844,1.92,2.421,2.46,1,5.235c0.786-0.102,1.571-0.203,2.356-0.304
				c-1.435-1.701-2.739-6.364-5.372-6.775c-3.728-0.582-6.27,2.672-8.583,5.109c0.835,0.221,1.671,0.441,2.507,0.662
				c-0.478-1.007-0.599-2.041-0.363-3.102C135.1,149.991,132.098,150.008,131.917,151.917L131.917,151.917z"/>
		</g>
	</g>
	<g>
		<g>
			<path fill="#212121" d="M167.5,158.25c1.935,0,1.935-3,0-3S165.565,158.25,167.5,158.25L167.5,158.25z"/>
		</g>
	</g>
	<g>
		<g>
			<path fill="#212121" d="M169.167,153c0.131-2.888,0.024-5.777,0.083-8.667c0.041-2.047-0.642-3.503-2.022-4.978
				c-0.726-0.775-1.794-0.43-2.355,0.303c-0.979,1.277-1.535,2.793-2.766,3.864c-1.463,1.271,0.669,3.384,2.121,2.121
				c1.444-1.256,2.091-2.978,3.234-4.47c-0.785,0.101-1.57,0.202-2.355,0.303c1.377,1.471,1.13,2.868,1.119,4.757
				c-0.014,2.258,0.044,4.509-0.059,6.766C166.079,154.935,169.08,154.927,169.167,153L169.167,153z"/>
		</g>
	</g>
	<g>
		<g>
			<path fill="#212121" d="M159.795,144.409c-1.151-2.005-0.878-3.979-0.878-6.243c0-1.446-2.094-2.111-2.795-0.757
				c-0.446,0.86-2.817,5.824-3.9,5.274c-0.786-0.399-1.521-0.758-2.363-1.042c-1.822-0.613-2.052-2.121-1.313-3.801
				c-0.684,0.179-1.368,0.358-2.052,0.538c1.003,0.621,1.635,1.683,2.446,2.515c1.352,1.388,3.472-0.735,2.121-2.121
				c-1.018-1.045-1.794-2.205-3.054-2.985c-0.636-0.393-1.728-0.198-2.052,0.538c-0.777,1.767-1.211,3.758-0.333,5.598
				c0.979,2.05,2.781,2.138,4.607,3.079c1.708,0.879,2.974,1.363,4.497-0.099c1.723-1.653,2.903-3.892,3.986-5.98
				c-0.932-0.252-1.863-0.505-2.795-0.757c0,2.914-0.187,5.19,1.288,7.757C158.168,147.601,160.76,146.09,159.795,144.409
				L159.795,144.409z"/>
		</g>
	</g>
	<g>
		<g>
			<path fill="#212121" d="M133.167,147.083c1.935,0,1.935-3,0-3S131.232,147.083,133.167,147.083L133.167,147.083z"/>
		</g>
	</g>
</g>
<g id="Spots">
	<circle fill="#F99269" stroke="#212121" stroke-width="2" stroke-miterlimit="10" cx="222.016" cy="158" r="6.793"/>
	<circle fill="#F99269" stroke="#212121" stroke-width="2" stroke-miterlimit="10" cx="204.155" cy="127.734" r="6.203"/>
	<circle fill="#F99269" stroke="#212121" stroke-width="2" stroke-miterlimit="10" cx="73.16" cy="142.677" r="8.74"/>
	<circle fill="#F99269" stroke="#212121" stroke-width="2" stroke-miterlimit="10" cx="125.797" cy="189.66" r="6.217"/>
	<circle fill="#F99269" stroke="#212121" stroke-width="2" stroke-miterlimit="10" cx="185.278" cy="204.167" r="8.29"/>
	<circle fill="#F99269" stroke="#212121" stroke-width="2" stroke-miterlimit="10" cx="124.76" cy="35.268" r="7.253"/>
	<circle fill="#F99269" stroke="#212121" stroke-width="2" stroke-miterlimit="10" cx="65.427" cy="227.548" r="7.014"/>
	<circle fill="#F99269" stroke="#212121" stroke-width="2" stroke-miterlimit="10" cx="59.047" cy="252.521" r="4.145"/>
	<circle fill="#F99269" stroke="#212121" stroke-width="2" stroke-miterlimit="10" cx="80.173" cy="259.085" r="2.417"/>
	<circle fill="#F99269" stroke="#212121" stroke-width="2" stroke-miterlimit="10" cx="48.795" cy="231.054" r="3.507"/>
	<circle fill="#F99269" stroke="#212121" stroke-width="2" stroke-miterlimit="10" cx="96.838" cy="95.972" r="6.649"/>
	<circle fill="#F99269" stroke="#212121" stroke-width="2" stroke-miterlimit="10" cx="216.697" cy="85.403" r="6.96"/>
	<circle fill="#F99269" stroke="#212121" stroke-width="2" stroke-miterlimit="10" cx="241.818" cy="119.754" r="10.016"/>
	<circle fill="#F99269" stroke="#212121" stroke-width="2" stroke-miterlimit="10" cx="189.422" cy="46.667" r="4.145"/>
</g>
</svg>
