<?xml version="1.0" encoding="utf-8"?>
<!-- Generator: Adobe Illustrator 16.0.0, SVG Export Plug-In . SVG Version: 6.00 Build 0)  -->
<!DOCTYPE svg PUBLIC "-//W3C//DTD SVG 1.1//EN" "http://www.w3.org/Graphics/SVG/1.1/DTD/svg11.dtd">
<svg version="1.1" id="Layer_1" xmlns="http://www.w3.org/2000/svg" xmlns:xlink="http://www.w3.org/1999/xlink" x="0px" y="0px"
	 width="85.193px" height="295.138px" viewBox="106.363 1.971 85.193 295.138"
	 enable-background="new 106.363 1.971 85.193 295.138" xml:space="preserve">
<polygon fill="#F9E97A" points="132.934,39.091 133.082,30.526 133.231,21.959 138.987,26.344 144.744,30.728 138.839,34.91 "/>
<polygon fill="#F9E97A" points="128.033,43.505 128.178,35.253 128.32,27.001 134.074,31.229 139.828,35.455 133.931,39.48 "/>
<polygon fill="#F9E97A" points="142.372,37.143 144.747,27.342 147.127,17.015 151.889,23.886 156.646,30.229 149.51,33.687 "/>
<polygon fill="#F9E97A" points="118.637,59.545 124.067,55.947 129.497,52.349 130.6,59.913 131.701,67.473 125.169,63.507 "/>
<polygon fill="#F9E97A" points="122.104,66.31 127.534,62.714 132.964,59.116 134.066,66.679 135.169,74.241 128.636,70.274 "/>
<polygon fill="#F9E97A" points="136.706,35.303 138.716,27.51 140.726,19.717 145.48,25.099 150.235,30.481 143.47,32.893 "/>
<polygon fill="#F9E97A" points="131.589,56.044 125.54,50.29 119.491,44.535 126.212,43.526 132.934,42.519 132.261,49.281 "/>
<polygon fill="#F9E97A" points="118.285,51.835 124.164,49.19 130.042,46.545 130.007,54.32 129.971,62.094 124.129,56.965 "/>
<path fill="#FFFFFF" stroke="#B5B5B5" stroke-linecap="round" stroke-linejoin="round" stroke-miterlimit="10" d="M148.098,286.72"
	/>
<path fill="#FFFFFF" stroke="#B5B5B5" stroke-linecap="round" stroke-linejoin="round" stroke-miterlimit="10" d="M150.16,193.727"
	/>
<path id="Neck_2_" fill="#EAC198" d="M159.24,93.133c-2.223-1.173-2.09-2.347-2.09-2.347V85.17h-7.328h-8.313v5.615
	c0,0,0.605,1.174-1.615,2.347c-2.22,1.173-4.411,1.522-4.411,1.522l-0.026,10.197h14.161h14.121l0.146-10.197
	C163.887,94.655,161.459,94.306,159.24,93.133z"/>
<polyline id="Neck_1_" fill="#EAC198" points="157.15,89.712 157.15,84.162 149.38,84.162 141.51,84.162 141.51,89.712 "/>
<path fill="#FFFFFF" stroke="#000000" stroke-linecap="round" stroke-linejoin="round" stroke-miterlimit="10" d="M141.022,92.386"
	/>
<path fill="#FFFFFF" stroke="#B5B5B5" stroke-linecap="round" stroke-linejoin="round" stroke-miterlimit="10" d="M123.415,99.488
	c0.535-2.412,3.844-3.889,3.844-3.889l13.764-3.229c0.039,0.564,5.309,7.183,5.309,7.183v5.986v2.65c0,0,2.928,17.247,3.904,18.618
	l0.201,86.791h-25.791c0,0,3.991-76.838-1.26-104.653C122.554,104.539,123.313,99.945,123.415,99.488z"/>
<path fill="#262626" d="M146.052,287.016v10.094h-5.046v-2.077l-0.699,2.077h-17.923c0,0-1.209-9.223,11.779-10.521l11.963,0.228"/>
<path fill="#262626" d="M155.287,286.816l12.736-0.18c12.986,1.301,12.234,10.471,12.234,10.471h-18.441l-1.133-2.076v2.076h-5.55
	v-10.092"/>
<polygon fill="#414241" points="151.296,213.848 154.874,287.016 167.516,287.016 170.618,213.848 "/>
<polygon fill="#414241" points="149.923,213.848 146.312,287.016 133.56,287.016 130.432,213.848 "/>
<path fill="#EAC198" d="M187.934,177.012v4.227c0,0,2.026,1.52,1.127,13.14c0,0-1.105,2.242-2.832,0c0,0,0.275-3.608,0.504-6.735
	l-0.813,11.051c0,0-0.946,2.244-2.328,0l0.856-11.051l-1.176,12.775c0,0-2.625,2.07-2.625-1.727l0.689-11.049l-0.828,10.809
	c0,0-1.555,1.895-2.764,0l0.482-10.809l-2.07,6.043c0,0-1.036,2.416-1.553-0.862c0,0-0.174-0.354,0-5.181
	c0,0,0.082-4.209,3.533-6.279l0.221-4.451"/>
<path id="Chin_1_" opacity="0.1" enable-background="new    " d="M157.15,88.176V86.18h-7.788h-7.854v1.763
	c1.513,0.809,4.898,2.297,7.826,2.212C152.805,90.161,154.629,89.244,157.15,88.176z"/>
<path id="Face_3_" fill="#EAC198" d="M170.008,57.136c0.002-0.02,0.002-0.223,0.002-0.223h-0.002
	c-0.117-11.606-9.234-20.356-20.469-20.356c-11.305,0-20.47,9.395-20.47,20.864c0,2.077,0.302,4.128,0.86,6.021
	c1.696,9.385,6.554,26.104,19.615,25.625c13.127,0.48,17.974-16.378,19.646-25.734c0.533-1.85,0.818-3.893,0.818-5.916
	C170.01,57.353,170.008,57.199,170.008,57.136z"/>
<path id="Ear_1_6_" fill="#EAC198" d="M127.94,62.179c0,0-2.73,0.698,2.145,6.453c2.707,3.198,2.331-0.69,1.68-0.579
	c-0.649,0.11-0.68-3.344-1.737-4.909C129.056,61.702,127.94,62.179,127.94,62.179z"/>
<path id="Ear_1_5_" fill="#EAC198" d="M171.061,62.179c0,0,2.731,0.698-2.144,6.453c-2.709,3.198-2.331-0.69-1.681-0.579
	c0.648,0.11,0.679-3.344,1.736-4.909C169.943,61.702,171.061,62.179,171.061,62.179z"/>
<path id="Eyebrow_1_6_" fill="#F9E97A" d="M144.813,54.463c-0.883-0.53-5.558,0.552-6.682,0.797
	c-0.464,0.099-2.101,0.833-2.101,0.833s-1.915,1.056-2.086,2.396c-0.172,1.339,1.195,0.184,1.79-0.125
	c0.596-0.312,2.681-1.435,3.315-1.379c0.963,0.081,4.837-0.345,5.563-0.43C146.077,56.386,145.085,54.629,144.813,54.463z"/>
<path id="Eyebrow_1_5_" fill="#F9E97A" d="M153.15,54.463c0.881-0.53,5.558,0.552,6.682,0.797c0.462,0.099,2.1,0.833,2.1,0.833
	s1.916,1.056,2.088,2.396c0.17,1.339-1.197,0.184-1.793-0.125c-0.594-0.312-2.681-1.435-3.314-1.379
	c-0.963,0.081-4.837-0.345-5.562-0.43C151.887,56.386,152.877,54.629,153.15,54.463z"/>
<path fill="#F9E97A" d="M129.25,51.451c0,0,9.01-1.379,14.449-7.905c0,0,0.696,1.958-2.189,4.641c0,0,11.761-0.943,16.087-9.208
	c0,0,0.787-7.397-0.949-8.75c-1.309-1.019-6.565,0.919-6.565,0.919S127.779,31.874,129.25,51.451z"/>
<g>
	<g>
		<path fill="#AA8C75" d="M146.31,71.952c-0.485,1.038-0.497,2.155,0.51,2.875c0.996,0.712,2.285,0.904,3.465,1.101
			c0.473,0.079,0.676-0.644,0.199-0.724c-1.52-0.253-4.566-0.652-3.527-2.874C147.161,71.896,146.515,71.515,146.31,71.952
			L146.31,71.952z"/>
	</g>
</g>
<path opacity="0.1" enable-background="new    " d="M130.491,49.87c0,0,3.716-0.018,11.966-7.056"/>
<path opacity="0.1" enable-background="new    " d="M144.715,46.342c0,0,7.872-1.978,11.168-8.209"/>
<path opacity="0.1" enable-background="new    " d="M144.266,56.594c0,0-0.13-0.842-0.796-1.324"/>
<path opacity="0.1" enable-background="new    " d="M142.457,56.721c0,0-0.082-0.855-0.788-1.451"/>
<path opacity="0.1" enable-background="new    " d="M140.747,56.721c0,0-0.392-0.615-1.085-1.129"/>
<path opacity="0.1" enable-background="new    " d="M153.516,56.155c0,0,0.295-0.805,0.938-0.885"/>
<path opacity="0.1" enable-background="new    " d="M155.178,56.594c0,0,0.676-1.244,1.344-1.324"/>
<path opacity="0.1" enable-background="new    " d="M156.543,56.594c0,0,0.42-1.002,1.214-1.002"/>
<path fill="#424242" d="M131.217,68.313c0,0-0.277-0.01-0.221,0.071c0.392,0.563,0.131,2.035-0.669,1.427
	c-0.421-0.32,0.036-0.792-0.092-1c-0.188-0.306-0.189-0.198-0.189-0.198s-0.55,1.581,0.502,1.586
	C131.85,70.203,131.4,68.716,131.217,68.313z"/>
<ellipse fill="#FFFFFF" cx="140.383" cy="61.887" rx="3.583" ry="4.462"/>
<ellipse fill="#007115" cx="140.382" cy="62.834" rx="3.013" ry="3.751"/>
<ellipse cx="140.383" cy="63.231" rx="2.253" ry="3.354"/>
<path fill="#FFFFFF" d="M140.479,61.926c0,0.615-0.526,1.113-1.174,1.113c-0.651,0-1.175-0.498-1.175-1.113
	c0-0.613,0.523-1.109,1.175-1.109C139.952,60.817,140.479,61.313,140.479,61.926z"/>
<path opacity="0.1" fill="#FFFFFF" enable-background="new    " d="M140.402,57.429l0.062,9.151c0.821-0.028,1.561-0.462,2.091-1.15
	c0.855-0.815,1.411-2.095,1.411-3.543C143.966,59.433,142.372,57.442,140.402,57.429z"/>
<ellipse fill="#FFFFFF" cx="157.006" cy="61.887" rx="3.583" ry="4.462"/>
<ellipse fill="#007115" cx="157.007" cy="62.834" rx="3.013" ry="3.751"/>
<ellipse cx="157.006" cy="63.231" rx="2.254" ry="3.354"/>
<ellipse fill="#FFFFFF" cx="155.928" cy="61.926" rx="1.176" ry="1.113"/>
<path opacity="0.1" fill="#FFFFFF" enable-background="new    " d="M157.025,57.429l0.063,9.151c0.819-0.028,1.558-0.462,2.089-1.15
	c0.855-0.815,1.41-2.095,1.41-3.543C160.589,59.433,158.996,57.442,157.025,57.429z"/>
<path fill="#F9E97A" d="M157.598,38.979c0,0,13.758,4.093,11.696,23.315l1.767-0.115c0,0,2.785-25.084-13.59-30.285"/>
<path fill="#FFFFFF" stroke="#CCB27A" stroke-width="0.75" stroke-linecap="round" stroke-linejoin="round" stroke-miterlimit="10" d="
	M143.966,81.774l11.882-2.856c0,0-1.861,4.761-5.065,5.8C146.754,86.029,144.895,84.025,143.966,81.774z"/>
<path fill="#FFFFFF" stroke="#B5B5B5" stroke-linecap="round" stroke-linejoin="round" stroke-miterlimit="10" d="M174.193,98.096
	c1.858-1.627-4.254-3.146-4.254-3.146l-12.209-2.847c-0.037,0.566,0.188-2.391,0.188-2.391h-17.851l0.61,2.739l-0.298,34.991
	l0.021,88.424l32.917-0.252C173.318,215.614,169.294,102.385,174.193,98.096z"/>
<circle fill="#424242" cx="145.642" cy="112.483" r="2.265"/>
<circle fill="#424242" cx="157.752" cy="112.483" r="2.265"/>
<circle fill="#424242" cx="145.642" cy="140.186" r="2.265"/>
<circle fill="#424242" cx="157.752" cy="140.186" r="2.265"/>
<circle fill="#424242" cx="145.642" cy="166.98" r="2.265"/>
<circle fill="#424242" cx="157.752" cy="166.98" r="2.265"/>
<circle fill="#424242" cx="145.642" cy="191.918" r="2.266"/>
<circle fill="#424242" cx="157.752" cy="191.918" r="2.266"/>
<path fill="#FFFFFF" stroke="#A8A8A8" stroke-linecap="round" stroke-linejoin="round" stroke-miterlimit="10" d="M171.822,95.534
	c0,0,3.136,0.756,4.136,3.066c4.538,10.479,17.099,44.26,14.826,78.158h-14.892c0,0,2.596-28.16-5.953-56.69"/>
<path fill="#EAC198" d="M109.979,178.021v4.226c0,0-2.026,1.521-1.126,13.14c0,0,1.105,2.243,2.832,0c0,0-0.275-3.609-0.504-6.736
	l0.815,11.051c0,0,0.947,2.244,2.328,0l-0.856-11.051l1.176,12.777c0,0,2.625,2.071,2.625-1.728l-0.688-11.052l0.827,10.812
	c0,0,1.555,1.896,2.763,0l-0.483-10.812l2.071,6.047c0,0,1.036,2.416,1.553-0.863c0,0,0.173-0.352,0-5.184
	c0,0-0.083-4.205-3.535-6.274l-0.219-4.452"/>
<path fill="#FFFFFF" stroke="#A8A8A8" stroke-linecap="round" stroke-linejoin="round" stroke-miterlimit="10" d="M124.255,97.769
	c0,0-19.897,38.62-17.127,79.999h14.892c0,0-2.597-28.161,5.953-56.689"/>
<path fill="#FFFFFF" stroke="#B5B5B5" stroke-linecap="round" stroke-linejoin="round" stroke-miterlimit="10" d="M173.009,17.807
	c-1.771-4.41-4.974-7.561-9.966-7.561c-1.104,0-2.092,0.188-3.068,0.533c-1.516-4.806-6.154-8.308-11.687-8.308
	c-5.579,0-10.269,3.563-11.741,8.433c-1.067-0.424-2.23-0.659-3.46-0.659c-4.992,0-8.429,3.185-10.307,7.561
	c-2.203,5.134,0.716,11.185,5.491,11.271l-0.237,13.236c0,0.374,1.17,0.187,1.593,0.187h37.559c0.424,0,0.764,0.219,1.289-0.187
	l-0.408-13.42C172.838,27.634,174.719,22.066,173.009,17.807z"/>
<line fill="none" stroke="#B5B5B5" stroke-width="4" stroke-linecap="round" stroke-linejoin="round" stroke-miterlimit="10" x1="128.033" y1="37.053" x2="167.923" y2="37.053"/>
<path opacity="0.05" enable-background="new    " d="M150.893,212.348c0.069-8.24-1.011-129.688-2.011-134.595
	c-1.212-5.93,0.33-36.045,0.33-36.045c-2.571-12.859,1.287-39.112-0.203-39.236c-9.818-0.814-12.647,8.117-12.647,8.117
	c-8.091-2.564-12.468,4.466-12.468,4.466c-6.191,12.14,4.14,14.37,4.14,14.37l-0.204,6.632c0,0-0.857,0.031-0.93,0.997
	c-0.043,0.595,0.974,1.079,0.974,1.079l-0.096,5.092l-8.287,1.31l4.889,4.564l-6.094,2.736l5.21,4.561c0,0-3.802,2.339-4.859,3.149
	l7.069,4.366c0,0-3.125,2.082-3.602,2.399c0,0,9.656,5.75,10.13,6.279c1.739,5.47,4.79,9.582,4.79,9.582
	c1.478,1.991,4.485,4.62,4.485,4.62l-0.02,2.677l-1.679-0.045c0,0.673,0.86,2.775,0.485,2.947c-1.221,0.558-5.707,1.471-10.59,2.642
	c-2.448,0.587-3.494,1.165-5.452,2.757c-0.686,0.558-21.452,45.95-17.127,79.999h14.892c0,0-0.647-29.009,1.168-34.01l2.165-11.977
	l0.486,23.301v11.098l-0.133,7.738l-1.327,39.93h6.052l3.262,72.813c0,0-5.655,0.737-8.39,3.256c-1.416,1.306-3.406,4.369-2.92,7.19
	h17.923l0.699-2.076v2.076h5.046v-10.092l4.199-74.404L150.893,212.348"/>
</svg>
