<?xml version="1.0" encoding="utf-8"?>
<!-- Generator: Adobe Illustrator 16.0.0, SVG Export Plug-In . SVG Version: 6.00 Build 0)  -->
<!DOCTYPE svg PUBLIC "-//W3C//DTD SVG 1.1//EN" "http://www.w3.org/Graphics/SVG/1.1/DTD/svg11.dtd">
<svg version="1.1" id="Layer_1" xmlns="http://www.w3.org/2000/svg" xmlns:xlink="http://www.w3.org/1999/xlink" x="0px" y="0px"
	 width="86.152px" height="293.666px" viewBox="0 0 86.152 293.666" enable-background="new 0 0 86.152 293.666"
	 xml:space="preserve">
<polyline id="Neck_3_" fill="#F4D198" points="50.927,82.849 50.927,79.849 44.138,79.849 35.927,79.849 35.927,82.849 "/>
<path id="Neck_4_" fill="#F4D198" d="M52.763,85.491c-1.942-1.03-1.836-2.058-1.836-2.058v-3.584h-6.409h-7.591v3.584
	c0,0,0.684,1.028-1.266,2.058c-1.944,1.028-3.79,1.378-3.79,1.378l0.052,8.979h12.413h12.378l0.124-8.979
	C56.84,86.87,54.709,86.519,52.763,85.491z"/>
<path fill="#FFFFFF" stroke="#B5B5B5" stroke-linecap="round" stroke-linejoin="round" stroke-miterlimit="10" d="M42.706,282.158"
	/>
<path fill="#FFFFFF" stroke="#B5B5B5" stroke-linecap="round" stroke-linejoin="round" stroke-miterlimit="10" d="M44.791,188.105"
	/>
<path fill="#FFFFFF" stroke="#B5B5B5" stroke-linecap="round" stroke-linejoin="round" stroke-miterlimit="10" d="M17.74,92.792
	c0.541-2.44,3.888-3.933,3.888-3.933l13.922-3.267c0.038,0.572,5.369,7.267,5.369,7.267v6.054v2.679c0,0,2.961,17.445,3.947,18.831
	l0.203,87.776H18.986c0,0,4.034-77.711-1.274-105.843C16.87,97.899,17.636,93.254,17.74,92.792z"/>
<path fill="#262626" d="M40.634,282.457v10.207h-5.103v-2.103l-0.706,2.103H16.697c0,0-1.223-9.326,11.914-10.641l12.099,0.231"/>
<path fill="#262626" d="M49.975,282.257l12.883-0.183c13.135,1.312,12.373,10.59,12.373,10.59H56.578l-1.146-2.103v2.103h-5.614
	v-10.207"/>
<polygon fill="#414241" points="45.939,208.455 49.556,282.457 62.344,282.457 65.481,208.455 "/>
<polygon fill="#414241" points="44.548,208.455 40.898,282.457 28,282.457 24.836,208.455 "/>
<path fill="#EAC198" d="M82.994,171.201v4.271c0,0,2.049,1.539,1.14,13.29c0,0-1.119,2.271-2.864,0c0,0,0.278-3.648,0.511-6.812
	l-0.822,11.174c0,0-0.959,2.271-2.356,0l0.869-11.174l-1.189,12.922c0,0-2.654,2.095-2.654-1.748l0.695-11.174l-0.834,10.932
	c0,0-1.574,1.918-2.795,0l0.485-10.932l-2.096,6.113c0,0-1.047,2.442-1.569-0.876c0,0-0.176-0.356,0-5.237
	c0,0,0.085-4.257,3.574-6.351l0.224-4.504"/>
<path fill="#FFFFFF" stroke="#B5B5B5" stroke-linecap="round" stroke-linejoin="round" stroke-miterlimit="10" d="M69.096,91.384
	c1.881-1.646-4.302-3.183-4.302-3.183l-12.35-2.877c-0.037,0.57,0.189-2.418,0.189-2.418H34.582l0.617,2.769L34.9,121.065
	l0.019,89.433l33.292-0.254C68.212,210.244,64.142,95.722,69.096,91.384z"/>
<circle fill="#424242" cx="40.22" cy="105.936" r="2.291"/>
<circle fill="#424242" cx="52.469" cy="105.936" r="2.29"/>
<circle fill="#424242" cx="40.22" cy="133.953" r="2.291"/>
<circle fill="#424242" cx="52.469" cy="133.953" r="2.29"/>
<circle fill="#424242" cx="40.22" cy="161.055" r="2.291"/>
<circle fill="#424242" cx="52.469" cy="161.055" r="2.29"/>
<circle fill="#424242" cx="40.22" cy="186.276" r="2.291"/>
<circle fill="#424242" cx="52.469" cy="186.276" r="2.29"/>
<path fill="#FFFFFF" stroke="#A8A8A8" stroke-linecap="round" stroke-linejoin="round" stroke-miterlimit="10" d="M66.701,88.792
	c0,0,3.17,0.765,4.182,3.103c4.589,10.596,17.29,44.762,14.995,79.049H70.815c0,0,2.627-28.48-6.021-57.337"/>
<path fill="#EAC198" d="M4.151,172.22v4.272c0,0-2.05,1.537-1.14,13.289c0,0,1.119,2.271,2.864,0c0,0-0.278-3.649-0.51-6.812
	l0.823,11.176c0,0,0.959,2.27,2.354,0l-0.867-11.176l1.189,12.922c0,0,2.656,2.095,2.656-1.746l-0.699-11.176l0.838,10.932
	c0,0,1.573,1.918,2.794,0l-0.488-10.932l2.094,6.111c0,0,1.048,2.443,1.571-0.871c0,0,0.175-0.357,0-5.24
	c0,0-0.083-4.256-3.576-6.35l-0.221-4.504"/>
<path fill="#FFFFFF" stroke="#A8A8A8" stroke-linecap="round" stroke-linejoin="round" stroke-miterlimit="10" d="M18.59,91.053
	c0,0-20.124,39.061-17.322,80.912H16.33c0,0-2.627-28.482,6.02-57.336"/>
<line fill="none" stroke="#B5B5B5" stroke-width="4" stroke-linecap="round" stroke-linejoin="round" stroke-miterlimit="10" x1="24.485" y1="45.159" x2="61.875" y2="45.159"/>
<path opacity="0.1" enable-background="new    " d="M43.427,82.657c2.718-0.341,5.5-0.872,7.5-2.336v-0.472h-6.765h-8.235v0.617
	C38.927,81.63,40.739,82.292,43.427,82.657"/>
<path fill="#212121" d="M67.647,51.909c0,13.106-10.646,23.732-23.789,23.732c-13.139,0-23.79-10.625-23.79-23.732
	s10.651-23.731,23.79-23.731C56.998,28.177,67.647,38.802,67.647,51.909z"/>
<path id="Face_1_" fill="#F4D198" d="M44.032,82.022c12.685-1.229,18.845-15.252,20.6-23.966c0.559-1.722,0.858-3.603,0.858-5.486
	c0-0.06-0.004,0.659-0.004,0.599c0.004-0.018,0.004,0.68,0.004,0.68h-0.004c-0.123-12-9.684-19.842-21.458-19.842
	c-11.854,0-21.462,8.305-21.462,18.987c0,1.933,0.315,3.621,0.901,5.382C25.247,67.117,29.366,80.247,44.032,82.022"/>
<path id="Ear_1_4_" fill="#F4D198" d="M21.674,57.572c0,0-4.397,0.549,1.009,7.975c3.006,4.125,3.853-0.592,2.944-0.542
	c-0.906,0.049-0.214-4.044-1.319-6.03C23.29,57.147,21.674,57.572,21.674,57.572z"/>
<path id="Ear_1_1_" fill="#F4D198" d="M66.22,57.572c0,0,4.398,0.549-1.008,7.975c-3.006,4.125-3.854-0.592-2.945-0.542
	c0.908,0.049,0.216-4.044,1.321-6.03C64.606,57.147,66.22,57.572,66.22,57.572z"/>
<ellipse fill="#212121" cx="43.797" cy="24.564" rx="7.873" ry="5.875"/>
<path fill="#880E4F" d="M49.927,29.438c0,0.597-0.553,1.41-1.639,1.41h-9.631c-1.087,0-2.73-0.813-2.73-1.41v-0.02
	c0-0.598,1.644,0.43,2.73,0.43h9.631c1.086,0,1.639-1.028,1.639-0.43V29.438z"/>
<g>
	<path fill="#212121" d="M22.395,51.178c0,0,14.235-2.008,21.197-7.29c0,0,1.784,3.199,6.579,3.943c0,0-3.483-1.935-4.335-4.761
		c0,0,11.991,7.737,19.959,8.108c0,0,2.632-22.021-22.047-21.351C19.07,30.496,22.395,51.178,22.395,51.178z"/>
	<path fill="#263238" d="M60.559,48.216c0,0-7.749-1.184-12.162-6.673"/>
	<path fill="#263238" d="M47.477,46.705c0,0-3.656-2.041-5.11-6.375"/>
	<path fill="#263238" d="M30.629,47.562c0,0,6.982,0.516,9.232-5.539"/>
	<path fill="#263238" d="M49.047,38.057c0,0,10.406,8.403,15.23,6.656"/>
	<path fill="#263238" d="M23.947,47.575c0,0,11.434-5.865,14.666-12.727"/>
</g>
<path fill="#263238" d="M40.969,28.336c0,0-4.275-4.42-2.873-7.822"/>
<path fill="#263238" d="M43.798,28.336c0,0-2.133-6.129,0-9.648"/>
<path fill="#263238" d="M46.705,28.336c0,0,4.063-4.049,2.556-8.001"/>
<path fill="#F48FB1" d="M25.602,66.771c0,0.105-0.086,0.19-0.189,0.19h-0.693c-0.104,0-0.189-0.084-0.189-0.19v-0.693
	c0-0.105,0.085-0.19,0.189-0.19h0.693c0.104,0,0.189,0.085,0.189,0.19V66.771z"/>
<path fill="#F48FB1" d="M63.703,66.771c0,0.105-0.086,0.19-0.191,0.19h-0.69c-0.106,0-0.189-0.084-0.189-0.19v-0.693
	c0-0.105,0.083-0.19,0.189-0.19h0.69c0.105,0,0.191,0.085,0.191,0.19V66.771z"/>
<g>
	<g>
		<path fill="#AA8C75" d="M46.698,69.14c0.144-0.057,0.295-0.085,0.442-0.127c0.466-0.132,0.269-0.856-0.198-0.724
			c-0.148,0.042-0.301,0.07-0.443,0.127C46.052,68.593,46.247,69.317,46.698,69.14L46.698,69.14z"/>
	</g>
</g>
<g>
	<g>
		<path fill="#AA8C75" d="M41.231,68.417c-0.145-0.058-0.295-0.085-0.444-0.128c-0.466-0.131-0.664,0.592-0.199,0.724
			c0.149,0.042,0.3,0.069,0.444,0.128C41.481,69.322,41.674,68.597,41.231,68.417L41.231,68.417z"/>
	</g>
</g>
<path fill="#FFFFFF" stroke="#000000" stroke-linecap="round" stroke-linejoin="round" stroke-miterlimit="10" d="M36.278,85.452"/>
<ellipse fill="#FFFFFF" cx="34.927" cy="58.963" rx="3.289" ry="4.851"/>
<ellipse fill="#261D00" cx="34.926" cy="59.991" rx="2.766" ry="4.081"/>
<ellipse cx="34.926" cy="60.422" rx="2.069" ry="3.65"/>
<ellipse fill="#FFFFFF" cx="33.935" cy="59.005" rx="1.079" ry="1.209"/>
<path opacity="0.1" fill="#FFFFFF" enable-background="new    " d="M34.945,54.114l0.056,9.952c0.753-0.03,1.432-0.503,1.918-1.25
	c0.785-0.887,1.296-2.281,1.296-3.853C38.216,56.292,36.752,54.127,34.945,54.114z"/>
<ellipse fill="#FFFFFF" cx="53.046" cy="58.963" rx="3.288" ry="4.851"/>
<ellipse fill="#261D00" cx="53.045" cy="59.991" rx="2.766" ry="4.081"/>
<ellipse cx="53.045" cy="60.422" rx="2.068" ry="3.65"/>
<ellipse fill="#FFFFFF" cx="52.055" cy="59.005" rx="1.079" ry="1.209"/>
<path opacity="0.1" fill="#FFFFFF" enable-background="new    " d="M53.062,54.114l0.058,9.952c0.754-0.03,1.434-0.503,1.918-1.25
	c0.787-0.887,1.298-2.281,1.298-3.853C56.334,56.292,54.871,54.127,53.062,54.114z"/>
<path fill="#FFFFFF" stroke="#F9C2F5" stroke-width="0.75" stroke-linecap="round" stroke-linejoin="round" stroke-miterlimit="10" d="
	M38.928,72.883l11.115,1.136c0,0-0.286,4.046-5.146,4.024C41.007,78.024,38.377,75.979,38.928,72.883z"/>
<g>
	<g>
		<path fill="#212121" d="M31.333,53.267c1.376-1.572,3.655-1.669,5.589-1.356c0.946,0.153,1.353-1.292,0.398-1.446
			c-2.447-0.396-5.303-0.252-7.048,1.742C29.637,52.931,30.695,53.996,31.333,53.267L31.333,53.267z"/>
	</g>
</g>
<g>
	<g>
		<path fill="#212121" d="M50.969,52.191c1.223-0.711,3.551-1.012,4.694,0.002c0.721,0.639,1.785-0.417,1.061-1.061
			c-1.673-1.484-4.665-1.312-6.513-0.236C49.377,51.383,50.132,52.68,50.969,52.191L50.969,52.191z"/>
	</g>
</g>
<path fill="#FFFFFF" stroke="#B5B5B5" stroke-linecap="round" stroke-linejoin="round" stroke-miterlimit="10" d="M68.974,15.01
	c-1.792-4.46-5.032-7.647-10.082-7.647c-1.112,0-2.114,0.191-3.104,0.54C54.256,3.042,49.564-0.5,43.969-0.5
	c-5.644,0-10.385,3.604-11.875,8.53c-1.08-0.43-2.256-0.667-3.5-0.667c-5.048,0-8.524,3.222-10.424,7.647
	c-2.228,5.192,0.723,11.313,5.554,11.399l-0.238,14.069c0,0.377,1.182,0.871,1.608,0.871H63.08c0.429,0,0.771-0.462,1.305-0.871
	l-0.413-13.915C68.8,25.29,70.701,19.316,68.974,15.01z"/>
<line fill="none" stroke="#B5B5B5" stroke-width="4" stroke-linecap="round" stroke-linejoin="round" stroke-miterlimit="10" x1="23.751" y1="34.475" x2="64.094" y2="34.475"/>
<path opacity="0.05" enable-background="new    " d="M45.53,206.937c0.071-8.334-1.021-131.166-2.032-136.127
	c-1.226-5.999,0.334-36.457,0.334-36.457c-2.601-13.005,2.33-34.925,0.82-35.051C34.725-1.521,31.953,7.62,31.953,7.62
	c-10.375-2.772-14.086,7.29-14.086,7.29c-2.862,10.419,5.589,11.85,5.589,11.85l-0.045,6.753c0,0-0.772-0.015-0.845,0.963
	c-0.044,0.602,0.755,1.005,0.755,1.005L23.1,40.308c-1.657,2.507-2.695,7.603-2.695,7.603c-0.931,3.58,0.412,10.063,0.412,10.063
	c-2.459,1.341,1.068,6.423,1.068,6.423c2.644,3.951,3.526,2.564,3.526,2.564s0.785,0.842,0.986,1.066
	c2.69,5.999,4.797,7.613,4.797,7.613c1.496,2.012,5.273,4.065,5.273,4.065c-0.001,0-0.134,2.952-0.134,2.952l-2.012-0.045
	c0,0.682,0.872,2.806,0.491,2.979c-1.235,0.565-5.772,1.488-10.712,2.674c-2.476,0.593-3.533,1.176-5.514,2.787
	c-0.693,0.565-21.697,46.475-17.322,80.912h15.062c0,0-0.655-29.34,1.181-34.397l2.189-12.114l0.492,23.568v11.224l-0.136,7.828
	l-1.342,40.385h6.121l3.3,73.642c0,0-5.721,0.747-8.484,3.294c-1.434,1.319-3.446,4.419-2.955,7.273h18.128l0.706-2.103v2.103h5.103
	v-10.207l4.25-75.252L45.53,206.937"/>
</svg>
