<?xml version="1.0" encoding="utf-8"?>
<!-- Generator: Adobe Illustrator 16.0.0, SVG Export Plug-In . SVG Version: 6.00 Build 0)  -->
<!DOCTYPE svg PUBLIC "-//W3C//DTD SVG 1.1//EN" "http://www.w3.org/Graphics/SVG/1.1/DTD/svg11.dtd">
<svg version="1.1" id="Layer_1" xmlns="http://www.w3.org/2000/svg" xmlns:xlink="http://www.w3.org/1999/xlink" x="0px" y="0px"
	 width="83.883px" height="292.213px" viewBox="102.237 3.915 83.883 292.213"
	 enable-background="new 102.237 3.915 83.883 292.213" xml:space="preserve">
<polygon fill="#F9E97A" points="124.95,26.946 125.105,18.01 125.261,9.073 131.266,13.647 137.272,18.222 131.111,22.584 "/>
<polygon fill="#F9E97A" points="119.839,31.551 119.989,22.942 120.137,14.333 126.14,18.743 132.142,23.153 125.991,27.352 "/>
<polygon fill="#F9E97A" points="134.797,24.913 137.276,14.689 139.758,3.915 144.724,11.083 149.691,17.701 142.244,21.308 "/>
<polygon fill="#F9E97A" points="110.035,48.284 115.7,44.532 121.365,40.779 122.515,48.668 123.665,56.557 116.85,52.419 "/>
<polygon fill="#F9E97A" points="113.652,55.343 119.317,51.59 124.981,47.837 126.133,55.727 127.282,63.617 120.466,59.478 "/>
<polygon fill="#F9E97A" points="128.887,22.994 130.983,14.864 133.081,6.734 138.041,12.349 143,17.964 135.943,20.479 "/>
<polygon fill="#F9E97A" points="121.872,38.382 117.609,30.83 113.35,23.276 120.467,24.24 127.585,25.203 124.728,31.793 "/>
<polygon fill="#F9E97A" points="123.547,44.633 117.237,38.629 110.926,32.625 117.938,31.573 124.95,30.521 124.249,37.577 "/>
<polygon fill="#F9E97A" points="109.669,40.242 115.801,37.482 121.933,34.723 121.896,42.833 121.859,50.944 115.764,45.592 "/>
<path fill="#FFFFFF" stroke="#B5B5B5" stroke-linecap="round" stroke-linejoin="round" stroke-miterlimit="10" d="M140.771,285.289"
	/>
<path fill="#FFFFFF" stroke="#B5B5B5" stroke-linecap="round" stroke-linejoin="round" stroke-miterlimit="10" d="M142.921,188.273"
	/>
<path id="Neck_2_" fill="#EAC198" d="M152.395,83.326c-2.315-1.225-2.178-2.45-2.178-2.45V75.02h-7.646h-8.674v5.857
	c0,0,0.632,1.225-1.684,2.45c-2.316,1.224-4.603,1.588-4.603,1.588l-0.028,10.637h14.775h14.732l0.153-10.637
	C157.243,84.915,154.71,84.55,152.395,83.326z"/>
<polyline id="Neck_1_" fill="#EAC198" points="150.217,79.758 150.217,73.968 142.108,73.968 133.897,73.968 133.897,79.758 "/>
<polygon fill="#FFFFFF" stroke="#B2B2B2" stroke-width="0.5" stroke-linecap="round" stroke-linejoin="round" stroke-miterlimit="10" points="
	133.39,82.546 127.746,92.343 132.168,95.256 128.713,98.44 143.001,118.528 "/>
<polygon fill="#FFFFFF" stroke="#B2B2B2" stroke-width="0.5" stroke-linecap="round" stroke-linejoin="round" stroke-miterlimit="10" points="
	150.684,81.973 158.176,92.343 153.754,95.256 157.209,98.44 142.921,118.528 "/>
<path fill="#FFFFFF" stroke="#000000" stroke-linecap="round" stroke-linejoin="round" stroke-miterlimit="10" d="M133.39,82.546"/>
<path fill="#9CE2FF" d="M134.093,85.176c0,0,6.925,3.029,15.902,0.039l-7.074,33.018L134.093,85.176z"/>
<path fill="#FFFFFF" stroke="#B5B5B5" stroke-linecap="round" stroke-linejoin="round" stroke-miterlimit="10" d="M170.475,89.955
	c-0.115-2.574-4.012-4.057-4.012-4.057l-15.779-3.943c-0.039,0.589,7.492,10.379,7.492,10.379l-4.422,2.917l3.455,3.186
	c0,0-13.32,18.657-14.208,20.019l-0.242,90.545h29.062C171.818,209.002,170.59,92.531,170.475,89.955z"/>
<path fill="#FFFFFF" stroke="#B5B5B5" stroke-linecap="round" stroke-linejoin="round" stroke-miterlimit="10" d="M115.02,89.955
	c0.559-2.516,4.011-4.057,4.011-4.057l14.36-3.369c0.039,0.589-6.072,9.805-6.072,9.805l4.421,2.917l-3.455,3.186
	c13.765,18.75,13.699,18.589,14.717,20.019l0.21,90.545h-29.539C113.672,209.002,114.305,93.177,115.02,89.955z"/>
<path fill="#262626" d="M138.635,285.6v10.528h-5.265v-2.168l-0.729,2.168h-18.698c0,0-1.262-9.619,12.289-10.976l12.48,0.238"/>
<path fill="#262626" d="M147.219,285.393l13.287-0.188c13.549,1.354,12.764,10.924,12.764,10.924h-19.24l-1.182-2.168v2.168h-5.791
	V285.6"/>
<rect x="116.112" y="132.444" transform="matrix(-0.8903 -0.4553 0.4553 -0.8903 179.4148 352.0012)" fill="#8E7751" width="31.976" height="43.898"/>
<path fill="#EAC198" d="M126.053,158.136l5.123,3.55c0,0,0.447,6.76,8.414,11.351c0,0,1.367,2.348,3.133-1.726
	c0,0,4.522,3.144,5.044-1.928c0,0,3.881,0.829,2.179-3.851c0,0,4.082-0.718,0-5.779l-3.973-1.565c0,0,6.261,1.386,7.707,0
	c0,0-3.733-3.608-12.521-4.273l-8.302-5.696L126.053,158.136z"/>
<path fill="#FFFFFF" stroke="#B5B5B5" stroke-linecap="round" stroke-linejoin="round" stroke-miterlimit="10" d="M115.02,90.025
	c0,0-14.051,31.57-12.096,42.424c1.646,9.141,17.342,23.58,24.569,27.869l8.335-12.151c0,0-18.33-9.643-18.24-17.592l7.585-26.31"/>
<polygon fill="#4BFF5A" points="144.107,209.266 147.84,285.6 161.029,285.6 164.266,209.266 "/>
<polygon fill="#4BFF5A" points="142.673,209.266 138.908,285.6 125.603,285.6 122.339,209.266 "/>
<path fill="#FFFFFF" stroke="#B5B5B5" stroke-linecap="round" stroke-linejoin="round" stroke-miterlimit="10" d="M114.209,179.529
	c0,0,5.737,1.865,11.001,0.07v14.133h-11.267L114.209,179.529z"/>
<path fill="#FFFFFF" stroke="#B5B5B5" stroke-linecap="round" stroke-linejoin="round" stroke-miterlimit="10" d="M160.68,179.529
	c0,0,6.119,1.865,10.858,0.07v14.133h-10.983L160.68,179.529z"/>
<path fill="#FFFFFF" stroke="#A8A8A8" stroke-linecap="round" stroke-linejoin="round" stroke-miterlimit="10" d="M170.275,89.087
	c0,0,17.918,38.315,15.029,81.483h-15.537c0,0,2.709-29.38-6.209-59.145"/>
<path fill="#EAC198" d="M182.331,170.833v4.408c0,0,2.112,1.587,1.174,13.708c0,0-1.153,2.342-2.954,0c0,0,0.287-3.764,0.527-7.026
	l-0.852,11.528c0,0-0.988,2.341-2.43,0l0.895-11.528l-1.228,13.328c0,0-2.737,2.163-2.737-1.8l0.719-11.528l-0.862,11.276
	c0,0-1.623,1.978-2.883,0l0.504-11.276l-2.161,6.308c0,0-1.081,2.521-1.62-0.9c0,0-0.182-0.369,0-5.406c0,0,0.086-4.389,3.688-6.549
	l0.229-4.645"/>
<path id="Chin_1_" opacity="0.1" enable-background="new    " d="M150.217,78.155v-2.082h-8.124h-8.196v1.84
	c1.58,0.843,5.111,2.396,8.166,2.308C145.682,80.226,147.584,79.268,150.217,78.155z"/>
<path id="Face_3_" fill="#EAC198" d="M163.628,45.772c0.002-0.021,0.002-0.233,0.002-0.233h-0.002
	c-0.123-12.108-9.635-21.236-21.353-21.236c-11.794,0-21.356,9.8-21.356,21.768c0,2.166,0.314,4.307,0.897,6.281
	c1.771,9.791,6.838,27.232,20.464,26.734c13.697,0.501,18.751-17.086,20.5-26.847c0.556-1.929,0.852-4.062,0.852-6.173
	C163.63,45.998,163.629,45.838,163.628,45.772z"/>
<path id="Ear_1_6_" fill="#EAC198" d="M119.741,51.033c0,0-2.849,0.727,2.237,6.731c2.824,3.336,2.431-0.718,1.753-0.603
	c-0.679,0.116-0.71-3.49-1.813-5.123C120.904,50.535,119.741,51.033,119.741,51.033z"/>
<path id="Ear_1_5_" fill="#EAC198" d="M164.727,51.033c0,0,2.851,0.727-2.236,6.731c-2.825,3.336-2.432-0.718-1.754-0.603
	c0.68,0.116,0.711-3.49,1.813-5.123C163.562,50.535,164.727,51.033,164.727,51.033z"/>
<path id="Eyebrow_1_6_" fill="#F9E97A" d="M137.345,42.985c-0.921-0.555-5.799,0.574-6.972,0.83
	c-0.482,0.104-2.191,0.869-2.191,0.869s-1.998,1.102-2.176,2.499c-0.179,1.398,1.247,0.192,1.868-0.131
	c0.621-0.323,2.797-1.497,3.458-1.439c1.005,0.087,5.046-0.359,5.803-0.447C138.663,44.988,137.629,43.156,137.345,42.985z"/>
<path id="Eyebrow_1_5_" fill="#F9E97A" d="M146.041,42.985c0.92-0.555,5.798,0.574,6.973,0.83c0.48,0.104,2.188,0.869,2.188,0.869
	s1.998,1.102,2.177,2.499c0.18,1.398-1.247,0.192-1.867-0.131c-0.621-0.323-2.797-1.497-3.459-1.439
	c-1.005,0.087-5.046-0.359-5.802-0.447C144.723,44.988,145.756,43.156,146.041,42.985z"/>
<path fill="#F9E97A" d="M121.107,39.839c0,0,9.4-1.437,15.074-8.245c0,0,0.727,2.042-2.284,4.841c0,0,12.269-0.983,16.783-9.606
	c0,0,0.822-7.718-0.989-9.128c-1.364-1.063-6.849,0.959-6.849,0.959S119.573,19.416,121.107,39.839z"/>
<g>
	<g>
		<path fill="#AA8C75" d="M138.92,61.236c-0.502,1.074-0.517,2.232,0.526,2.979c1.038,0.742,2.381,0.943,3.61,1.148
			c0.473,0.079,0.675-0.644,0.199-0.724c-1.6-0.268-4.779-0.691-3.688-3.024C139.771,61.18,139.125,60.799,138.92,61.236
			L138.92,61.236z"/>
	</g>
</g>
<path opacity="0.1" enable-background="new    " d="M122.402,38.191c0,0,3.877-0.019,12.482-7.361"/>
<path opacity="0.1" enable-background="new    " d="M137.242,34.51c0,0,8.214-2.062,11.65-8.564"/>
<path opacity="0.1" enable-background="new    " d="M136.771,45.207c0,0-0.134-0.879-0.829-1.383"/>
<path opacity="0.1" enable-background="new    " d="M134.885,45.338c0,0-0.085-0.892-0.82-1.514"/>
<path opacity="0.1" enable-background="new    " d="M133.102,45.338c0,0-0.409-0.64-1.132-1.177"/>
<path opacity="0.1" enable-background="new    " d="M146.423,44.75c0,0,0.308-0.841,0.979-0.925"/>
<path opacity="0.1" enable-background="new    " d="M148.155,45.207c0,0,0.707-1.299,1.401-1.383"/>
<path opacity="0.1" enable-background="new    " d="M149.581,45.207c0,0,0.438-1.046,1.267-1.046"/>
<path fill="#424242" d="M123.16,57.432c0,0-0.29-0.011-0.231,0.075c0.409,0.586,0.137,2.122-0.698,1.487
	c-0.439-0.333,0.038-0.827-0.096-1.044c-0.197-0.318-0.197-0.207-0.197-0.207s-0.574,1.651,0.523,1.655
	C123.82,59.403,123.351,57.852,123.16,57.432z"/>
<ellipse fill="#FFFFFF" cx="132.722" cy="50.729" rx="3.738" ry="4.654"/>
<ellipse fill="#007115" cx="132.721" cy="51.716" rx="3.143" ry="3.915"/>
<ellipse cx="132.721" cy="52.129" rx="2.351" ry="3.501"/>
<ellipse fill="#FFFFFF" cx="131.596" cy="50.771" rx="1.226" ry="1.16"/>
<path opacity="0.1" fill="#FFFFFF" enable-background="new    " d="M132.742,46.077l0.065,9.548
	c0.856-0.029,1.626-0.482,2.179-1.199c0.894-0.851,1.474-2.187,1.474-3.696C136.46,48.168,134.797,46.091,132.742,46.077z"/>
<ellipse fill="#FFFFFF" cx="150.064" cy="50.729" rx="3.737" ry="4.654"/>
<ellipse fill="#007115" cx="150.065" cy="51.716" rx="3.143" ry="3.915"/>
<ellipse cx="150.065" cy="52.129" rx="2.351" ry="3.501"/>
<ellipse fill="#FFFFFF" cx="148.939" cy="50.771" rx="1.226" ry="1.16"/>
<path opacity="0.1" fill="#FFFFFF" enable-background="new    " d="M150.086,46.077l0.064,9.548c0.856-0.029,1.627-0.482,2.18-1.199
	c0.893-0.851,1.472-2.187,1.472-3.696C153.803,48.168,152.141,46.091,150.086,46.077z"/>
<path fill="#F9E97A" d="M150.68,26.829c0,0,14.354,4.27,12.204,24.323l1.843-0.12c0,0,2.904-26.17-14.178-31.596"/>
<path fill="#FFFFFF" stroke="#CCB27A" stroke-width="0.75" stroke-linecap="round" stroke-linejoin="round" stroke-miterlimit="10" d="
	M136.46,71.477l12.396-2.981c0,0-1.944,4.967-5.284,6.053C139.367,75.914,137.43,73.826,136.46,71.477z"/>
<path opacity="0.05" enable-background="new    " d="M143.209,209.141c0.072-8.436-1.033-132.765-2.058-137.785
	c-1.241-6.073,0.337-36.902,0.337-36.902c-1.385-13.433-2.409-24.465-1.731-30.539l-1.876,8.261l-4.801-5.441l-1.814,6.913
	l-6.005-4.574l-0.156,8.937l-4.968-3.677l-0.164,9.833l-6.624-0.89l4.74,8.274l-7.164,1.075l5.027,4.797l-6.284,2.819l5.404,4.768
	c0,0-3.956,2.447-5.038,3.274l7.499,4.54c0,0-3.393,2.195-3.881,2.519c0,0,10.013,5.836,10.499,6.378
	c2.236,5.442,2.351,7.029,6.548,12.195c0.972,1.197,3.321,2.867,3.321,2.867s-0.023,3.094-0.023,4.863
	c0,0.69-0.764,0.961-1.148,1.138c-1.743,0.796-11.065,1.321-16.105,4.229c-0.784,0.452-7.942,17.104-11.834,30.614
	c-0.915,3.177-2.187,10.438-1.822,15.571c0.243,3.406,10.856,16.413,10.856,16.413l-0.09,5.241l-6.119,11.811l6.073,3.02
	l-0.187,39.582h8.718l3.264,75.951c0,0-5.79,0.756-8.588,3.333c-1.45,1.337-3.568,4.688-3.071,7.579h18.698l0.729-2.168v2.168h5.265
	v-10.839l3.918-75.878L143.209,209.141"/>
<path fill="#FFFFFF" stroke="#B5B5B5" stroke-linecap="round" stroke-linejoin="round" stroke-miterlimit="10" d="M149.954,115.648
	v11.753h10.003v-11.753C159.957,115.648,155.219,118.754,149.954,115.648z"/>
</svg>
