<?xml version="1.0" encoding="utf-8"?>
<!-- Generator: Adobe Illustrator 16.0.0, SVG Export Plug-In . SVG Version: 6.00 Build 0)  -->
<!DOCTYPE svg PUBLIC "-//W3C//DTD SVG 1.1//EN" "http://www.w3.org/Graphics/SVG/1.1/DTD/svg11.dtd">
<svg version="1.1" id="Layer_1" xmlns="http://www.w3.org/2000/svg" xmlns:xlink="http://www.w3.org/1999/xlink" x="0px" y="0px"
	 width="84.639px" height="290.341px" viewBox="104.109 4.659 84.639 290.341"
	 enable-background="new 104.109 4.659 84.639 290.341" xml:space="preserve">
<path fill="#FFFFFF" stroke="#B5B5B5" stroke-linecap="round" stroke-linejoin="round" stroke-miterlimit="10" d="M142.991,283.922"
	/>
<path fill="#FFFFFF" stroke="#B5B5B5" stroke-linecap="round" stroke-linejoin="round" stroke-miterlimit="10" d="M145.16,186.021"
	/>
<path id="Neck_4_" fill="#F4D198" d="M154.02,79.375c-2.178-1.151-2.02-2.301-2.02-2.301V72h-7.24H137v5.073
	c0,0,0.397,1.15-1.778,2.301c-2.177,1.15-4.422,1.562-4.422,1.562L130.676,91h13.883h13.843l0.158-10.064
	C158.561,80.936,156.193,80.525,154.02,79.375z"/>
<ellipse fill="#212121" cx="144.026" cy="42.02" rx="25.408" ry="25.348"/>
<polyline id="Neck_3_" fill="#F4D198" points="152,76 152,71 144.325,71 137,71 137,76 "/>
<path opacity="0.1" enable-background="new    " d="M144.387,75.375c2.901-0.364,5.613-1.445,7.613-3.009V72h-7.648H137v0.858
	C139,74.101,141.513,74.986,144.387,75.375"/>
<path id="Face_1_" fill="#F4D198" d="M144.213,74.183c13.549-1.312,20.127-16.291,22.002-25.598
	c0.596-1.838,0.916-3.847,0.916-5.858c0-0.064-0.002,0.157-0.002,0.094c0.001-0.02,0.002,0.179,0.002,0.179h-0.003
	c-0.132-12-10.342-20.646-22.92-20.646c-12.66,0-22.923,9.143-22.923,20.551c0,2.064,0.337,4.005,0.963,5.885
	C124.147,58.126,128.546,72.287,144.213,74.183"/>
<path id="Ear_1_4_" fill="#F4D198" d="M120.333,48.068c0,0-4.698,0.586,1.077,8.518c3.208,4.407,4.114-0.631,3.145-0.579
	c-0.969,0.052-0.23-4.32-1.41-6.44C122.059,47.615,120.333,48.068,120.333,48.068z"/>
<path id="Ear_1_1_" fill="#F4D198" d="M167.912,48.068c0,0,4.695,0.586-1.078,8.518c-3.208,4.407-4.113-0.631-3.145-0.579
	c0.968,0.052,0.229-4.32,1.41-6.44C166.186,47.615,167.912,48.068,167.912,48.068z"/>
<ellipse fill="#212121" cx="143.954" cy="11.232" rx="8.806" ry="6.572"/>
<path fill="#880E4F" d="M151,16.684c0,0.668-0.806,1.316-2.021,1.316h-10.773C136.99,18,135,17.352,135,16.684v-0.023
	c0-0.669,1.99-1.661,3.205-1.661h10.773c1.216,0,2.021,0.992,2.021,1.661L151,16.684L151,16.684z"/>
<g>
	<path fill="#212121" d="M121.103,41.24c0,0,15.204-2.146,22.641-7.787c0,0,1.905,3.417,7.025,4.211c0,0-3.721-2.066-4.629-5.085
		c0,0,12.81,8.264,21.318,8.661c0,0,2.81-23.521-23.55-22.805C117.549,19.151,121.103,41.24,121.103,41.24z"/>
	<path fill="#263238" d="M161.866,38.076c0,0-8.277-1.265-12.991-7.127"/>
	<path fill="#263238" d="M147.894,36.461c0,0-3.907-2.18-5.46-6.809"/>
	<path fill="#263238" d="M129.897,37.378c0,0,7.458,0.551,9.86-5.916"/>
	<path fill="#263238" d="M149.568,27.226c0,0,11.116,8.976,16.267,7.109"/>
	<path fill="#263238" d="M122.759,37.39c0,0,12.213-6.263,15.665-13.592"/>
</g>
<path fill="#263238" d="M140.792,15.451c0,0-4.783-4.943-3.213-8.749"/>
<path fill="#263238" d="M143.954,15.451c0,0-2.386-6.854,0-10.791"/>
<path fill="#263238" d="M147.207,15.451c0,0,4.545-4.528,2.857-8.949"/>
<path fill="#F48FB1" d="M124.974,58.158c0,0.112-0.091,0.203-0.204,0.203h-0.965c-0.112,0-0.204-0.091-0.204-0.203v-0.965
	c0-0.112,0.091-0.203,0.204-0.203h0.965c0.112,0,0.204,0.091,0.204,0.203V58.158z"/>
<path fill="#F48FB1" d="M164.757,58.158c0,0.112-0.091,0.203-0.202,0.203h-0.966c-0.112,0-0.204-0.091-0.204-0.203v-0.965
	c0-0.112,0.092-0.203,0.204-0.203h0.966c0.111,0,0.202,0.091,0.202,0.203V58.158z"/>
<g>
	<g>
		<path fill="#AA8C75" d="M147.052,60.399c0.154-0.061,0.315-0.09,0.475-0.136c0.464-0.133,0.267-0.857-0.199-0.724
			c-0.159,0.046-0.321,0.075-0.475,0.136C146.408,59.851,146.601,60.576,147.052,60.399L147.052,60.399z"/>
	</g>
</g>
<g>
	<g>
		<path fill="#AA8C75" d="M141.215,59.676c-0.154-0.061-0.316-0.091-0.476-0.137c-0.466-0.133-0.664,0.591-0.199,0.724
			c0.16,0.045,0.321,0.075,0.476,0.137C141.465,60.579,141.659,59.853,141.215,59.676L141.215,59.676z"/>
	</g>
</g>
<polygon fill="#FFFFFF" stroke="#B2B2B2" stroke-width="0.5" stroke-linecap="round" stroke-linejoin="round" stroke-miterlimit="10" points="
	135.542,79.332 129.847,89.217 134.31,92.157 130.822,95.37 145.24,115.64 "/>
<polygon fill="#FFFFFF" stroke="#B2B2B2" stroke-width="0.5" stroke-linecap="round" stroke-linejoin="round" stroke-miterlimit="10" points="
	152.994,78.752 160.555,89.217 156.092,92.157 159.579,95.37 145.16,115.64 "/>
<path fill="#FFFFFF" stroke="#000000" stroke-linecap="round" stroke-linejoin="round" stroke-miterlimit="10" d="M135.542,79.332"
	/>
<path fill="#FFCB32" d="M136.252,81.984c0,0,6.988,3.057,16.047,0.04l-7.139,33.318L136.252,81.984z"/>
<path fill="#FFFFFF" stroke="#B5B5B5" stroke-linecap="round" stroke-linejoin="round" stroke-miterlimit="10" d="M172.965,86.589
	c-0.117-2.599-4.048-3.985-4.048-3.985l-15.923-3.924c-0.039,0.595,7.561,10.501,7.561,10.501l-4.463,2.958l3.487,3.222
	c0,0-13.441,18.611-14.339,19.985l-0.244,91.154h29.326C174.322,206.5,173.082,89.188,172.965,86.589z"/>
<path fill="#FFFFFF" stroke="#B5B5B5" stroke-linecap="round" stroke-linejoin="round" stroke-miterlimit="10" d="M117.004,86.589
	c0.564-2.54,4.048-3.985,4.048-3.985l14.49-3.344c0.04,0.595-6.127,9.922-6.127,9.922l4.461,2.958l-3.486,3.222
	c13.891,18.92,13.824,18.542,14.851,19.985l0.212,91.154h-29.807C115.645,206.5,116.283,89.84,117.004,86.589z"/>
<path fill="#262626" d="M141,284v11h-6v-2.328L134.787,295h-18.869c0,0-1.271-9.777,12.402-11.146l12.678,0.086"/>
<path fill="#262626" d="M149.83,283.905l13.24-0.061C176.743,285.213,175.786,295,175.786,295H156.37l-1.37-2.328V295h-5v-11"/>
<rect x="118.108" y="129.683" transform="matrix(-0.8903 -0.4553 0.4553 -0.8903 184.6271 348.1359)" fill="#8E7751" width="32.267" height="44.299"/>
<path fill="#F4D198" d="M128.139,155.609l5.17,3.58c0,0,0.449,6.821,8.489,11.455c0,0,1.38,2.369,3.163-1.742
	c0,0,4.563,3.174,5.09-1.942c0,0,3.916,0.835,2.198-3.89c0,0,4.117-0.721,0-5.828l-4.008-1.581c0,0,6.315,1.397,7.774,0
	c0,0-3.768-3.642-12.636-4.313l-8.376-5.749L128.139,155.609z"/>
<path fill="#FFFFFF" stroke="#B5B5B5" stroke-linecap="round" stroke-linejoin="round" stroke-miterlimit="10" d="M117.004,86.878
	c0,0-14.179,31.858-12.206,42.811c1.661,9.224,17.5,23.793,24.793,28.124l8.412-12.263c0,0-18.499-9.73-18.407-17.751l7.654-26.549"
	/>
<polygon fill="#9CE2FF" points="146.357,207 150.124,284 163.434,284 166.697,207 "/>
<polygon fill="#9CE2FF" points="144.91,207 141.11,284 127.685,284 124.391,207 "/>
<path fill="#FFFFFF" stroke="#B5B5B5" stroke-linecap="round" stroke-linejoin="round" stroke-miterlimit="10" d="M116.293,177.182
	c0,0,6.207,1.899,11.207,0.088v14.23h-11.582L116.293,177.182z"/>
<path fill="#FFFFFF" stroke="#B5B5B5" stroke-linecap="round" stroke-linejoin="round" stroke-miterlimit="10" d="M163.311,177.182
	c0,0,6.189,1.899,11.189,0.088v14.23h-11.546L163.311,177.182z"/>
<path fill="#FFFFFF" stroke="#A8A8A8" stroke-linecap="round" stroke-linejoin="round" stroke-miterlimit="10" d="M172.766,86.103
	c0,0,18.082,38.397,15.164,82.397h-15.678c0,0,2.734-29.733-6.268-59.769"/>
<path fill="#F4D198" d="M185,168v4.723c0,0,1.939,1.547,1.025,13.358c0,0-1.185,2.28-2.938,0c0.29-3.655,0.226-3.339,0.483-6.849
	l-0.846,11.233c0,0-0.971,2.28-2.373,0l0.869-11.233l-1.199,12.987c0,0-2.67,2.105-2.67-1.754l0.7-11.233l-0.841,10.987
	c0,0-1.581,1.929-2.811,0l0.492-10.987l-2.105,6.146c0,0-1.053,2.456-1.579-0.876c0,0-0.177-0.359,0-5.27
	c0,0,0.085-4.275,3.593-6.381l0.342-4.738"/>
<ellipse fill="#FFFFFF" cx="134.486" cy="49.553" rx="3.512" ry="5.182"/>
<ellipse fill="#261D00" cx="134.486" cy="50.652" rx="2.954" ry="4.357"/>
<ellipse cx="134.486" cy="51.112" rx="2.209" ry="3.897"/>
<ellipse fill="#FFFFFF" cx="133.429" cy="49.6" rx="1.152" ry="1.291"/>
<path opacity="0.1" fill="#FFFFFF" enable-background="new    " d="M134.506,44.374l0.061,10.63
	c0.804-0.032,1.528-0.537,2.049-1.336c0.839-0.947,1.383-2.435,1.383-4.115C137.998,46.702,136.437,44.39,134.506,44.374z"/>
<ellipse fill="#FFFFFF" cx="153.839" cy="49.553" rx="3.513" ry="5.182"/>
<ellipse fill="#261D00" cx="153.839" cy="50.652" rx="2.954" ry="4.357"/>
<ellipse cx="153.839" cy="51.112" rx="2.209" ry="3.897"/>
<ellipse fill="#FFFFFF" cx="152.781" cy="49.6" rx="1.15" ry="1.291"/>
<path opacity="0.1" fill="#FFFFFF" enable-background="new    " d="M153.857,44.374l0.062,10.63
	c0.804-0.032,1.528-0.537,2.048-1.336c0.84-0.947,1.385-2.435,1.385-4.115C157.352,46.702,155.789,44.39,153.857,44.374z"/>
<path fill="#FFFFFF" stroke="#F9C2F5" stroke-linecap="round" stroke-linejoin="round" stroke-miterlimit="10" d="M138.762,64.421
	l11.872,1.214c0,0-0.308,4.321-5.499,4.297C140.981,69.914,138.172,67.729,138.762,64.421z"/>
<g>
	<g>
		<path fill="#212121" d="M130.613,43.435c1.483-1.693,3.935-1.799,6.018-1.462c0.946,0.153,1.352-1.292,0.398-1.446
			c-2.596-0.42-5.625-0.267-7.477,1.848C128.918,43.098,129.974,44.164,130.613,43.435L130.613,43.435z"/>
	</g>
</g>
<g>
	<g>
		<path fill="#212121" d="M151.598,42.279c1.325-0.772,3.834-1.09,5.073,0.01c0.722,0.64,1.785-0.417,1.062-1.061
			c-1.769-1.57-4.941-1.381-6.893-0.245C150.004,41.47,150.759,42.767,151.598,42.279L151.598,42.279z"/>
	</g>
</g>
<path opacity="0.05" enable-background="new    " d="M145.451,207.079c0.072-8.513-1.042-133.975-2.077-139.042
	c-1.251-6.127,0.342-37.237,0.342-37.237c-1.399-13.557-0.444-20.011,0.238-26.141c-5.134,0.077-8.807,2.722-8.807,6.572
	c0,1.776,0.591,2.967,2.043,4.208c-0.852,0.2-1.668,0.93-1.668,0.93s0.513,1.253,0.98,1.434
	c-10.343,3.679-17.117,11.117-17.885,23.437c-0.148,2.375,0.227,5.004,0.802,7.204c-2.324,2.209,0.863,6.375,0.863,6.375
	c0.66,1.826,3.006,3.666,3.021,3.652c0,0,1.594-0.203,1.872,0.545c2.743,5.598,4.37,8.162,9.948,12.205l1.461,0.531l0.11,6.375
	c0,0-0.288,0.798-1.699,1.443c-1.759,0.804-11.166,1.334-16.252,4.269c-0.792,0.456-8.015,17.26-11.941,30.893
	c-0.924,3.207-2.208,10.534-1.839,15.713c0.245,3.437,10.955,16.563,10.955,16.563l-0.09,5.287l-6.174,11.919l6.128,2.945
	L115.594,207h8.797l3.294,76.746c0,0-5.843,0.884-8.668,3.484c-1.462,1.348-3.6,5.024-3.099,7.77h18.869l0.213-2.328V295h6v-11.078
	l3.872-76.568L145.451,207.079"/>
<path fill="#FFFFFF" stroke="#B5B5B5" stroke-linecap="round" stroke-linejoin="round" stroke-miterlimit="10" d="M152.5,113.282
	V125.5h11v-12.218C163.5,113.282,158.5,116.416,152.5,113.282z"/>
</svg>
