<?xml version="1.0" encoding="utf-8"?>
<!-- Generator: Adobe Illustrator 16.0.0, SVG Export Plug-In . SVG Version: 6.00 Build 0)  -->
<!DOCTYPE svg PUBLIC "-//W3C//DTD SVG 1.1//EN" "http://www.w3.org/Graphics/SVG/1.1/DTD/svg11.dtd">
<svg version="1.1" id="Layer_1" xmlns="http://www.w3.org/2000/svg" xmlns:xlink="http://www.w3.org/1999/xlink" x="0px" y="0px"
	 width="89.236px" height="288.514px" viewBox="102.149 5.487 89.236 288.514"
	 enable-background="new 102.149 5.487 89.236 288.514" xml:space="preserve">
<path fill="#F4D198" d="M107,173v3.95c0,0-2.049,1.493-1.166,12.911c0,0,1.058,2.205,2.753,0c-0.28-3.532-0.261-3.228-0.509-6.617
	l0.792,10.857c0,0,0.928,2.203,2.284,0l-0.844-10.857l1.155,12.554c0,0,2.58,2.035,2.58-1.696l-0.679-10.856l0.814,10.619
	c0,0,1.528,1.864,2.714,0l-0.474-10.619l2.035,5.938c0,0,1.018,2.375,1.526-0.848c0,0,0.17-0.348,0-5.092
	c0,0-0.082-4.135-3.474-6.169l-0.157-4.274"/>
<path id="Neck_5_" fill="#F4D198" d="M156.529,85.738c-1.678-0.606-1.529-2.224-1.529-2.224V78h-7.838H139v5.514
	c0,0,0.02,1.485-1.385,2.224c-2.105,1.107-4.107,1.524-4.107,1.524L133.553,97h13.416h13.375l0.362-9.738
	C160.706,87.262,158.766,86.546,156.529,85.738z"/>
<rect x="127" y="275" fill="#262626" width="10" height="8"/>
<rect x="156" y="275" fill="#262626" width="10" height="8"/>
<path fill="#992B3B" d="M120.771,193.788c0,0-1.229,26.021,1.028,38.957c0,0-3.756,32.489,2.972,47.828c0,0,11.757,2.6,17.234-0.454
	c0,0,5.179-16.737,2.643-47.51c0,0,4.366-28.317,2.921-39.528L120.771,193.788z"/>
<path fill="#992B3B" d="M172.789,193.792c0,0,1.105,26.017-1.184,38.961c0,0,3.576,32.476-3.142,47.841
	c0,0-11.638,2.646-17.041-0.388c0,0-5.051-16.717-2.412-47.499c0,0-4.197-28.301-2.721-39.518L172.789,193.792z"/>
<path fill="#262626" d="M137,283v11h-5v-2.163L131.179,294H112.94c0,0-1.223-9.408,11.994-10.729l12.162-0.07"/>
<path fill="#262626" d="M155.818,283.2l12.771-0.019c13.218,1.319,12.263,10.817,12.263,10.817h-18.768L161,291.837V294h-5v-11"/>
<path fill="#FFFFFF" stroke="#B5B5B5" stroke-linecap="round" stroke-linejoin="round" stroke-miterlimit="10" d="M144.924,278.62"
	/>
<path fill="#FFFFFF" stroke="#B5B5B5" stroke-linecap="round" stroke-linejoin="round" stroke-miterlimit="10" d="M147.021,188.749"
	/>
<path fill="#FFFFFF" d="M138.938,87.128c0,0,6.755,2.954,15.512,0.038l-6.9,32.206L138.938,87.128z"/>
<path fill="#DD3744" d="M172.839,92.33c-0.112-2.24-2.854-3.551-2.854-3.551l-7.78-1.783l-10.283,3.156l-4.947,4.966l-1.604,22.713
	L146.862,196h27.291C174.152,196,172.952,94.57,172.839,92.33z"/>
<path fill="#DD3744" d="M120.862,92.285c0.544-2.191,2.854-3.55,2.854-3.55l7.64-1.752l11.213,3.734l4.381,4.412L147.303,196
	h-27.754C119.548,196,120.165,95.09,120.862,92.285z"/>
<path fill="#992B3B" d="M117.803,158.322c0,0,9.197,2.186,14.197,0.031V178h-14.279L117.803,158.322z"/>
<path fill="#992B3B" d="M161.721,158.9c0,0,9.279,1.979,14.279-0.098V178h-14.424L161.721,158.9z"/>
<polygon fill="#992B3B" points="130.42,85 136.886,98.751 145.368,93.094 137.629,85 "/>
<polygon fill="#992B3B" points="163.503,85 157.037,98.751 148.36,93.235 156.293,85 "/>
<path fill="#DD3744" d="M123.717,88.707c0,0-10.704,3.281-12.427,14.399c0,0-8.706,29.373-8.706,34.932
	c0,0-1.723,27.239,2.009,35.856c0,0,4.398,1.598,14.159-0.627c0,0-2.66-33.841-1.233-37.731l5.91-15.842"/>
<line fill="none" stroke="#FCEF4F" stroke-width="3" stroke-miterlimit="10" x1="175.122" y1="186.947" x2="119.609" y2="186.947"/>
<line fill="none" stroke="#FCEF4F" stroke-width="3" stroke-miterlimit="10" x1="174.094" y1="191.177" x2="119.548" y2="191.177"/>
<line fill="none" stroke="#FCEF4F" stroke-width="3" stroke-miterlimit="10" x1="102.872" y1="166.68" x2="118.252" y2="165.62"/>
<line fill="none" stroke="#FCEF4F" stroke-width="3" stroke-miterlimit="10" x1="103.694" y1="170.908" x2="118.492" y2="169.85"/>
<line fill="none" stroke="#FCEF4F" stroke-width="3" stroke-miterlimit="10" x1="122.375" y1="267.783" x2="143.62" y2="267.783"/>
<line fill="none" stroke="#FCEF4F" stroke-width="3" stroke-miterlimit="10" x1="123.315" y1="272.541" x2="142.714" y2="272.541"/>
<line fill="none" stroke="#FCEF4F" stroke-width="3" stroke-miterlimit="10" x1="171.075" y1="267.783" x2="149.83" y2="267.783"/>
<line fill="none" stroke="#FCEF4F" stroke-width="3" stroke-miterlimit="10" x1="170.137" y1="272.541" x2="150.736" y2="272.541"/>
<ellipse fill="#212121" cx="146.454" cy="49.644" rx="24.551" ry="24.492"/>
<polyline id="Neck_4_" fill="#F4D198" points="155,83 155,77 146.742,77 139,77 139,83 "/>
<path opacity="0.1" enable-background="new    " d="M146.891,81.873c2.805-0.351,6.109-1.396,8.109-2.908V78h-8.232H139v1.442
	C141,80.643,144.113,81.498,146.891,81.873"/>
<path id="Face_1_" fill="#F4D198" d="M146.634,80.722c13.091-1.268,19.447-15.741,21.259-24.733
	c0.575-1.776,0.885-3.717,0.885-5.662c0-0.062-0.002-0.144-0.002-0.205c0.002-0.019,0.002-0.122,0.002-0.122h-0.002
	c-0.127-10-9.992-19.653-22.146-19.653c-12.233,0-22.15,8.982-22.15,20.005c0,1.995,0.326,3.944,0.931,5.76
	C127.245,65.133,131.495,78.889,146.634,80.722"/>
<path id="Ear_1_4_" fill="#F4D198" d="M123.558,55.488c0,0-4.538,0.567,1.042,8.23c3.101,4.258,3.975-0.61,3.039-0.559
	c-0.937,0.05-0.222-4.174-1.362-6.224C125.228,55.05,123.558,55.488,123.558,55.488z"/>
<path id="Ear_1_1_" fill="#F4D198" d="M169.532,55.488c0,0,4.538,0.567-1.041,8.23c-3.101,4.258-3.976-0.61-3.038-0.559
	c0.936,0.05,0.222-4.174,1.361-6.224C167.863,55.05,169.532,55.488,169.532,55.488z"/>
<ellipse fill="#212121" cx="146.383" cy="19.895" rx="8.51" ry="6.35"/>
<path fill="#880E4F" d="M154,25.163c0,0.645-1.587,1.837-2.762,1.837h-10.409c-1.174,0-2.829-1.192-2.829-1.837v-0.022
	c0-0.646,1.655-1.141,2.829-1.141h10.409c1.175,0,2.762,0.495,2.762,1.141V25.163z"/>
<g>
	<path fill="#212121" d="M124.303,48.891c0,0,14.691-2.073,21.876-7.524c0,0,1.841,3.301,6.789,4.069c0,0-3.596-1.996-4.475-4.914
		c0,0,12.378,7.985,20.601,8.369c0,0,2.713-22.727-22.755-22.036C120.87,27.546,124.303,48.891,124.303,48.891z"/>
	<path fill="#263238" d="M163.689,45.833c0,0-7.996-1.222-12.551-6.887"/>
	<path fill="#263238" d="M150.19,44.273c0,0-3.776-2.107-5.276-6.579"/>
	<path fill="#263238" d="M132.802,45.159c0,0,7.206,0.532,9.527-5.716"/>
	<path fill="#263238" d="M151.809,35.349c0,0,10.74,8.673,15.719,6.87"/>
	<path fill="#263238" d="M125.903,45.17c0,0,11.801-6.052,15.138-13.133"/>
</g>
<path fill="#263238" d="M143.328,23.972c0,0-4.622-4.777-3.105-8.454"/>
<path fill="#263238" d="M146.384,23.972c0,0-2.306-6.624,0-10.426"/>
<path fill="#263238" d="M149.525,23.972c0,0,4.393-4.376,2.762-8.647"/>
<path fill="#F48FB1" d="M127.259,66.061c0,0.108-0.088,0.196-0.196,0.196h-1.026c-0.108,0-0.196-0.088-0.196-0.196v-1.026
	c0-0.108,0.088-0.196,0.196-0.196h1.026c0.108,0,0.196,0.088,0.196,0.196V66.061z"/>
<path fill="#F48FB1" d="M166.988,66.061c0,0.108-0.088,0.196-0.195,0.196h-1.025c-0.108,0-0.197-0.088-0.197-0.196v-1.026
	c0-0.108,0.089-0.196,0.197-0.196h1.025c0.107,0,0.195,0.088,0.195,0.196V66.061z"/>
<g>
	<g>
		<path fill="#AA8C75" d="M149.379,67.415c0.149-0.059,0.306-0.087,0.46-0.131c0.464-0.133,0.267-0.857-0.199-0.724
			c-0.154,0.044-0.311,0.073-0.46,0.131C148.734,66.865,148.928,67.591,149.379,67.415L149.379,67.415z"/>
	</g>
</g>
<g>
	<g>
		<path fill="#AA8C75" d="M143.739,66.692c-0.148-0.059-0.304-0.087-0.458-0.132c-0.466-0.134-0.663,0.59-0.199,0.724
			c0.153,0.044,0.309,0.073,0.458,0.132C143.99,67.593,144.184,66.868,143.739,66.692L143.739,66.692z"/>
	</g>
</g>
<ellipse fill="#FFFFFF" cx="137.235" cy="56.923" rx="3.394" ry="5.007"/>
<ellipse fill="#261D00" cx="137.235" cy="57.985" rx="2.854" ry="4.211"/>
<ellipse cx="137.235" cy="58.43" rx="2.134" ry="3.766"/>
<ellipse fill="#FFFFFF" cx="136.214" cy="56.968" rx="1.113" ry="1.248"/>
<path opacity="0.1" fill="#FFFFFF" enable-background="new    " d="M137.254,51.919l0.059,10.271
	c0.777-0.031,1.477-0.519,1.979-1.291c0.812-0.915,1.338-2.353,1.338-3.976C140.629,54.168,139.12,51.934,137.254,51.919z"/>
<ellipse fill="#FFFFFF" cx="155.934" cy="56.923" rx="3.394" ry="5.007"/>
<ellipse fill="#261D00" cx="155.936" cy="57.985" rx="2.854" ry="4.211"/>
<ellipse cx="155.934" cy="58.43" rx="2.135" ry="3.766"/>
<ellipse fill="#FFFFFF" cx="154.913" cy="56.968" rx="1.112" ry="1.248"/>
<path opacity="0.1" fill="#FFFFFF" enable-background="new    " d="M155.953,51.919l0.059,10.271
	c0.777-0.031,1.477-0.519,1.979-1.291c0.812-0.915,1.336-2.353,1.336-3.976C159.327,54.168,157.818,51.934,155.953,51.919z"/>
<path fill="#FFFFFF" stroke="#F9C2F5" stroke-width="0.75" stroke-linecap="round" stroke-linejoin="round" stroke-miterlimit="10" d="
	M141.367,71.289l11.47,1.174c0,0-0.296,4.175-5.313,4.152C143.511,76.597,140.796,74.484,141.367,71.289z"/>
<g>
	<g>
		<path fill="#212121" d="M133.511,51.029c1.426-1.629,3.786-1.73,5.79-1.406c0.946,0.153,1.352-1.292,0.398-1.446
			c-2.516-0.407-5.454-0.259-7.249,1.792C131.816,50.693,132.873,51.758,133.511,51.029L133.511,51.029z"/>
	</g>
</g>
<g>
	<g>
		<path fill="#212121" d="M153.779,49.916c1.271-0.741,3.686-1.049,4.873,0.006c0.722,0.64,1.785-0.417,1.062-1.061
			c-1.717-1.525-4.795-1.345-6.69-0.24C152.188,49.107,152.941,50.404,153.779,49.916L153.779,49.916z"/>
	</g>
</g>
<path fill="#F4D198" d="M187,173v3.95c0,0,1.934,1.493,1.049,12.911c0,0-1.113,2.205-2.811,0c0.281-3.532,0.232-3.228,0.482-6.617
	l-0.811,10.857c0,0-0.934,2.203-2.29,0l0.84-10.857l-1.157,12.554c0,0-2.58,2.035-2.58-1.696l0.678-10.856l-0.812,10.619
	c0,0-1.527,1.864-2.714,0l0.474-10.619l-2.035,5.938c0,0-1.018,2.375-1.525-0.848c0,0-0.17-0.348,0-5.092
	c0,0,0.082-4.135,3.474-6.169l0.272-4.274"/>
<path fill="#DD3744" d="M169.855,88.707c0,0,10.703,3.281,12.426,14.399c0,0,8.707,29.373,8.707,34.932
	c0,0,1.723,27.239-2.01,35.856c0,0-4.398,1.598-14.16-0.627c0,0,2.662-33.841,1.232-37.731l-5.91-15.842"/>
<line fill="none" stroke="#FCEF4F" stroke-width="3" stroke-miterlimit="10" x1="182.281" y1="102.892" x2="111.29" y2="102.892"/>
<line fill="none" stroke="#FCEF4F" stroke-width="3" stroke-miterlimit="10" x1="183.604" y1="107.649" x2="109.968" y2="107.649"/>
<line fill="none" stroke="#FCEF4F" stroke-width="3" stroke-miterlimit="10" x1="190.59" y1="166.68" x2="175.21" y2="165.62"/>
<line fill="none" stroke="#FCEF4F" stroke-width="3" stroke-miterlimit="10" x1="189.844" y1="170.908" x2="175.045" y2="169.85"/>
<line fill="none" stroke="#992B3B" stroke-width="2" stroke-linecap="round" stroke-linejoin="round" stroke-miterlimit="10" x1="147.005" y1="95.25" x2="147.005" y2="195.621"/>
<path fill="#DD3744" d="M125.809,36.45c0,0-3.163-24.244,15.152-26.22l5.271-4.743l6.193,4.875c0,0,17.788-0.395,15.021,26.089
	c0,0,12.123,4.479,11.857,6.851c0,0,4.479,3.558-32.148,1.581c0,0-32.283,2.241-32.547-1.712
	C114.609,43.17,112.106,41.853,125.809,36.45z"/>
<path fill="#FCEF4F" d="M125.809,36.45c0,0,19.239,7.379,41.638,0l0.258-3.689c0,0-17.935,6.325-42.103,0L125.809,36.45z"/>
<path d="M125.091,55.198c0,0-8.117,0.287-0.726,12.414C124.365,67.612,115.278,56.01,125.091,55.198z"/>
<path d="M168.111,55.198c0,0,8.119,0.287,0.728,12.414C168.839,67.612,177.926,56.01,168.111,55.198z"/>
<path fill="#992B3B" d="M140.951,21.294l-0.982-10.897l0.899-0.12l1.924,10.944C142.792,21.221,141.823,22.519,140.951,21.294z"/>
<path fill="#992B3B" d="M152.382,21.297l0.981-10.832l-0.897-0.12l-1.925,10.879C150.541,21.225,151.509,22.515,152.382,21.297z"/>
<path fill="#FCEF4F" stroke="#FFDA3E" stroke-miterlimit="10" d="M147.019,19.196c0,0-1.174,1.841-6.287,1.637
	c0,0-1.188,10.637,6.054,13.092c0,0,7.547-2.148,6.219-13.092C153.004,20.833,148.908,21.038,147.019,19.196z"/>
<path opacity="0.05" enable-background="new    " d="M147.302,209.104c0.069-8.229-1.008-129.501-2.007-134.398
	c-1.21-5.923,0.329-35.994,0.329-35.994c2.935-14.739-0.052-27.299,0.608-33.224l-5.271,4.743
	c-18.505,2.41-15.152,26.22-15.152,26.22c-13.596,5.464-11.2,6.72-11.2,6.72c0.347,1.255,2.99,1.519,2.99,1.519l4.625,0.694
	c-0.925,6.536,0.44,10.337,0.44,10.337c-5.627,2.709,1.7,11.892,1.7,11.892c-4.882-8.055-2.625-10.538-2.625-10.538
	c-0.354,4.024,4.26,8.232,4.26,8.232V66h1.742l0.033-0.512c0.219,0.254,0.537,0.541,0.774,0.805
	C132.281,75.426,139,78.259,139,78.259s0,3.858,0,5.584c0,0.673-0.822,1.605-1.197,1.777c-0.887,0.405-7.344,0.04-7.344,0.04
	l0.627,1.341c0,0-6.332,1.482-8.219,2.186c-12.164,4.535-12.368,17.006-16.163,30.184c-1.401,4.864-4.971,18.426-4.515,24.837
	c0.236,3.322,0.618,21.411,0.618,21.411l1.787,8.275l2.032,0.444l-0.029,2.609c0,0-1.945,2.428-0.963,12.911
	c0,0,1.297,2.293,2.854,0l0.359,4.24c0,0,1.385,2.543,2.442-0.694l0.175,2.391c0,0,2.325,2.015,2.633-1.466l0.083-0.469
	c0,0,1.634,1.824,2.714,0l-0.474-10.619l2.035,5.938c0,0,0.597,1.342,1.093,0.539L119.284,196h1.423l-0.27,13.291
	c0,0,0.213,17.705,1.362,23.416c0,0-3.944,28.448,3.129,47.848l2.071,0.395v2.431c0,0-5.18-0.594-10.553,2.986
	c-1.6,1.065-3.991,4.797-3.507,7.635h18.239l0.821-2.163V294h5v-12.396l4.876-1.484c0,0,5.364-15.244,2.708-47.51
	c-0.383-4.65,2.223-17.365,2.223-17.365L147.302,209.104"/>
</svg>
