<?xml version="1.0" encoding="utf-8"?>
<!-- Generator: Adobe Illustrator 16.0.0, SVG Export Plug-In . SVG Version: 6.00 Build 0)  -->
<!DOCTYPE svg PUBLIC "-//W3C//DTD SVG 1.1//EN" "http://www.w3.org/Graphics/SVG/1.1/DTD/svg11.dtd">
<svg version="1.1" id="Layer_1" xmlns="http://www.w3.org/2000/svg" xmlns:xlink="http://www.w3.org/1999/xlink" x="0px" y="0px"
	 width="90.072px" height="291.804px" viewBox="104.312 4.196 90.072 291.804"
	 enable-background="new 104.312 4.196 90.072 291.804" xml:space="preserve">
<rect x="129" y="277" fill="#262626" width="11" height="8"/>
<rect x="158" y="277" fill="#262626" width="11" height="8"/>
<path fill="#992B3B" d="M123.11,194.572c0,0-1.241,26.266,1.038,39.322c0,0-3.792,32.793,3,48.274c0,0,11.868,2.624,17.395-0.458
	c0,0,5.228-16.895,2.668-47.954c0,0,4.407-28.583,2.948-39.897L123.11,194.572z"/>
<path fill="#992B3B" d="M175.613,194.576c0,0,1.117,26.261-1.191,39.326c0,0,3.609,32.777-3.172,48.287c0,0-11.747,2.67-17.2-0.392
	c0,0-5.098-16.872-2.435-47.942c0,0-4.237-28.564-2.746-39.888L175.613,194.576z"/>
<path fill="#EAC198" d="M110,174v4.256c0,0-2.443,1.562-1.52,13.496c0,0,0.955,2.307,2.728,0c0,0-0.375-3.705-0.609-6.917
	l0.792,11.351c0,0,0.95,2.305,2.368,0l-0.892-11.351l1.203,13.122c0,0,2.695,2.129,2.695-1.771l-0.71-11.351l0.849,11.103
	c0,0,1.597,1.947,2.837,0l-0.496-11.103l2.127,6.209c0,0,1.063,2.481,1.595-0.888c0,0,0.178-0.361,0-5.321
	c0,0-0.085-4.321-3.63-6.449l0.137-4.53"/>
<path fill="#262626" d="M140,285v11h-6v-2.461L133.615,296h-18.409c0,0-1.186-9.635,12.154-10.969l12.53-0.027"/>
<path fill="#262626" d="M158.178,285.004l13.045,0.028c13.34,1.334,12.531,10.968,12.531,10.968h-18.943L164,293.539V296h-6v-11"/>
<polygon fill="#F9E97A" points="141.606,28.65 144.048,18.584 146.49,7.977 151.38,15.034 156.271,21.55 148.938,25.101 "/>
<polygon fill="#F9E97A" points="117.227,51.66 122.805,47.966 128.382,44.271 129.515,52.038 130.647,59.806 123.937,55.732 "/>
<polygon fill="#F9E97A" points="120.789,58.609 126.366,54.916 131.943,51.221 133.077,58.988 134.208,66.756 127.498,62.681 "/>
<polyline fill="#F9E97A" points="144.8,16.28 149.684,21.808 142.735,24.285 135.788,26.761 137.852,18.757 "/>
<polygon fill="#F9E97A" points="116.867,43.742 122.904,41.025 128.942,38.309 128.906,46.294 128.869,54.279 122.869,49.01 "/>
<path fill="#FFFFFF" stroke="#B5B5B5" stroke-linecap="round" stroke-linejoin="round" stroke-miterlimit="10" d="M147.489,280.199"
	/>
<path fill="#FFFFFF" stroke="#B5B5B5" stroke-linecap="round" stroke-linejoin="round" stroke-miterlimit="10" d="M149.605,189.486"
	/>
<path id="Neck_2_" fill="#EAC198" d="M159.039,86.16c-2.281-1.206-2.039-2.411-2.039-2.411V78h-7.739H141v5.749
	c0,0,0.482,1.206-1.797,2.411c-2.281,1.206-4.602,1.466-4.602,1.466L134.503,98h14.547h14.505l0.203-10.374
	C163.758,87.626,161.318,87.366,159.039,86.16z"/>
<polyline id="Neck_1_" fill="#EAC198" points="157,83 157,77 148.806,77 141,77 141,83 "/>
<path fill="#FFFFFF" stroke="#000000" stroke-linecap="round" stroke-linejoin="round" stroke-miterlimit="10" d="M140.222,85.393"
	/>
<path fill="#FFFFFF" d="M141.447,86.915c0,0,6.818,2.982,15.657,0.039l-6.964,32.507L141.447,86.915z"/>
<path fill="#DD3744" d="M176.732,92.263c-0.114-2.261-3.949-3.633-3.949-3.633l-7.854-1.824l-10.379,3.173l-4.994,5.006
	l-1.619,23.021L149.445,197h28.614C178.059,197,176.848,94.524,176.732,92.263z"/>
<path fill="#DD3744" d="M122.135,92.217c0.55-2.211,3.948-3.631,3.948-3.631l7.712-1.794l11.318,3.757l4.422,4.545L149.891,197
	h-29.082C120.809,197,121.431,95.048,122.135,92.217z"/>
<path fill="#992B3B" d="M120,158.992c0,0,9,1.988,14-0.186V179h-14V158.992z"/>
<path fill="#992B3B" d="M164.516,159.54c0,0,9.484,1.815,14.484-0.278V179h-14.702L164.516,159.54z"/>
<path id="Chin_1_" opacity="0.1" enable-background="new    " d="M157,81.069V79h-8.21H141v1.831c1,0.83,4.998,2.359,8.006,2.271
	C152.568,83.108,154,82.165,157,81.069z"/>
<path id="Face_3_" fill="#EAC198" d="M169.993,49.208c0.001-0.02,0.002-0.208,0.002-0.208h-0.002
	c-0.122-12-9.487-20.93-21.023-20.93c-11.612,0-21.026,9.639-21.026,21.421c0,2.133,0.31,4.234,0.883,6.178
	c1.743,9.64,6.733,26.81,20.148,26.319c13.484,0.494,18.46-16.824,20.181-26.435c0.546-1.9,0.84-3.989,0.84-6.067
	C169.995,49.42,169.994,49.273,169.993,49.208z"/>
<path id="Ear_1_6_" fill="#EAC198" d="M126.784,54.367c0,0-2.805,0.715,2.202,6.627c2.781,3.285,2.394-0.708,1.727-0.593
	c-0.668,0.113-0.699-3.437-1.785-5.045C127.929,53.876,126.784,54.367,126.784,54.367z"/>
<path id="Ear_1_5_" fill="#EAC198" d="M171.072,54.367c0,0,2.806,0.715-2.2,6.627c-2.782,3.285-2.394-0.708-1.728-0.593
	c0.668,0.113,0.698-3.437,1.785-5.045C169.93,53.876,171.072,54.367,171.072,54.367z"/>
<path id="Eyebrow_1_6_" fill="#F9E97A" d="M144.115,46.443c-0.907-0.546-5.71,0.565-6.864,0.817
	c-0.475,0.102-2.156,0.855-2.156,0.855s-1.968,1.085-2.144,2.461c-0.176,1.376,1.229,0.188,1.84-0.129
	c0.61-0.318,2.754-1.474,3.404-1.417c0.989,0.085,4.969-0.354,5.713-0.44C145.412,48.416,144.396,46.612,144.115,46.443z"/>
<path id="Eyebrow_1_5_" fill="#F9E97A" d="M152.678,46.443c0.905-0.546,5.709,0.565,6.863,0.817
	c0.475,0.102,2.156,0.855,2.156,0.855s1.967,1.085,2.144,2.461s-1.229,0.188-1.84-0.129c-0.61-0.318-2.755-1.474-3.405-1.417
	c-0.988,0.085-4.968-0.354-5.714-0.44C151.379,48.416,152.396,46.612,152.678,46.443z"/>
<path fill="#F9E97A" d="M128.128,43.346c0,0,9.256-1.415,14.841-8.117c0,0,0.716,2.011-2.248,4.766c0,0,12.078-0.968,16.522-9.458
	c0,0,0.81-7.599-0.974-8.987c-1.344-1.046-6.744,0.944-6.744,0.944S126.618,23.239,128.128,43.346z"/>
<g>
	<g>
		<path fill="#AA8C75" d="M145.662,64.409c-0.496,1.061-0.51,2.204,0.52,2.94c1.021,0.731,2.345,0.929,3.555,1.131
			c0.473,0.079,0.675-0.644,0.199-0.724c-1.571-0.262-4.698-0.678-3.626-2.969C146.513,64.353,145.866,63.972,145.662,64.409
			L145.662,64.409z"/>
	</g>
</g>
<path opacity="0.1" enable-background="new    " d="M129.404,41.724c0,0,3.817-0.019,12.29-7.248"/>
<path opacity="0.1" enable-background="new    " d="M144.014,38.099c0,0,8.087-2.031,11.47-8.432"/>
<path opacity="0.1" enable-background="new    " d="M143.551,48.631c0,0-0.132-0.866-0.815-1.361"/>
<path opacity="0.1" enable-background="new    " d="M141.693,48.76c0,0-0.084-0.878-0.807-1.49"/>
<path opacity="0.1" enable-background="new    " d="M139.938,48.76c0,0-0.403-0.63-1.114-1.16"/>
<path opacity="0.1" enable-background="new    " d="M153.055,48.18c0,0,0.303-0.827,0.961-0.91"/>
<path opacity="0.1" enable-background="new    " d="M154.76,48.631c0,0,0.695-1.278,1.379-1.361"/>
<path opacity="0.1" enable-background="new    " d="M156.162,48.631c0,0,0.432-1.031,1.247-1.031"/>
<path fill="#424242" d="M130.149,60.667c0,0-0.286-0.011-0.228,0.074c0.402,0.577,0.135,2.089-0.687,1.464
	c-0.432-0.328,0.038-0.814-0.095-1.028c-0.193-0.312-0.194-0.204-0.194-0.204s-0.565,1.626,0.515,1.629
	C130.799,62.607,130.338,61.081,130.149,60.667z"/>
<ellipse fill="#FFFFFF" cx="139.563" cy="54.068" rx="3.68" ry="4.582"/>
<ellipse fill="#007115" cx="139.563" cy="55.04" rx="3.095" ry="3.854"/>
<ellipse cx="139.563" cy="55.446" rx="2.315" ry="3.447"/>
<ellipse fill="#FFFFFF" cx="138.456" cy="54.108" rx="1.208" ry="1.142"/>
<path opacity="0.1" fill="#FFFFFF" enable-background="new    " d="M139.584,49.487l0.063,9.401
	c0.843-0.029,1.602-0.475,2.146-1.181c0.88-0.837,1.45-2.153,1.45-3.639C143.243,51.546,141.607,49.501,139.584,49.487z"/>
<ellipse fill="#FFFFFF" cx="156.639" cy="54.068" rx="3.68" ry="4.582"/>
<ellipse fill="#007115" cx="156.639" cy="55.04" rx="3.096" ry="3.854"/>
<ellipse cx="156.639" cy="55.446" rx="2.314" ry="3.447"/>
<ellipse fill="#FFFFFF" cx="155.529" cy="54.108" rx="1.207" ry="1.142"/>
<path opacity="0.1" fill="#FFFFFF" enable-background="new    " d="M156.659,49.487l0.063,9.401c0.842-0.029,1.6-0.475,2.146-1.181
	c0.879-0.837,1.448-2.153,1.448-3.639C160.318,51.546,158.684,49.501,156.659,49.487z"/>
<path fill="#F9E97A" d="M157.244,30.537c0,0,14.132,4.204,12.018,23.947l1.812-0.118c0,0,2.859-25.766-13.959-31.107"/>
<path fill="#FFFFFF" stroke="#CCB27A" stroke-width="0.75" stroke-linecap="round" stroke-linejoin="round" stroke-miterlimit="10" d="
	M143.243,74.495l12.206-2.935c0,0-1.914,4.89-5.203,5.958C146.106,78.863,144.198,76.807,143.243,74.495z"/>
<polygon fill="#992B3B" points="132.85,86 139.376,99.264 147.938,93.861 140.126,86 "/>
<polygon fill="#992B3B" points="166.242,86 159.716,99.264 150.957,94.004 158.965,86 "/>
<path fill="#DD3744" d="M126.083,88.508c0,0-10.803,3.312-12.542,14.534c0,0-8.789,29.648-8.789,35.259
	c0,0-1.738,27.495,2.028,36.192c0,0,4.44,1.612,14.292-0.632c0,0-2.686-34.158-1.245-38.085l5.966-15.99"/>
<line fill="none" stroke="#FCEF4F" stroke-width="3" stroke-miterlimit="10" x1="177.971" y1="187.668" x2="120.875" y2="187.668"/>
<line fill="none" stroke="#FCEF4F" stroke-width="3" stroke-miterlimit="10" x1="177.971" y1="191.938" x2="120.875" y2="191.938"/>
<line fill="none" stroke="#FCEF4F" stroke-width="3" stroke-miterlimit="10" x1="105.043" y1="167.21" x2="120.568" y2="166.141"/>
<line fill="none" stroke="#FCEF4F" stroke-width="3" stroke-miterlimit="10" x1="105.874" y1="171.479" x2="120.81" y2="170.41"/>
<path fill="#EAC198" d="M189,174v4.256c0,0,2.316,1.562,1.393,13.496c0,0-1.017,2.307-2.789,0c0,0,0.342-3.705,0.578-6.917
	l-0.81,11.351c0,0-0.958,2.305-2.375,0l0.887-11.351l-1.204,13.122c0,0-2.695,2.129-2.695-1.771l0.709-11.351l-0.848,11.103
	c0,0-1.599,1.947-2.839,0l0.495-11.103l-2.127,6.209c0,0-1.062,2.481-1.596-0.888c0,0-0.178-0.361,0-5.321
	c0,0,0.086-4.321,3.631-6.449l-0.012-4.53"/>
<path fill="#DD3744" d="M172.652,88.508c0,0,10.805,3.312,12.543,14.534c0,0,8.787,29.648,8.787,35.259
	c0,0,1.74,27.495-2.026,36.192c0,0-4.44,1.612-14.292-0.632c0,0,2.686-34.158,1.244-38.085l-5.967-15.99"/>
<line fill="none" stroke="#FCEF4F" stroke-width="3" stroke-miterlimit="10" x1="185.195" y1="102.826" x2="113.541" y2="102.826"/>
<line fill="none" stroke="#FCEF4F" stroke-width="3" stroke-miterlimit="10" x1="186.529" y1="107.628" x2="112.206" y2="107.628"/>
<line fill="none" stroke="#FCEF4F" stroke-width="3" stroke-miterlimit="10" x1="193.583" y1="167.21" x2="178.059" y2="166.141"/>
<line fill="none" stroke="#FCEF4F" stroke-width="3" stroke-miterlimit="10" x1="192.829" y1="171.479" x2="177.893" y2="170.41"/>
<line fill="none" stroke="#FCEF4F" stroke-width="3" stroke-miterlimit="10" x1="124.729" y1="269.26" x2="146.173" y2="269.26"/>
<line fill="none" stroke="#FCEF4F" stroke-width="3" stroke-miterlimit="10" x1="125.678" y1="274.062" x2="145.259" y2="274.062"/>
<line fill="none" stroke="#FCEF4F" stroke-width="3" stroke-miterlimit="10" x1="173.885" y1="269.26" x2="152.441" y2="269.26"/>
<line fill="none" stroke="#FCEF4F" stroke-width="3" stroke-miterlimit="10" x1="172.938" y1="274.062" x2="153.355" y2="274.062"/>
<path fill="#DD3744" d="M126.265,35.933c0,0-3.242-24.848,15.529-26.875l5.404-4.861l6.348,4.996c0,0,18.231-0.405,15.396,26.74
	c0,0,12.425,4.591,12.154,7.022c0,0,4.592,3.646-32.952,1.621c0,0-33.089,2.297-33.359-1.755
	C114.785,42.821,112.22,41.471,126.265,35.933z"/>
<path fill="#FCEF4F" d="M126.265,35.933c0,0,19.719,7.563,42.678,0l0.265-3.781c0,0-18.382,6.483-43.154,0L126.265,35.933z"/>
<line fill="none" stroke="#992B3B" stroke-width="2" stroke-linecap="round" stroke-linejoin="round" stroke-miterlimit="10" x1="149.59" y1="95.113" x2="149.59" y2="196.423"/>
<path fill="#992B3B" d="M141.878,19.943l-0.991-10.766l0.907-0.119l1.942,10.813C143.736,19.871,142.759,21.153,141.878,19.943z"/>
<path fill="#992B3B" d="M153.417,19.943l0.991-10.766L153.5,9.058l-1.941,10.813C151.559,19.871,152.535,21.153,153.417,19.943z"/>
<path fill="#FCEF4F" stroke="#FFDA3E" stroke-miterlimit="10" d="M147.823,18.252c0,0-1.204,1.887-6.444,1.677
	c0,0-1.218,10.903,6.205,13.418c0,0,7.734-2.201,6.373-13.418C153.957,19.929,149.76,20.139,147.823,18.252z"/>
<path opacity="0.05" enable-background="new    " d="M149.889,210.03c0.071-8.306-1.017-130.712-2.025-135.656
	c-1.222-5.979,0.332-36.33,0.332-36.33c-1.364-13.227,0.773-27.316-0.997-33.848l-5.404,4.861c0,0-17.857,0.604-15.529,26.875
	c0.061,0.689-6.671,1.855-11.274,5.791c-1.069,0.914,0.522,1.988,0.522,1.988l2.177,0.806l4.467,3.919c0,0-3.879,2.409-4.946,3.223
	l7.391,4.469c0,0-3.337,2.162-3.818,2.48c0,0,9.86,5.747,10.338,6.28c2.201,5.358,2.316,6.921,6.447,12.006
	c0.958,1.179,3.271,2.824,3.271,2.824s-0.022,3.046-0.022,4.788c0,0.68-0.218,0.713-0.597,0.886c-0.894,0.409-7.372,0.04-7.372,0.04
	l0.652,1.354c0,0-6.381,1.496-8.287,2.207c-12.277,4.577-12.478,17.166-16.309,30.466c-1.415,4.909-5.015,18.599-4.554,25.07
	c0.239,3.354,0.625,21.612,0.625,21.612l2.136,8.353l2.887,0.561v3.202c0,0-2.51,2.915-1.52,13.496c0,0,1.156,2.314,2.728,0
	l0.224,4.434c0,0,1.371,2.551,2.393-0.474l0.26,2.245c0,0,2.376,2,2.688-1.514l0.135-0.555c0,0,1.77,2.09,2.835,0l-0.498-11.055
	l1.631,4.783L120.809,197h2.237l-0.273,13.318c0,0,0.215,17.82,1.375,23.587c0,0-4.14,28.689,3,48.271l2.198,0.428l-0.267,2.4
	c0,0-5.069-0.462-10.493,3.151c-1.615,1.075-3.87,4.405-3.381,7.845h18.409l0.385-2.461V296h6v-12.789l4.668-1.499
	c0,0,5.286-15.387,2.605-47.954c-0.387-4.693,2.18-17.527,2.18-17.527L149.889,210.03"/>
</svg>
