<?xml version="1.0" encoding="iso-8859-1"?>
<!-- Generator: Adobe Illustrator 19.0.0, SVG Export Plug-In . SVG Version: 6.00 Build 0)  -->
<svg version="1.1" id="Layer_1" xmlns="http://www.w3.org/2000/svg" xmlns:xlink="http://www.w3.org/1999/xlink" x="0px" y="0px"
	 viewBox="0 0 512 512" style="enable-background:new 0 0 512 512;" xml:space="preserve">
<path style="fill:#2BA5F7;" d="M478.316,292.101v92.595c0,13.533-5.48,25.799-14.353,34.672
	c-8.873,8.861-21.126,14.353-34.672,14.353v-141.62H478.316z"/>
<path style="fill:#2197D8;" d="M82.709,292.101v141.62c-13.533,0-25.799-5.493-34.672-14.353
	c-8.861-8.873-14.353-21.139-14.353-34.672v-92.595H82.709L82.709,292.101z"/>
<path style="fill:#F7B239;" d="M493.744,270.913v21.188h-27.24h-49.025v-46.987h50.454
	C482.187,245.114,493.744,256.659,493.744,270.913z"/>
<path style="fill:#E09B2D;" d="M94.509,245.114v46.987H45.483H18.256v-21.188c0-14.254,11.557-25.799,25.811-25.799H94.509z"/>
<g>
	<path style="fill:#F7B239;" d="M417.128,0c8.776,0,15.891,7.115,15.891,15.891v160.302c0,68.921-97.479-18.032-57.19-79.335V15.891
		C375.829,7.115,382.944,0,391.72,0H417.128z"/>
	<path style="fill:#F7B239;" d="M120.28,0c8.776,0,15.891,7.115,15.891,15.891v80.954v0.012
		c-16.864,171.905-57.19,130.896-57.19,79.335V15.891C78.981,7.115,86.096,0,94.872,0H120.28z"/>
</g>
<path style="fill:#2BA5F7;" d="M319.049,125.229H192.951c-5.147,0-9.32-4.173-9.32-9.32V74.767
	c0-19.333,15.729-35.061,35.062-35.061h74.617c19.333,0,35.061,15.728,35.061,35.061v41.141
	C328.37,121.056,324.197,125.229,319.049,125.229z M202.271,106.588h107.458V74.767c0-9.054-7.366-16.42-16.42-16.42h-74.617
	c-9.054,0-16.421,7.367-16.421,16.42V106.588z"/>
<path style="fill:#F95428;" d="M433.019,433.721v43.073c0,19.449-15.758,35.206-35.194,35.206H114.187
	c-19.449,0-35.206-15.758-35.206-35.206v-43.073v-141.62v-46.987v-68.921c0-36.946,23.96-68.287,57.19-79.335v-0.012
	c8.301-2.759,17.174-4.25,26.408-4.25h30.372h126.099h30.372c9.233,0,18.106,1.491,26.408,4.263
	c33.23,11.06,57.19,42.402,57.19,79.335v68.921v46.987L433.019,433.721L433.019,433.721z"/>
<g>
	<path style="fill:#E54728;" d="M162.579,92.595c-9.233,0-18.106,1.491-26.408,4.25v0.012c-33.23,11.048-57.19,42.389-57.19,79.335
		v300.601c0,19.449,15.758,35.206,35.206,35.206h50.951c-19.449,0-35.206-15.758-35.206-35.206V176.193
		c0-36.946,23.96-68.287,57.19-79.335v-0.012c8.301-2.759,17.174-4.25,26.408-4.25H162.579z"/>
	<path style="fill:#E54728;" d="M340.014,299.57v107.905c0,21.636-17.535,39.17-39.158,39.17H191.273
		c-21.636,0-39.17-17.535-39.17-39.17V299.57L340.014,299.57L340.014,299.57z"/>
</g>
<path style="fill:#2BA5F7;" d="M349.956,299.57v107.905c0,21.636-17.535,39.17-39.158,39.17H201.215
	c-21.636,0-39.17-17.535-39.17-39.17V299.57L349.956,299.57L349.956,299.57z"/>
<g>
	<path style="fill:#2197D8;" d="M198.083,407.475V299.57h-36.039v107.905c0,21.636,17.535,39.17,39.17,39.17h36.039
		C215.618,446.645,198.083,429.111,198.083,407.475z"/>
	<rect x="162.05" y="299.57" style="fill:#2197D8;" width="187.911" height="19.883"/>
</g>
<polygon style="fill:#F7B239;" points="296.444,170.899 256.006,211.337 215.556,170.899 256.006,130.461 "/>
<rect x="232.587" y="299.57" style="fill:#2197D8;" width="38.127" height="87.152"/>
<rect x="236.937" y="299.57" style="fill:#F95428;" width="38.127" height="87.152"/>
<rect x="236.937" y="299.57" style="fill:#E54728;" width="38.127" height="11.445"/>
<path style="fill:#F7B239;" d="M373.108,293.339v13.707h-23.152h-74.886h-38.127h-74.899h-23.152v-13.707
	c0-22.506,18.243-40.749,40.749-40.749h152.718C354.864,252.59,373.108,270.833,373.108,293.339z"/>
<path style="fill:#E09B2D;" d="M235.563,252.589h-55.922c-22.506,0-40.749,18.243-40.749,40.749v13.707h23.152h32.77v-13.707
	C194.815,270.832,213.058,252.589,235.563,252.589z"/>
<g>
	<rect x="242.019" y="157.85" style="fill:#4D4D4D;" width="8.699" height="26.097"/>
	<rect x="261.282" y="157.85" style="fill:#4D4D4D;" width="8.699" height="26.097"/>
</g>
<g>
</g>
<g>
</g>
<g>
</g>
<g>
</g>
<g>
</g>
<g>
</g>
<g>
</g>
<g>
</g>
<g>
</g>
<g>
</g>
<g>
</g>
<g>
</g>
<g>
</g>
<g>
</g>
<g>
</g>
</svg>
