<?xml version="1.0" encoding="utf-8"?>
<!-- Generator: Adobe Illustrator 16.0.3, SVG Export Plug-In . SVG Version: 6.00 Build 0)  -->
<!DOCTYPE svg PUBLIC "-//W3C//DTD SVG 1.1//EN" "http://www.w3.org/Graphics/SVG/1.1/DTD/svg11.dtd">
<svg version="1.1" id="Layer_1" xmlns="http://www.w3.org/2000/svg" xmlns:xlink="http://www.w3.org/1999/xlink" x="0px" y="0px"
	 width="300px" height="300px" viewBox="0 0 300 300" enable-background="new 0 0 300 300" xml:space="preserve">
<g>
	<path fill="#E56A33" d="M60.333,201.594c-1.596,37.726,28.773,68.823,61.22,73.968c34.575,5.718,65.425,1.144,91.49-25.15
		c23.936-24.007,38.298-60.59,31.914-96.029c-5.318-31.439-27.127-58.305-45.212-82.313c-14.894-20.007-23.404-43.442-31.384-66.878
		c0.532,22.865-3.723,45.157-10.638,67.45c-1.596,5.716-3.724,12.003-6.384,17.719c-3.723,7.431-5.851,16.578-13.297,11.433
		c-9.042-6.859-13.83-27.437-15.425-38.298c-0.532-4.001-1.064-7.431-1.596-10.861c-16.49,2.287-16.49,28.581-16.49,41.728
		c0,16.005,4.788,41.728-10.638,52.016C79,126.372,67.83,105.794,65.17,80.644C50.809,118.37,66.184,162.152,60.333,201.594"/>
	<g>
		<path fill="#212121" d="M58.833,201.594c-0.722,23.188,10.047,44.706,27.743,59.42c17.923,14.904,41.151,18.821,63.886,18.154
			c24.361-0.714,46.407-10.574,63.642-27.696c17.717-17.601,29.878-41.709,32.976-66.526c1.98-15.868,0.346-31.684-4.794-46.825
			c-5.172-15.241-13.8-29.126-22.983-42.234c-9.583-13.677-20.559-26.33-28.755-40.938c-8.872-15.81-14.906-33.054-20.739-50.157
			c-0.53-1.556-2.978-1.359-2.946,0.399c0.511,29.217-5.746,60.35-18.008,86.931c-1.093,2.369-2.104,4.751-3.435,7
			c-2.372,4.009-6.012,2.188-8.611-0.51c-3.846-3.994-6.02-9.744-7.824-14.866c-3.597-10.208-4.87-20.878-6.516-31.511
			c-0.133-0.862-1.116-1.174-1.845-1.047c-16.322,2.823-17.301,24.597-17.557,37.574c-0.174,8.863,0.601,17.687,0.667,26.544
			c0.081,10.675-1.171,23.09-10.597,29.776c0.684,0.18,1.368,0.359,2.052,0.539c-14.363-19.418-25.75-40.657-28.519-64.978
			c-0.192-1.684-2.341-2.042-2.946-0.399c-14.411,39.087,0.802,80.823-4.837,120.951c-0.266,1.891,2.625,2.706,2.893,0.797
			c5.63-40.069-9.53-81.98,4.837-120.95c-0.982-0.133-1.964-0.266-2.946-0.399c2.835,24.9,14.201,46.581,28.928,66.491
			c0.452,0.61,1.334,1.048,2.052,0.539c15.231-10.805,12.124-32.63,11.477-48.83c-0.528-13.229-2.243-41.729,15.293-44.763
			c-0.615-0.349-1.23-0.698-1.845-1.047c1.94,12.528,3.45,25.213,8.606,36.942c2.7,6.14,11.279,21.139,18.967,11.878
			c3.557-4.285,5.61-10.773,7.695-15.875c3.411-8.345,5.747-17.243,8.043-25.947c4.718-17.887,7.299-36.328,6.975-54.84
			c-0.982,0.133-1.964,0.266-2.946,0.399c4.607,13.508,9.416,26.944,15.442,39.894c6.103,13.114,14.075,24.674,22.768,36.163
			c16.664,22.025,33.426,45.362,38.386,73.134c9.605,53.787-28.858,113.796-84.329,120.728c-22.571,2.82-47.437-0.402-66.403-13.52
			c-19.616-13.567-31.688-36.527-30.945-60.395C61.894,199.658,58.894,199.664,58.833,201.594L58.833,201.594z"/>
	</g>
</g>
<g id="Eye_1_">
	
		<ellipse fill="#FFFFFF" stroke="#212121" stroke-width="2" stroke-miterlimit="10" cx="142.432" cy="170.076" rx="9.432" ry="12.575"/>
	<ellipse fill="#212121" cx="142.675" cy="173.314" rx="7.003" ry="9.337"/>
	<circle fill="#FFFFFF" cx="138.721" cy="165.926" r="1.949"/>
	<g>
		<path fill="#FF4A4A" d="M118.366,131.057c3.574,8.099,10.075,11.273,17.709,14.088c4.646,1.268,17.701,3.857,15.938,11.656
			c-1.434,5.698-17.258-3.249-22.348-5.125c-9.737-3.145-12.064-8.895-11.629-18.518"/>
		<g>
			<path fill="#212121" d="M117.07,131.813c3.352,6.995,8.96,10.85,15.961,13.762c4.911,2.042,18.67,3.24,17.535,10.827
				c-0.494,3.297-17.124-4.747-18.898-5.52c-3.323-1.447-6.496-2.394-9.101-5.066c-3.163-3.244-3.165-8.459-3.031-12.659
				c0.062-1.936-2.939-1.93-3,0c-0.294,9.257,2.5,15.898,11.39,19.497c3.975,1.609,7.86,3.418,11.822,5.065
				c2.951,1.228,7.355,3.252,10.662,2.302c2.513-0.722,3.643-2.955,3.189-5.539c-0.659-3.749-3.64-5.894-6.871-7.483
				c-3.689-1.814-7.778-2.373-11.589-3.804c-6.781-2.546-12.276-6.216-15.478-12.897
				C118.825,128.556,116.239,130.078,117.07,131.813L117.07,131.813z"/>
		</g>
	</g>
	<g>
		<g>
			<path fill="#212121" d="M153.457,156.426c0.558-5.62,0.828-11.015-1.801-16.183c-0.877-1.725-3.465-0.207-2.59,1.514
				c2.356,4.632,1.887,9.667,1.391,14.669C150.266,158.351,153.268,158.332,153.457,156.426L153.457,156.426z"/>
		</g>
	</g>
</g>
<g id="Eye">
	
		<ellipse fill="#FFFFFF" stroke="#212121" stroke-width="2" stroke-miterlimit="10" cx="186.432" cy="170.076" rx="9.432" ry="12.575"/>
	<ellipse fill="#212121" cx="186.188" cy="173.314" rx="7.003" ry="9.337"/>
	<circle fill="#FFFFFF" cx="190.142" cy="165.926" r="1.949"/>
	<g>
		<path fill="#FF4A4A" d="M210.014,131.057c-3.574,8.099-10.075,11.273-17.71,14.088c-4.646,1.268-17.701,3.857-15.938,11.656
			c1.434,5.698,17.258-3.249,22.348-5.125c9.737-3.145,12.063-8.895,11.63-18.518"/>
		<g>
			<path fill="#212121" d="M208.719,130.3c-2.995,6.25-7.904,9.777-14.169,12.383c-3.875,1.611-8.07,2.197-11.923,3.889
				c-3.391,1.49-6.424,3.41-7.692,7.036c-0.764,2.184-0.021,5.537,2.455,6.248c6.944,1.996,15.531-4.331,21.723-6.733
				c9.563-3.71,13.055-9.755,12.731-19.964c-0.062-1.93-3.062-1.936-3,0c0.125,3.963-0.031,7.843-2.054,11.359
				c-2.059,3.578-6.184,4.741-9.721,6.214c-5.628,2.346-11.77,6.495-18.046,6.429c-2.976-0.031-0.563-4.192,0.256-5.081
				c1.396-1.517,3.634-2.421,5.498-3.16c3.013-1.195,6.236-1.694,9.261-2.83c7.498-2.816,13.728-6.882,17.271-14.276
				C212.141,130.078,209.555,128.556,208.719,130.3L208.719,130.3z"/>
		</g>
	</g>
	<g>
		<g>
			<path fill="#212121" d="M177.922,156.426c-0.496-5.002-0.965-10.037,1.391-14.669c0.875-1.72-1.713-3.239-2.59-1.514
				c-2.629,5.168-2.358,10.563-1.801,16.183C175.111,158.332,178.113,158.351,177.922,156.426L177.922,156.426z"/>
		</g>
	</g>
</g>
<g id="Mouth_1_">
	<g id="Mouth">
		<g>
			<path fill="#FFFFFF" d="M117.982,211.446c2.601-12.998,29.898-19.498,40.948-20.149c18.199-1.949,40.297-1.299,42.897,21.451
				c1.95,18.198-18.849,22.098-33.147,20.798c-17.55-1.301-26.649-13-42.249-19.499c-1.95-1.299-3.899-1.951-6.5-2.601"/>
			<g>
				<path fill="#212121" d="M119.429,211.845c1.777-7.297,9.895-11.107,16.258-13.657c6.63-2.656,13.798-4.364,20.886-5.188
					c13.736-1.598,33.207-3.175,41.144,10.883c4.32,7.65,3.849,17.841-3.519,23.244c-6.21,4.556-14.929,5.297-22.363,5.115
					c-20.229-0.492-32.901-17.3-51.503-22.241c-1.872-0.497-2.666,2.396-0.798,2.893c11.05,2.936,20.336,10.768,30.183,16.261
					c8.886,4.957,18.681,6.678,28.764,5.923c7.703-0.577,15.998-2.903,21.191-8.959c5.433-6.335,4.228-15.641,1.143-22.729
					c-7.183-16.505-29.651-14.87-44.242-13.389c-8.314,0.845-16.555,3.107-24.24,6.352c-6.573,2.774-13.992,7.285-15.796,14.697
					C116.078,212.927,118.971,213.725,119.429,211.845L119.429,211.845z"/>
			</g>
		</g>
		<g>
			<g>
				<path fill="#212121" d="M120.787,211.747c4.382-1.405,8.518-4.524,13.188-4.713c3.389-0.136,4.747,2.62,6.935,4.719
					c0.676,0.648,1.889,0.567,2.356-0.304c2.09-3.898,4.728-7.337,7.613-10.683c-0.606,0.078-1.212,0.156-1.817,0.234
					c3.312,2.167,5.297,5.543,7.937,8.397c0.617,0.668,1.949,0.561,2.355-0.304c1.925-4.09,4.118-7.731,7.613-10.683
					c-0.785-0.102-1.57-0.202-2.355-0.304c2.424,3.433,4.299,7.199,6.906,10.505c0.642,0.813,1.863,0.41,2.355-0.304
					c2.376-3.445,5.076-6.528,8.006-9.506c-0.707,0-1.414,0-2.121,0c2.976,2.913,4.508,6.679,6.437,10.291
					c0.406,0.762,1.34,0.884,2.052,0.538c3.35-1.622,5.285-4.643,7.759-7.298c1.316-1.413-0.8-3.539-2.121-2.121
					c-2.275,2.442-4.063,5.333-7.151,6.829c0.684,0.179,1.368,0.358,2.052,0.538c-2.058-3.855-3.738-7.798-6.905-10.898
					c-0.58-0.568-1.544-0.587-2.121,0c-3.107,3.158-5.959,6.465-8.475,10.113c0.785-0.102,1.57-0.202,2.355-0.304
					c-2.443-3.098-4.165-6.68-6.438-9.897c-0.588-0.833-1.575-0.963-2.355-0.304c-3.671,3.1-6.051,6.973-8.082,11.29
					c0.785-0.102,1.57-0.202,2.355-0.304c-2.839-3.069-4.99-6.542-8.544-8.866c-0.53-0.348-1.397-0.253-1.817,0.234
					c-3.047,3.532-5.873,7.166-8.083,11.29c0.786-0.102,1.571-0.203,2.356-0.304c-2.098-2.012-3.817-5.089-6.965-5.461
					c-5.967-0.705-10.627,2.936-16.077,4.684C118.155,209.442,118.939,212.34,120.787,211.747L120.787,211.747z"/>
			</g>
		</g>
		<g>
			<g>
				<path fill="#212121" d="M146.563,225.095c2.18-2.334,4.038-4.92,6.395-7.092c2.981-2.748,6.104,3.422,7.73,5.61
					c0.459,0.618,1.323,1.037,2.052,0.538c3.065-2.096,5.545-4.766,8.315-7.21c4.962-4.378,7.988,2.279,11.535,4.813
					c1.438,1.027,2.871,1.09,4.491,0.375c3.94-1.74,6.88-5.652,10.727-1.743c1.358,1.381,3.479-0.741,2.121-2.121
					c-1.753-1.782-4.251-4.343-7.008-2.914c-1.899,0.984-3.553,2.34-5.477,3.308c-2.805,1.41-3.29,0.604-5.281-1.578
					c-2.681-2.938-5.797-5.499-9.947-4.303c-4.269,1.23-7.426,6.347-10.99,8.784c0.684,0.179,1.368,0.358,2.052,0.538
					c-1.542-2.076-4.925-8.358-7.966-8.198c-4.918,0.26-7.859,5.849-10.87,9.072C143.123,224.386,145.24,226.512,146.563,225.095
					L146.563,225.095z"/>
			</g>
		</g>
		<g>
			<g>
				<path fill="#212121" d="M125.097,212.192c4.107-0.069,7.948-0.545,11.745-2.167c1.167-0.498,0.866-2.536-0.358-2.741
					c-3.651-0.611-6.791-0.159-9.308,2.74c-0.713,0.821-0.496,2.212,0.662,2.507c3.894,0.992,8.682,2.373,11.662-1.17
					c0.832-0.988,0.317-2.52-1.061-2.561c-3.476-0.103-5.577,1.578-7.574,4.274c-0.569,0.769,0.02,2.002,0.896,2.203
					c0.941,0.216,1.806,0.568,2.747,0.784c0-0.964,0-1.929,0-2.893c-1.005-0.424-2.01-0.848-3.015-1.271
					c-0.565,0.734-1.129,1.469-1.694,2.203c5.437,0.915,14.209,13.062,18.568,4.019c0.522-1.084-0.126-2.139-1.295-2.257
					c-3.361-0.34-6.892-0.358-8.907-3.573c-0.18,0.684-0.359,1.368-0.539,2.052c3.766-1.643,8.146,1.469,11.793,2.114
					c-0.221-0.836-0.441-1.671-0.662-2.507c-0.785,0.653-1.57,1.308-2.354,1.961c0.785,0.605,1.57,1.212,2.356,1.817
					c2.688-4.466-4.379-3.961-6.789-4.218c-1.923-0.204-1.903,2.798,0,3c1.112,0.118,3.604,0.691,4.198-0.296
					c-0.928,1.543,1.103,2.861,2.356,1.817c0.785-0.653,1.57-1.308,2.354-1.961c0.832-0.692,0.409-2.317-0.662-2.507
					c-4.972-0.88-9.072-4.007-14.105-1.812c-0.735,0.32-0.935,1.42-0.539,2.052c2.633,4.198,6.93,4.598,11.498,5.06
					c-0.432-0.752-0.863-1.505-1.295-2.257c-2.38,4.938-11.481-4.775-15.179-5.397c-1.242-0.209-2.411,0.977-1.694,2.203
					c1.573,2.694,3.385,3.46,6.403,2.65c1.4-0.375,1.468-2.556,0-2.893c-0.941-0.216-1.806-0.568-2.747-0.784
					c0.299,0.734,0.598,1.469,0.896,2.203c1.078-2.005,2.739-2.935,4.983-2.788c-0.354-0.854-0.707-1.707-1.061-2.561
					c-2.193,2.607-5.992,1.099-8.743,0.398c0.221,0.836,0.441,1.671,0.662,2.507c1.673-2.047,3.803-2.703,6.389-1.969
					c-0.119-0.914-0.239-1.827-0.358-2.741c-3.281,1.401-6.703,1.697-10.23,1.757C123.164,209.225,123.161,212.225,125.097,212.192
					L125.097,212.192z"/>
			</g>
		</g>
		<g>
			<g>
				<path fill="#212121" d="M145.384,216.606c-0.732,1.483-1.37,2.974-2.354,4.316c-0.484,0.661-0.112,1.671,0.538,2.052
					c0.761,0.446,1.57,0.12,2.053-0.538c0.984-1.343,1.622-2.832,2.354-4.316C148.827,216.392,146.24,214.871,145.384,216.606
					L145.384,216.606z"/>
			</g>
		</g>
		<g>
			<g>
				<path fill="#212121" d="M143.815,214.499c2.84-3.083,4.868-6.72,7.298-10.113c-0.914-0.119-1.828-0.238-2.741-0.358
					c0.516,3.217-3.385,6.041-4.95,8.654c-0.733,1.223,0.795,2.964,2.053,2.052c3.222-2.336,5.038-5.254,6.815-8.778
					c-0.932-0.252-1.863-0.505-2.795-0.757c0.33,2.886,0.25,5.454-0.73,8.235c0.964,0,1.928,0,2.893,0
					c-0.597-2.408-0.071-4.538,1.575-6.39c-0.854-0.354-1.707-0.707-2.561-1.061c0.297,2.489,0.387,4.95,0.393,7.455c1,0,2,0,3,0
					c-0.204-1.96,0.09-3.632,0.731-5.487c-0.914,0.12-1.827,0.239-2.741,0.358c1.058,2.158,1.422,4.368,1.811,6.705
					c0.267,1.602,2.438,1.249,2.893,0c0.768-2.107,1.131-4.058,1.23-6.284c-0.932,0.252-1.863,0.505-2.795,0.757
					c1.156,2.498,2.478,4.878,3.381,7.489c0.577,1.669,2.758,1.264,2.946-0.398c0.342-3.008,0.389-6,0.394-9.025
					c0.003-1.943-2.912-1.923-3,0c-0.193,4.219,0.918,7.896,2.559,11.745c0.601,1.409,2.837,0.65,2.795-0.757
					c-0.143-4.753-2.937-12.941,1.13-16.598c-0.836-0.221-1.671-0.441-2.507-0.662c1.22,5.06-0.94,10.181-0.839,15.297
					c0.027,1.355,1.591,1.922,2.561,1.061c0.292-0.184,0.583-0.367,0.874-0.551c-0.752-0.432-1.505-0.863-2.257-1.295
					c0,0.654,0,1.309,0,1.963c0,1.443,2.098,2.114,2.795,0.757c2.759-5.366,2.914-10.944,2.167-16.846
					c-0.932,0.252-1.863,0.505-2.795,0.757c1.816,3.775,3.388,7.657,1.812,11.794c0.982,0.133,1.964,0.266,2.946,0.398
					c0.259-2.146,1.158-3.885,2.698-5.218c-0.854-0.354-1.707-0.707-2.561-1.061c-0.091,1.339,0.092,2.585,0,3.924
					c-0.09,1.31,1.699,1.982,2.561,1.061c1.776-1.898,2.604-3.568,2.794-6.161c-1,0-2,0-3,0c0.094,2.021,0.383,3.923,0.839,5.893
					c0.338,1.463,2.522,1.406,2.893,0c0.69-2.617,0.827-5.154,0.839-7.855c-0.982,0.133-1.964,0.266-2.946,0.398
					c0.816,3.041,1.842,6.013,2.747,9.026c0.484,1.612,2.948,1.319,2.946-0.398c-0.004-3.283-0.055-6.543-0.393-9.811
					c-0.982,0.133-1.964,0.266-2.946,0.398c1.206,3.628,2.329,7.248,3.139,10.987c0.964-0.266,1.929-0.531,2.893-0.797
					c-1.238-4.204-2.027-9.431-0.784-13.722c-0.914,0.12-1.827,0.239-2.741,0.358c2.928,5.253,1.049,11.756,3.532,17.265
					c0.515,1.143,2.543,0.888,2.741-0.358c0.726-4.552,0.407-8.908-0.785-13.353c-0.914,0.385-1.827,0.771-2.741,1.155
					c2.105,3.908,3.491,7.287,3.326,11.799c-0.04,1.084,1.325,1.941,2.257,1.295c1.91-1.323,3.031-2.459,2.901-4.876
					c-0.139-2.586-0.248-4.082,1.743-6.047c1.369-1.352,2.95-2.434,4.292-3.83c-0.785-0.102-1.57-0.202-2.355-0.304
					c0.785,1.307,1.556,2.62,2.305,3.948c0.297,0.526,3.502,6.77,1.811,6.38c-3.182-0.731-4.963-2.421-8.286-0.999
					c-1.568,0.67-0.442,3.275,1.155,2.741c2.115-0.707,4.069-0.984,6.272-0.731c1.417,0.163,1.824-1.69,1.061-2.561
					c-2.667-3.04-5.864-3.486-9.699-2.74c-1.65,0.32-1.286,3.121,0.398,2.946c4.19-0.435,7.745-0.845,7.778-5.817
					c-0.932,0.252-1.863,0.505-2.795,0.757c0.632,1.469,1.19,2.913,1.962,4.317c0.785-0.605,1.57-1.212,2.355-1.817
					c-2.455-2.667-4.965-4.157-8.522-2.74c-1.775,0.707-1.002,3.609,0.797,2.893c2.496-0.475,4.364,0.182,5.604,1.969
					c1.185,1.287,3.158-0.355,2.355-1.817c-0.764-1.393-1.335-2.861-1.962-4.317c-0.618-1.437-2.785-0.626-2.795,0.757
					c-0.021,3.061-2.792,2.611-4.778,2.817c0.133,0.982,0.266,1.964,0.398,2.946c2.777-0.54,4.861-0.219,6.781,1.969
					c0.354-0.854,0.707-1.707,1.061-2.561c-2.477-0.284-4.72,0.053-7.069,0.839c0.385,0.914,0.771,1.827,1.155,2.741
					c3.939-1.685,8.262,4.731,10.5-1.29c1.238-3.331-3.688-9.538-5.253-12.143c-0.489-0.815-1.677-1.01-2.355-0.304
					c-2.055,2.138-4.478,3.765-6.289,6.131c-1.718,2.245,0.244,6.57-2.04,8.153c0.752,0.432,1.505,0.863,2.257,1.295
					c0.183-4.99-1.402-8.982-3.736-13.313c-0.818-1.521-3.177-0.469-2.741,1.155c1.046,3.9,1.423,7.756,0.785,11.759
					c0.914-0.12,1.827-0.239,2.741-0.358c-2.492-5.529-0.513-11.848-3.532-17.265c-0.644-1.155-2.388-0.864-2.741,0.358
					c-1.393,4.808-0.61,10.583,0.784,15.315c0.549,1.864,3.3,1.086,2.893-0.797c-0.809-3.739-1.933-7.36-3.139-10.987
					c-0.507-1.524-3.129-1.364-2.946,0.398c0.338,3.268,0.389,6.527,0.393,9.811c0.982-0.133,1.964-0.266,2.946-0.398
					c-0.904-3.015-1.93-5.986-2.747-9.026c-0.442-1.646-2.939-1.294-2.946,0.398c-0.011,2.406-0.114,4.717-0.731,7.059
					c0.964,0,1.929,0,2.893,0c-0.392-1.693-0.651-3.36-0.731-5.096c-0.09-1.945-2.859-1.919-3,0c-0.02,1.666-0.657,3.013-1.915,4.04
					c0.854,0.354,1.707,0.707,2.561,1.061c0.092-1.339-0.091-2.585,0-3.924c0.089-1.314-1.695-1.976-2.561-1.061
					c-2.12,2.24-3.607,4.178-3.577,7.339c0.017,1.781,2.364,1.927,2.946,0.398c1.864-4.892,0.044-9.62-2.114-14.104
					c-0.623-1.297-2.982-0.724-2.795,0.757c0.672,5.302,0.752,10.451-1.757,15.332c0.932,0.252,1.863,0.505,2.795,0.757
					c0-0.654,0-1.309,0-1.963c0-1.171-1.265-1.824-2.257-1.295c-0.623,0.332-0.968,0.563-1.481,1.02
					c0.854,0.354,1.707,0.707,2.561,1.061c-0.108-5.465,2.043-10.657,0.731-16.094c-0.277-1.151-1.702-1.386-2.507-0.662
					c-5.065,4.555-2.185,12.884-2.009,18.719c0.932-0.252,1.863-0.505,2.795-0.757c-1.446-3.395-2.319-6.505-2.148-10.231
					c-1,0-2,0-3,0c-0.005,3.025-0.052,6.018-0.394,9.025c0.982-0.133,1.964-0.266,2.946-0.398c-0.986-2.854-2.417-5.472-3.684-8.206
					c-0.668-1.444-2.733-0.615-2.795,0.757c-0.095,2.105-0.425,3.568-1.123,5.487c0.964,0,1.929,0,2.893,0
					c-0.436-2.615-0.943-5.036-2.113-7.422c-0.614-1.255-2.352-0.769-2.741,0.358c-0.756,2.184-1.079,3.979-0.839,6.284
					c0.196,1.883,3.004,1.974,3,0c-0.006-2.505-0.096-4.966-0.393-7.455c-0.135-1.133-1.626-2.198-2.561-1.061
					c-2.32,2.824-3.022,5.72-2.347,9.308c0.297,1.576,2.442,1.279,2.893,0c1.06-3.005,1.199-5.871,0.838-9.032
					c-0.152-1.336-2.052-2.229-2.795-0.757c-1.499,2.971-2.965,5.69-5.74,7.702c0.685,0.684,1.369,1.368,2.053,2.052
					c2.219-3.704,6.009-6.248,5.252-10.965c-0.228-1.421-2.079-1.284-2.742-0.358c-2.277,3.18-4.167,6.615-6.829,9.506
					C140.386,213.798,142.502,215.925,143.815,214.499L143.815,214.499z"/>
			</g>
		</g>
		<g>
			<g>
				<path fill="#212121" d="M145.475,216.305c2.925-1.742,6.056-2.492,9.445-2.543c1.933-0.029,1.936-3.029,0-3
					c-3.9,0.059-7.594,0.948-10.96,2.953C142.3,214.703,143.808,217.298,145.475,216.305L145.475,216.305z"/>
			</g>
		</g>
		<g>
			<g>
				<path fill="#212121" d="M149.419,204.684c1.377,0.362,2.624,0.975,3.655,1.969c1.393,1.343,3.517-0.776,2.121-2.121
					c-1.396-1.346-3.109-2.248-4.978-2.74C148.344,201.298,147.55,204.191,149.419,204.684L149.419,204.684z"/>
			</g>
		</g>
		<g>
			<g>
				<path fill="#212121" d="M149.544,220.082c1.546-2.318,3.128-4.541,5.258-6.366c1.472-1.261-0.66-3.372-2.121-2.121
					c-2.315,1.982-4.048,4.454-5.728,6.974C145.877,220.183,148.477,221.683,149.544,220.082L149.544,220.082z"/>
			</g>
		</g>
		<g>
			<g>
				<path fill="#212121" d="M128.375,208.75c1.935,0,1.935-3,0-3S126.44,208.75,128.375,208.75L128.375,208.75z"/>
			</g>
		</g>
		<g>
			<g>
				<path fill="#212121" d="M123.524,212.446c3.398-0.693,6.417-2.461,9.756-3.361c2.273-0.49,4.035,0.168,5.284,1.976
					c0.489,0.994,1.306,1.505,2.449,1.532c-0.272-1.056-0.396-1.446-0.974-2.492c-2.774-5.017-10.019-1.263-13.421,0.479
					c-0.854,0.437-0.978,1.714-0.304,2.355c2.146,2.046,5.489,2.196,8.292,2.504c4.972,0.548,9.899,0.991,14.894,0.436
					c1.9-0.212,1.921-3.214,0-3c-4.1,0.456-8.041,0.224-12.129-0.188c-2.631-0.266-6.886,0.081-8.935-1.872
					c-0.101,0.785-0.202,1.57-0.304,2.355c2.454-1.256,8.972-5.145,9.988,0.221c0.187,0.985,0.605,2.044,1.513,2.576
					c1.742,1.02,4.01-1.584,3.371-3.281c-1.229-3.264-3.831-6.042-7.333-6.688c-4.375-0.808-8.811,2.713-12.944,3.557
					C120.832,209.94,121.635,212.832,123.524,212.446L123.524,212.446z"/>
			</g>
		</g>
		<g>
			<g>
				<path fill="#212121" d="M153.118,208.045c2.093,1.606,4.109,3.107,6.608,4.026c1.819,0.67,2.597-2.23,0.797-2.893
					c-2.217-0.815-4.039-2.302-5.892-3.724C153.097,204.276,151.605,206.885,153.118,208.045L153.118,208.045z"/>
			</g>
		</g>
		<g>
			<g>
				<path fill="#212121" d="M153.852,214.446c1.966,0.526,3.964,1.528,5.337,3.058c1.073,1.195,1.675,2.7,2.876,3.807
					c1.42,1.308,3.547-0.809,2.121-2.121c-1.429-1.315-2.177-3.188-3.589-4.543c-1.569-1.507-3.872-2.537-5.948-3.093
					C152.777,211.053,151.984,213.946,153.852,214.446L153.852,214.446z"/>
			</g>
		</g>
		<g>
			<g>
				<path fill="#212121" d="M163.955,200.757c1.281,2.287,3.252,4.012,4.658,6.205c2.174,3.393,0.666,6.28-2.62,7.743
					c-1.765,0.785-0.237,3.369,1.514,2.59c3.103-1.38,5.034-3.385,5.071-6.893c0.051-4.838-3.894-7.343-6.033-11.159
					C165.6,197.556,163.008,199.067,163.955,200.757L163.955,200.757z"/>
			</g>
		</g>
		<g>
			<g>
				<path fill="#212121" d="M177.625,204.5c3.28,0.438,5.478,1.293,7.432,3.873c1.577,2.081-0.016,4.01-0.928,5.827
					c-1.021,2.035-1.274,3.957-0.049,5.932c0.409,0.66,1.361,1.005,2.052,0.538c1.952-1.318,4.051-2.348,5.778-3.977
					c1.9-1.793,0.252-3.793,0.911-5.795c1.776-5.392,3.329-1.116,4.247,1.803c0.578,1.84,0.925,3.77,1.61,5.572
					c0.68,1.79,3.581,1.015,2.893-0.797c-1.439-3.789-1.717-11.375-6.288-12.905c-2.174-0.729-3.97,2.124-4.62,3.687
					c-0.664,1.594-1.266,2.863-1,4.578c0.439,2.842-3.267,4.042-5.045,5.244c0.684,0.179,1.368,0.358,2.052,0.538
					c-1.965-3.166,3.754-7.027,1.544-10.793c-2.608-4.445-5.698-5.672-10.589-6.325C175.712,201.244,175.736,204.248,177.625,204.5
					L177.625,204.5z"/>
			</g>
		</g>
		<g>
			<g>
				<path fill="#212121" d="M194.705,203.007c0.861,1.797,2.081,3.396,3.25,5c0.48,0.659,1.293,0.983,2.052,0.538
					c0.652-0.382,1.021-1.39,0.538-2.052c-1.168-1.604-2.388-3.203-3.25-5C196.459,199.749,193.873,201.271,194.705,203.007
					L194.705,203.007z"/>
			</g>
		</g>
		<g>
			<g>
				<path fill="#212121" d="M197.625,218.5c0.184,1.439,0.743,2.741,1.054,4.148c0.416,1.89,3.308,1.088,2.893-0.797
					c-0.247-1.125-0.801-2.208-0.946-3.352c-0.104-0.811-0.604-1.5-1.5-1.5C198.386,217,197.521,217.687,197.625,218.5
					L197.625,218.5z"/>
			</g>
		</g>
		<g>
			<g>
				<path fill="#212121" d="M173.314,214.561c1.764,1.938,3.827,3.498,5.917,5.063c1.418,1.06,3.224,3.082,5.164,3.155
					c3.731,0.143,5.064-4.223,7.54-6.218c1.507-1.214-0.63-3.323-2.121-2.121c-1.826,1.472-2.738,3.875-4.63,5.224
					c-1.497,1.067-8.771-6.15-9.749-7.224C174.131,211.006,172.016,213.134,173.314,214.561L173.314,214.561z"/>
			</g>
		</g>
	</g>
</g>
</svg>
