<?xml version="1.0" encoding="iso-8859-1"?>
<!-- Generator: Adobe Illustrator 19.0.0, SVG Export Plug-In . SVG Version: 6.00 Build 0)  -->
<svg version="1.1" id="Layer_1" xmlns="http://www.w3.org/2000/svg" xmlns:xlink="http://www.w3.org/1999/xlink" x="0px" y="0px"
	 viewBox="0 0 512 512" style="enable-background:new 0 0 512 512;" xml:space="preserve">
<path style="fill:#A9A8AE;" d="M256,32.821c-10.875,0-19.692,8.817-19.692,19.692v406.973c0,10.875,8.817,19.692,19.692,19.692
	s19.692-8.817,19.692-19.692V52.513C275.692,41.638,266.875,32.821,256,32.821z"/>
<g>
	<path style="fill:#9BC9FF;" d="M413.538,32.821c-32.575,0-59.077,26.502-59.077,59.077s26.502,59.077,59.077,59.077
		c32.574,0,59.077-26.503,59.077-59.077S446.112,32.821,413.538,32.821z"/>
	<path style="fill:#9BC9FF;" d="M413.538,190.36c-54.293,0-98.462,44.171-98.462,98.462v65.641c0,10.877,8.817,19.692,19.692,19.692
		h19.692v85.332c0,10.875,8.817,19.692,19.692,19.692h39.385h39.385c10.875,0,19.692-8.817,19.692-19.692v-85.332h19.692
		c10.875,0,19.692-8.816,19.692-19.692v-65.641C512,234.531,467.83,190.36,413.538,190.36z"/>
</g>
<g>
	<path style="fill:#FF6243;" d="M98.461,32.821c-32.575,0-59.077,26.502-59.077,59.077s26.502,59.077,59.077,59.077
		c32.574,0,59.077-26.503,59.077-59.077S131.035,32.821,98.461,32.821z"/>
	<path style="fill:#FF6243;" d="M192.984,342.647l-35.446-47.262v-45.949c0-32.575-26.503-59.077-59.077-59.077
		c-32.575,0-59.077,26.503-59.077,59.077v45.949L3.938,342.647c-4.475,5.967-5.195,13.951-1.859,20.622
		c3.336,6.673,10.153,10.886,17.613,10.886h19.692v85.332c0,10.875,8.817,19.692,19.692,19.692h39.385h39.385
		c10.875,0,19.692-8.817,19.692-19.692v-85.332h19.692c7.459,0,14.277-4.213,17.613-10.886
		C198.179,356.598,197.46,348.614,192.984,342.647z"/>
</g>
<g>
	<path style="fill:#57A4FF;" d="M354.461,91.898c0,32.575,26.502,59.077,59.077,59.077V32.821
		C380.963,32.821,354.461,59.324,354.461,91.898z"/>
	<path style="fill:#57A4FF;" d="M315.077,288.821v65.641c0,10.877,8.817,19.692,19.692,19.692h19.692v85.332
		c0,10.875,8.817,19.692,19.692,19.692h39.385V190.36C359.245,190.36,315.077,234.531,315.077,288.821z"/>
</g>
<g>
	<path style="fill:#FF0C38;" d="M39.384,91.898c0,32.575,26.502,59.077,59.077,59.077V32.821
		C65.886,32.821,39.384,59.324,39.384,91.898z"/>
	<path style="fill:#FF0C38;" d="M39.384,249.436v45.949L3.938,342.647c-4.475,5.967-5.195,13.951-1.859,20.622
		c3.336,6.673,10.153,10.886,17.613,10.886h19.692v85.332c0,10.875,8.817,19.692,19.692,19.692h39.385V190.36
		C65.886,190.36,39.384,216.863,39.384,249.436z"/>
</g>
<g>
</g>
<g>
</g>
<g>
</g>
<g>
</g>
<g>
</g>
<g>
</g>
<g>
</g>
<g>
</g>
<g>
</g>
<g>
</g>
<g>
</g>
<g>
</g>
<g>
</g>
<g>
</g>
<g>
</g>
</svg>
