<?xml version="1.0" encoding="utf-8"?>
<!-- Generator: Adobe Illustrator 16.0.3, SVG Export Plug-In . SVG Version: 6.00 Build 0)  -->
<!DOCTYPE svg PUBLIC "-//W3C//DTD SVG 1.1//EN" "http://www.w3.org/Graphics/SVG/1.1/DTD/svg11.dtd">
<svg version="1.1" id="Layer_1" xmlns="http://www.w3.org/2000/svg" xmlns:xlink="http://www.w3.org/1999/xlink" x="0px" y="0px"
	 width="133px" height="133px" viewBox="0 0 133 133" enable-background="new 0 0 133 133" xml:space="preserve">
<ellipse fill="#212121" cx="67.561" cy="96.576" rx="23.894" ry="23.835"/>
<path id="Face_2_" fill="#FFCB32" d="M67.737,126.82c12.74-1.233,18.926-15.318,20.689-24.069c0.559-1.729,0.861-3.618,0.861-5.511
	c0-0.061-0.002,0.398-0.002,0.34c0-0.02,0.002,0.42,0.002,0.42h-0.004c-0.123-11-9.725-19.665-21.551-19.665
	c-11.908,0-21.559,8.472-21.559,19.199c0,1.942,0.318,3.704,0.906,5.472C48.866,111.785,53.005,125.038,67.737,126.82"/>
<g>
	<path fill="#212121" d="M46.005,95.843c0,0,14.297-2.018,21.291-7.322c0,0,1.791,3.212,6.605,3.959c0,0-3.498-1.942-4.354-4.78
		c0,0,12.045,7.77,20.047,8.144c0,0,2.643-22.119-22.145-21.445C42.665,75.069,46.005,95.843,46.005,95.843z"/>
	<path fill="#263238" d="M84.337,92.867c0,0-7.783-1.19-12.215-6.703"/>
	<path fill="#263238" d="M71.196,91.349c0,0-3.674-2.051-5.133-6.403"/>
	<path fill="#263238" d="M54.274,92.211c0,0,7.012,0.518,9.273-5.562"/>
	<path fill="#263238" d="M72.772,82.663c0,0,10.453,8.441,15.299,6.686"/>
	<path fill="#263238" d="M47.562,92.222c0,0,11.484-5.889,14.73-12.781"/>
</g>
<path fill="#FFFFFF" stroke="#B5B5B5" stroke-linecap="round" stroke-linejoin="round" stroke-miterlimit="10" d="M92.786,59.515
	c-1.799-4.48-5.055-7.681-10.125-7.681c-1.119,0-2.123,0.192-3.117,0.542c-1.539-4.882-6.252-8.439-11.871-8.439
	c-5.668,0-10.43,3.619-11.926,8.567c-1.086-0.432-2.268-0.67-3.516-0.67c-5.07,0-8.563,3.236-10.471,7.681
	c-2.236,5.216,0.727,11.363,5.578,11.449l-0.24,13.897c0,0.377,1.188,0.639,1.617,0.639h38.152c0.43,0,0.775-0.229,1.309-0.639
	l-0.414-13.859C92.612,69.723,94.522,63.841,92.786,59.515z"/>
<line fill="#FFFFFF" stroke="#B5B5B5" stroke-width="2" stroke-linecap="round" stroke-linejoin="round" stroke-miterlimit="10" x1="47.364" y1="78.566" x2="87.886" y2="78.566"/>
<g>
	<path fill="none" stroke="#FFCB32" stroke-miterlimit="10" d="M73.47,31.41v-2.722c2.777-1.468,4.67-5.891,4.67-9.248
		c0-4.835-3.918-8.753-8.752-8.753s-8.752,3.918-8.752,8.753c0,3.358,1.945,7.834,4.721,9.3l-0.051,2.67"/>
	<line fill="none" stroke="#FFCB32" stroke-miterlimit="10" x1="65.356" y1="32.716" x2="73.419" y2="31.436"/>
	<line fill="none" stroke="#FFCB32" stroke-miterlimit="10" x1="65.356" y1="34.046" x2="73.419" y2="32.768"/>
	<line fill="none" stroke="#FFCB32" stroke-miterlimit="10" x1="65.356" y1="35.377" x2="73.419" y2="34.098"/>
	<path fill="none" stroke="#FFCB32" stroke-miterlimit="10" d="M66.892,35.899c0,0,2.08,2.246,5.076,0"/>
	<line fill="none" stroke="#FFCB32" stroke-miterlimit="10" x1="68.567" y1="28.7" x2="66.938" y2="24.682"/>
	<line fill="none" stroke="#FFCB32" stroke-miterlimit="10" x1="70.54" y1="28.7" x2="72.171" y2="24.682"/>
	<path fill="none" stroke="#FFCB32" stroke-miterlimit="10" d="M67.394,24.388c0.262-0.331,0.658-0.227,1.002-0.057
		c0.541,0.267,0.48,0.169,1.021-0.033c0.48-0.182,0.666,0.279,1.117,0.171c0.307-0.074,0.773-0.617,1.092-0.171"/>
	<line fill="none" stroke="#FFCB32" stroke-miterlimit="10" x1="69.388" y1="9.19" x2="69.388" y2="6.279"/>
	<line fill="none" stroke="#FFCB32" stroke-miterlimit="10" x1="61.202" y1="12.583" x2="59.142" y2="10.523"/>
	<line fill="none" stroke="#FFCB32" stroke-miterlimit="10" x1="58.81" y1="20.769" x2="55.897" y2="20.769"/>
	<line fill="none" stroke="#FFCB32" stroke-miterlimit="10" x1="79.966" y1="20.769" x2="82.88" y2="20.768"/>
	<line fill="none" stroke="#FFCB32" stroke-miterlimit="10" x1="77.573" y1="12.583" x2="79.634" y2="10.522"/>
</g>
<g>
	<path fill="none" stroke="#FFCB32" stroke-miterlimit="10" d="M102.534,44.62v-2.017c2.061-1.089,3.463-4.367,3.463-6.856
		c0-3.583-2.904-6.487-6.486-6.487c-3.584,0-6.488,2.904-6.488,6.487c0,2.49,1.441,5.808,3.498,6.895l-0.037,1.979"/>
	<line fill="none" stroke="#FFCB32" stroke-miterlimit="10" x1="96.521" y1="45.588" x2="102.499" y2="44.64"/>
	<line fill="none" stroke="#FFCB32" stroke-miterlimit="10" x1="96.521" y1="46.575" x2="102.499" y2="45.627"/>
	<line fill="none" stroke="#FFCB32" stroke-miterlimit="10" x1="96.521" y1="47.561" x2="102.499" y2="46.612"/>
	<path fill="none" stroke="#FFCB32" stroke-miterlimit="10" d="M97.659,47.949c0,0,1.543,1.664,3.764,0"/>
	<line fill="none" stroke="#FFCB32" stroke-miterlimit="10" x1="98.903" y1="42.612" x2="97.694" y2="39.632"/>
	<line fill="none" stroke="#FFCB32" stroke-miterlimit="10" x1="100.364" y1="42.612" x2="101.573" y2="39.632"/>
	<path fill="none" stroke="#FFCB32" stroke-miterlimit="10" d="M98.03,39.414c0.195-0.245,0.488-0.168,0.744-0.041
		c0.4,0.197,0.355,0.124,0.758-0.025c0.355-0.135,0.494,0.207,0.828,0.127c0.227-0.056,0.572-0.458,0.809-0.127"/>
	<line fill="none" stroke="#FFCB32" stroke-miterlimit="10" x1="99.511" y1="28.149" x2="99.511" y2="25.991"/>
	<line fill="none" stroke="#FFCB32" stroke-miterlimit="10" x1="93.442" y1="30.664" x2="91.915" y2="29.138"/>
	<line fill="none" stroke="#FFCB32" stroke-miterlimit="10" x1="91.669" y1="36.731" x2="89.509" y2="36.731"/>
	<line fill="none" stroke="#FFCB32" stroke-miterlimit="10" x1="107.351" y1="36.731" x2="109.511" y2="36.731"/>
	<line fill="none" stroke="#FFCB32" stroke-miterlimit="10" x1="105.577" y1="30.664" x2="107.104" y2="29.137"/>
</g>
<g>
	<path fill="none" stroke="#FFCB32" stroke-miterlimit="10" d="M39.823,44.62v-2.017c2.061-1.089,3.463-4.367,3.463-6.856
		c0-3.583-2.904-6.487-6.486-6.487c-3.584,0-6.488,2.904-6.488,6.487c0,2.49,1.441,5.808,3.498,6.895l-0.037,1.979"/>
	<line fill="none" stroke="#FFCB32" stroke-miterlimit="10" x1="33.81" y1="45.588" x2="39.788" y2="44.64"/>
	<line fill="none" stroke="#FFCB32" stroke-miterlimit="10" x1="33.81" y1="46.575" x2="39.788" y2="45.627"/>
	<line fill="none" stroke="#FFCB32" stroke-miterlimit="10" x1="33.81" y1="47.561" x2="39.788" y2="46.612"/>
	<path fill="none" stroke="#FFCB32" stroke-miterlimit="10" d="M34.948,47.949c0,0,1.543,1.664,3.764,0"/>
	<line fill="none" stroke="#FFCB32" stroke-miterlimit="10" x1="36.192" y1="42.612" x2="34.983" y2="39.632"/>
	<line fill="none" stroke="#FFCB32" stroke-miterlimit="10" x1="37.653" y1="42.612" x2="38.862" y2="39.632"/>
	<path fill="none" stroke="#FFCB32" stroke-miterlimit="10" d="M35.319,39.414c0.195-0.245,0.488-0.168,0.744-0.041
		c0.4,0.197,0.355,0.124,0.758-0.025c0.355-0.135,0.494,0.207,0.828,0.127c0.227-0.056,0.572-0.458,0.809-0.127"/>
	<line fill="none" stroke="#FFCB32" stroke-miterlimit="10" x1="36.8" y1="28.149" x2="36.8" y2="25.991"/>
	<line fill="none" stroke="#FFCB32" stroke-miterlimit="10" x1="30.731" y1="30.664" x2="29.204" y2="29.138"/>
	<line fill="none" stroke="#FFCB32" stroke-miterlimit="10" x1="28.958" y1="36.731" x2="26.798" y2="36.731"/>
	<line fill="none" stroke="#FFCB32" stroke-miterlimit="10" x1="44.64" y1="36.731" x2="46.8" y2="36.731"/>
	<line fill="none" stroke="#FFCB32" stroke-miterlimit="10" x1="42.866" y1="30.664" x2="44.394" y2="29.137"/>
</g>
</svg>
