<?xml version="1.0" encoding="utf-8"?>
<!-- Generator: Adobe Illustrator 16.0.3, SVG Export Plug-In . SVG Version: 6.00 Build 0)  -->
<!DOCTYPE svg PUBLIC "-//W3C//DTD SVG 1.1//EN" "http://www.w3.org/Graphics/SVG/1.1/DTD/svg11.dtd">
<svg version="1.1" id="Layer_1" xmlns="http://www.w3.org/2000/svg" xmlns:xlink="http://www.w3.org/1999/xlink" x="0px" y="0px"
	 width="133px" height="133px" viewBox="0 0 133 133" enable-background="new 0 0 133 133" xml:space="preserve">
<g>
	<g>
		<path fill="#F23B3B" d="M65.465,74.684c0,0,14.052,7.613,34.909-22.959c0,0,6.938-3.433,9.671,4.304
			c0,0-13.025,28.54-42.545,22.38C67.5,78.408,59.573,74.342,65.465,74.684z"/>
		<path fill="#5CC466" d="M104.399,54.155c0,0,3.521-1.37,5.172,0.728c0,0-1.707-5.597-7.898-3.621
			C101.673,51.262,105.049,52.095,104.399,54.155z"/>
		<g>
			<g>
				<path fill="#5CC466" d="M106.675,52.073c1.737-2.652,1.99-6.416-0.254-8.875c-0.653-0.716-1.711,0.348-1.061,1.061
					c1.8,1.973,1.37,4.995,0.02,7.058C104.848,52.127,106.147,52.878,106.675,52.073L106.675,52.073z"/>
			</g>
		</g>
	</g>
	<g>
		<g>
			<path fill="#FFCB32" d="M22.429,51.963l2.497-0.111l1.674,7.6c0,0,13.038,34.779,61.671,42.095l0.823,3.521
				c0,0-57.406,23.486-67.263-43.375L22.9,59.55L22.429,51.963z"/>
		</g>
		<g>
			<path opacity="0.1" d="M24.938,59.226l-1.182-7.322l-1.327,0.06L22.9,59.55l-1.069,2.143
				c9.856,66.861,67.263,43.375,67.263,43.375l-0.306-1.308C32.971,111.954,24.938,59.226,24.938,59.226z"/>
			
				<rect x="86.93" y="102.914" transform="matrix(0.2469 0.969 -0.969 0.2469 167.4126 -8.118)" fill="#515151" width="3.999" height="1.47"/>
		</g>
	</g>
	<path fill="#C4C4C4" d="M40.853,38.103c0,0,11.901-22.487,51.274-13.974c0,0-5.308,7.349,1.113,11.857
		C93.24,35.986,68.904,48.135,40.853,38.103z"/>
	<path fill="#C4C4C4" d="M91.858,23.891c0,0,9.711,1.823,16.147,6.297c0,0-4.698,5.426-14.74,6.032
		C93.266,36.22,84.043,31.648,91.858,23.891z"/>
	<path fill="#515151" d="M25.815,28.925c0,0,2.164,9.881,16.396,9.829C42.212,38.754,36.024,26.573,25.815,28.925z"/>
	<path fill="#515151" d="M42.212,38.02c0,0-0.148,10.116-14.102,12.907C28.11,50.927,31.739,37.756,42.212,38.02z"/>
	<g>
		<g>
			<path fill="#515151" d="M51.213,31.376c0,1.548,0.004,3.099,0.205,4.637c0.106,0.811,0.602,1.5,1.5,1.5
				c0.737,0,1.606-0.687,1.5-1.5c-0.201-1.538-0.205-3.088-0.205-4.637C54.212,29.441,51.212,29.441,51.213,31.376L51.213,31.376z"
				/>
		</g>
	</g>
	<g>
		<g>
			<path fill="#515151" d="M57.813,28.189c0,1.838,0.004,3.675,0.205,5.505c0.208,1.901,3.211,1.922,3,0
				c-0.201-1.83-0.205-3.667-0.205-5.505C60.813,26.255,57.813,26.255,57.813,28.189L57.813,28.189z"/>
		</g>
	</g>
	<g>
		<g>
			<path fill="#515151" d="M64.619,26.162c0,1.642,0,3.284,0,4.926c0,1.935,3,1.935,3,0c0-1.642,0-3.284,0-4.926
				C67.619,24.228,64.619,24.228,64.619,26.162L64.619,26.162z"/>
		</g>
	</g>
	<g>
		<g>
			<path fill="#515151" d="M71.63,25.002c0.203,1.537,0.207,3.088,0.207,4.636c0,1.935,3,1.935,3,0c0-1.548-0.004-3.099-0.207-4.636
				c-0.106-0.811-0.602-1.5-1.5-1.5C72.394,23.502,71.522,24.189,71.63,25.002L71.63,25.002z"/>
		</g>
	</g>
	<path fill="#515151" d="M73.13,35.79l9.847-2.332C82.977,33.458,77.793,45.635,73.13,35.79z"/>
	<circle fill="#515151" cx="95.096" cy="28.921" r="2.074"/>
	<path fill="none" stroke="#515151" stroke-width="0.75" stroke-miterlimit="10" d="M91.858,23.891c0,0-8.056,7.099,1.407,12.329"/>
</g>
</svg>
