<?xml version="1.0" encoding="utf-8"?>
<!-- Generator: Adobe Illustrator 16.0.3, SVG Export Plug-In . SVG Version: 6.00 Build 0)  -->
<!DOCTYPE svg PUBLIC "-//W3C//DTD SVG 1.1//EN" "http://www.w3.org/Graphics/SVG/1.1/DTD/svg11.dtd">
<svg version="1.1" id="Layer_1" xmlns="http://www.w3.org/2000/svg" xmlns:xlink="http://www.w3.org/1999/xlink" x="0px" y="0px"
	 width="133px" height="133px" viewBox="0 0 133 133" enable-background="new 0 0 133 133" xml:space="preserve">
<g>
	<g>
		<path fill="#C4C4C4" d="M59,14.7c10,12.461,15.531,24.079,13.511,72.196L59,87.186V14.7z"/>
		<path fill="#828282" d="M60,15.427c0,12.189,14.979,24.128,13.021,71.225L60,86.931V15 M59,13.979v73.462l14.001-0.3
			C75.107,37.46,69,26.373,59,13.979L59,13.979z"/>
	</g>
	<g>
		<path fill="#515151" d="M66.864,87C67.713,88,66,88.492,66,89.322v30.562c0,0.832,2.897,1.046,0.864,3.116h-5.42
			c-0.832,0-2.444-0.704-2.444-1.535V88.646C59,87.813,60.612,87,61.444,87H66.864z"/>
		<circle fill="#C4C4C4" cx="63.326" cy="113.591" r="1.28"/>
		<circle fill="#C4C4C4" cx="63.339" cy="105.344" r="1.28"/>
		<circle fill="#C4C4C4" cx="63.326" cy="97.272" r="1.28"/>
	</g>
</g>
<g>
	<g>
		<path fill="#C4C4C4" d="M36,44.068c2,2.589,7.232,16.395,7.876,42.949L36,87.186V44.068z"/>
		<path fill="#828282" d="M36,45.002c0,3.637,6.724,16.253,7.37,41.771L36,86.931V45 M36,43.459v43.982l8.382-0.18
			C43.711,58.167,37,44.414,36,43.459L36,43.459z"/>
	</g>
	<g>
		<path fill="#515151" d="M43.522,87C44.371,88,42,88.492,42,89.322v30.562c0,0.832,3.556,1.046,1.522,3.116h-5.42
			c-0.832,0-3.103-0.704-3.103-1.535V88.646C35,87.813,37.271,87,38.103,87H43.522z"/>
		<path fill="#C4C4C4" d="M39.986,112.311c0.706,0,1.277,0.573,1.277,1.279c0,0.707-0.571,1.281-1.277,1.281
			c-0.709,0-1.281-0.574-1.281-1.281C38.705,112.884,39.277,112.311,39.986,112.311z"/>
		<circle fill="#C4C4C4" cx="39.997" cy="105.344" r="1.28"/>
		<path fill="#C4C4C4" d="M39.986,95.992c0.706,0,1.277,0.573,1.277,1.279c0,0.707-0.571,1.28-1.277,1.28
			c-0.709,0-1.281-0.573-1.281-1.28C38.705,96.565,39.277,95.992,39.986,95.992z"/>
	</g>
</g>
<g>
	<g>
		<path fill="#C4C4C4" d="M85,88V14.117c0-0.25,0.038-6.114,7.848-6.114C93.235,8.003,94,8.018,94,8.049V88H85z"/>
		<path fill="#828282" d="M93,8v0.253c0,0,1,0.01,1,0.029V87h-9V14.119c0-0.24,1-5.865,8-5.865V8 M93.348,7.753
			c-8.166,0-8.348,6.364-8.348,6.364V88h10V7.817C94,7.774,93.812,7.753,93.348,7.753L93.348,7.753z"/>
	</g>
	<g>
		<path fill="#515151" d="M93.096,87C93.943,88,92,88.492,92,89.322v30.562c0,0.832,3.13,1.046,1.096,3.116h-5.42
			c-0.831,0-2.676-0.704-2.676-1.535V88.646C85,87.813,86.845,87,87.676,87H93.096z"/>
		<circle fill="#C4C4C4" cx="89.559" cy="113.591" r="1.28"/>
		<path fill="#C4C4C4" d="M89.571,104.064c0.706,0,1.277,0.572,1.277,1.28c0,0.706-0.571,1.279-1.277,1.279
			c-0.709,0-1.281-0.573-1.281-1.279C88.29,104.637,88.862,104.064,89.571,104.064z"/>
		<circle fill="#C4C4C4" cx="89.559" cy="97.272" r="1.28"/>
	</g>
</g>
</svg>
