<?xml version="1.0" encoding="utf-8"?>
<!-- Generator: Adobe Illustrator 16.0.3, SVG Export Plug-In . SVG Version: 6.00 Build 0)  -->
<!DOCTYPE svg PUBLIC "-//W3C//DTD SVG 1.1//EN" "http://www.w3.org/Graphics/SVG/1.1/DTD/svg11.dtd">
<svg version="1.1" id="Layer_1" xmlns="http://www.w3.org/2000/svg" xmlns:xlink="http://www.w3.org/1999/xlink" x="0px" y="0px"
	 width="133px" height="133px" viewBox="0 0 133 133" enable-background="new 0 0 133 133" xml:space="preserve">
<g>
	<path fill="#515151" d="M74,43.915v-0.213C74,41.056,71.823,39,69.579,39h-3.795C63.54,39,62,41.056,62,43.702v0.213
		C62,44.476,61.604,45,61.771,46h11.447C73.354,45,74,44.476,74,43.915z"/>
	<path fill="#C4C4C4" d="M87.483,46H73.159c0.021,0,0.039,0,0.059,0H61.771c0.023,0,0.045,0,0.07,0H47.452
		C39.575,50,24,48.702,24,53.752v0.076C24,53.916,23.612,54,23.614,55h87.709c0.002-1,0.677-1.084,0.677-1.172v-0.076
		C112,48.702,93.233,50,87.483,46z"/>
</g>
<g>
	<path fill="#515151" d="M33,75.103c0,1.103-1.18,1.994-2.354,1.994L23.078,75.9c-1.174,0-3.676-1.357-3.676-2.459l-1.73-4.782
		c0-1.102,0.925-1.659,2.101-1.659h10.646C31.595,67,33,67.222,33,68.323V75.103z"/>
	<path fill="#515151" d="M103.241,75.103c0,1.103,0.953,1.994,2.129,1.994l7.453-1.196c1.174,0,3.619-1.357,3.619-2.459l1.703-5.118
		c0-1.102-0.953-1.994-2.129-1.994H105.37c-1.176,0-2.129,0.892-2.129,1.994V75.103z"/>
	<path fill="#C4C4C4" d="M106,97.469c0,4.529-5.587,8.531-11.702,8.531H41.491C35.376,106,30,101.998,30,97.469V66.555
		c0-4.529-10.809-8.13-4.691-8.13l84.53-0.071c6.113,0-3.839,3.672-3.839,8.201V97.469z"/>
</g>
<g>
	<g>
		<path fill="#FFFFFF" d="M45.308,38.25c-2.896-0.38-5.038-0.974-6.277-4.116c-1.441-3.654,1.719-4.657,3.741-5.849
			c1.624-0.958,3.345-2.622,3.998-4.431c1.808-5.01-1.498-8.565-5.751-10.835c-0.853-0.455-1.611,0.84-0.757,1.295
			c3.127,1.669,6.111,3.869,5.473,8.002c-0.431,2.792-3.316,4.485-5.523,5.705c-1.619,0.894-2.652,1.822-3.035,3.655
			c-1.056,5.052,4.223,7.562,8.132,8.075C46.265,39.875,46.252,38.374,45.308,38.25L45.308,38.25z"/>
	</g>
</g>
<g>
	<g>
		<path fill="#FFFFFF" d="M70.308,27.25c-2.896-0.38-5.038-0.974-6.277-4.116c-1.441-3.654,1.719-4.657,3.742-5.849
			c1.623-0.958,3.345-2.622,3.997-4.431c1.808-5.01-1.497-8.565-5.751-10.835c-0.853-0.455-1.611,0.84-0.757,1.295
			c3.127,1.669,6.112,3.869,5.473,8.002c-0.432,2.792-3.316,4.485-5.523,5.705c-1.619,0.894-2.652,1.822-3.035,3.655
			c-1.056,5.052,4.223,7.562,8.132,8.075C71.265,28.875,71.253,27.374,70.308,27.25L70.308,27.25z"/>
	</g>
</g>
<g>
	<g>
		<path fill="#FFFFFF" d="M91.308,38.25c-2.896-0.38-5.037-0.974-6.276-4.116c-1.441-3.654,1.719-4.657,3.741-5.849
			c1.623-0.958,3.345-2.622,3.997-4.431c1.808-5.01-1.497-8.565-5.751-10.835c-0.854-0.455-1.611,0.84-0.758,1.295
			c3.128,1.669,6.112,3.869,5.474,8.002c-0.432,2.792-3.316,4.485-5.523,5.705c-1.619,0.894-2.652,1.822-3.035,3.655
			c-1.056,5.052,4.223,7.562,8.132,8.075C92.265,39.875,92.253,38.374,91.308,38.25L91.308,38.25z"/>
	</g>
</g>
</svg>
