<?xml version="1.0" encoding="utf-8"?>
<!-- Generator: Adobe Illustrator 16.0.3, SVG Export Plug-In . SVG Version: 6.00 Build 0)  -->
<!DOCTYPE svg PUBLIC "-//W3C//DTD SVG 1.1//EN" "http://www.w3.org/Graphics/SVG/1.1/DTD/svg11.dtd">
<svg version="1.1" id="Layer_1" xmlns="http://www.w3.org/2000/svg" xmlns:xlink="http://www.w3.org/1999/xlink" x="0px" y="0px"
	 width="133px" height="133px" viewBox="0 0 133 133" enable-background="new 0 0 133 133" xml:space="preserve">
<g>
	<path fill="none" stroke="#C4C4C4" stroke-width="3" stroke-miterlimit="10" d="M48.5,96.343c0,1.458,0.062,2.157-0.925,2.157
		H27.46c-0.986,0-2.96-0.699-2.96-2.157V53.875c0-1.46,0.987-1.375,1.974-1.375h21.102c0.986,0,0.925,1.375,0.925,2.835V96.343z"/>
	<path fill="#C4C4C4" d="M49.545,50.212c0,1.263-0.799,2.287-1.785,2.287H24.893c-0.986,0-1.787-1.024-1.787-2.287V45.64
		c0-1.263,0.801-2.286,1.787-2.286H47.76c0.986,0,1.785,1.023,1.785,2.286V50.212z"/>
	<path fill="#FFCB32" d="M47,96.729C47,97.441,46.63,98,46.058,98H27.337C26.765,98,26,97.441,26,96.729V80.032
		C26,79.32,26.765,78,27.337,78h18.721C46.63,78,47,79.32,47,80.032V96.729z"/>
	<ellipse fill="#515151" cx="30.144" cy="92.03" rx="0.148" ry="0.107"/>
	<ellipse fill="#515151" cx="38.084" cy="86.521" rx="0.14" ry="0.101"/>
	<ellipse fill="#515151" cx="41.3" cy="91.094" rx="0.139" ry="0.101"/>
	<ellipse fill="#515151" cx="38.799" cy="94.294" rx="0.14" ry="0.101"/>
	<ellipse fill="#515151" cx="38.084" cy="91.094" rx="0.14" ry="0.101"/>
	<ellipse fill="#515151" cx="35.226" cy="88.809" rx="0.139" ry="0.101"/>
	<ellipse fill="#515151" cx="31.663" cy="88.141" rx="0.148" ry="0.105"/>
	<ellipse fill="#515151" cx="37.013" cy="91.551" rx="0.141" ry="0.1"/>
	<ellipse fill="#515151" cx="34.512" cy="94.752" rx="0.14" ry="0.1"/>
	<ellipse fill="#515151" cx="31.663" cy="93.004" rx="0.148" ry="0.104"/>
	<ellipse fill="#515151" cx="28.624" cy="90.572" rx="0.148" ry="0.105"/>
	<ellipse fill="#515151" cx="37.369" cy="83.321" rx="0.14" ry="0.1"/>
	<ellipse fill="#515151" cx="43.086" cy="79.206" rx="0.14" ry="0.1"/>
	<ellipse fill="#515151" cx="46.302" cy="83.777" rx="0.139" ry="0.1"/>
	<ellipse fill="#515151" cx="43.801" cy="86.979" rx="0.14" ry="0.101"/>
	<ellipse fill="#515151" cx="43.086" cy="83.777" rx="0.14" ry="0.1"/>
	<ellipse fill="#515151" cx="40.229" cy="81.492" rx="0.14" ry="0.1"/>
	<ellipse fill="#515151" cx="38.441" cy="96.581" rx="0.14" ry="0.1"/>
	<ellipse fill="#515151" cx="44.158" cy="92.465" rx="0.14" ry="0.101"/>
	<ellipse fill="#515151" cx="33.373" cy="85.038" rx="0.14" ry="0.1"/>
	<ellipse fill="#515151" cx="44.872" cy="78.798" rx="0.139" ry="0.102"/>
	<ellipse fill="#515151" cx="44.158" cy="97.038" rx="0.14" ry="0.1"/>
	<ellipse fill="#515151" cx="41.3" cy="94.752" rx="0.139" ry="0.1"/>
	<ellipse fill="#515151" cx="31.284" cy="94.464" rx="0.148" ry="0.105"/>
	<ellipse fill="#515151" cx="36.654" cy="97.496" rx="0.14" ry="0.099"/>
	<ellipse fill="#515151" cx="28.169" cy="77.962" rx="0.148" ry="0.106"/>
	<ellipse fill="#515151" cx="28.243" cy="96.895" rx="0.148" ry="0.106"/>
	<ellipse fill="#515151" cx="30.903" cy="81.331" rx="0.148" ry="0.106"/>
	<path fill="#515151" d="M36.438,85.151c0,0.054-0.064,0.098-0.141,0.098c-0.078,0-0.141-0.044-0.141-0.098
		c0-0.058,0.063-0.104,0.141-0.104C36.374,85.048,36.438,85.094,36.438,85.151z"/>
	<ellipse fill="#515151" cx="40.943" cy="88.35" rx="0.14" ry="0.101"/>
	<path fill="#515151" d="M31.052,86.196c0,0.058-0.066,0.104-0.148,0.104s-0.148-0.047-0.148-0.104c0-0.061,0.066-0.109,0.148-0.109
		S31.052,86.136,31.052,86.196z"/>
	<ellipse fill="#515151" cx="27.864" cy="83.764" rx="0.148" ry="0.106"/>
	<g>
		<g>
			<path fill="#FFCB32" d="M29.629,79.504c1.043-2.7,6.187,0.473,8.014,1.006c1.984,0.579,5.268-1.624,6.487-0.55
				c1.445,1.273,3.575-0.84,2.121-2.121c-1.24-1.093-2.233-1.619-3.89-1.361c-0.654,0.102-1.384,0.639-1.947,0.947
				c-1.522,0.837-3.264-0.265-4.641-0.83c-3.554-1.46-7.443-2.015-9.037,2.112C26.038,80.514,28.939,81.289,29.629,79.504
				L29.629,79.504z"/>
		</g>
	</g>
</g>
<g>
	<path fill="none" stroke="#C4C4C4" stroke-width="3" stroke-miterlimit="10" d="M78.5,97.119c0,0.985-0.257,1.381-1.241,1.381
		H57.142c-0.986,0-2.642-0.396-2.642-1.381v-27.73c0-0.987,0.669-1.889,1.655-1.889h21.104c0.984,0,1.241,0.901,1.241,1.889V97.119z
		"/>
	<path fill="#C4C4C4" d="M79.544,66.617c0,0.987-0.799,1.787-1.785,1.787H54.892c-0.986,0-1.785-0.8-1.785-1.787v-3.573
		c0-0.987,0.799-1.786,1.785-1.786h22.867c0.986,0,1.785,0.799,1.785,1.786V66.617z"/>
	<path fill="#F23B3B" d="M77.118,97.793c0,0.333,0.148,0.207-0.084,0.207H57.812C57.253,98,56,98.131,56,97.798v-7.664
		C56,89.8,57.253,89,57.812,89h19.223c0.088,0.013,0.088,0.323,0.088,0.657L77.118,97.793z"/>
	<ellipse fill="#515151" cx="70.552" cy="91.661" rx="0.141" ry="0.077"/>
	<ellipse fill="#515151" cx="67.336" cy="91.661" rx="0.14" ry="0.077"/>
	<ellipse fill="#515151" cx="64.834" cy="94.161" rx="0.14" ry="0.079"/>
	<ellipse fill="#515151" cx="60.904" cy="89.158" rx="0.14" ry="0.079"/>
	<ellipse fill="#515151" cx="70.552" cy="94.52" rx="0.141" ry="0.077"/>
	<ellipse fill="#515151" cx="74.482" cy="92.375" rx="0.14" ry="0.078"/>
	<ellipse fill="#515151" cx="75.196" cy="89.158" rx="0.139" ry="0.079"/>
	<ellipse fill="#515151" cx="72.282" cy="96.991" rx="0.139" ry="0.079"/>
	<ellipse fill="#515151" cx="74.482" cy="95.947" rx="0.14" ry="0.079"/>
	<ellipse fill="#515151" cx="76.982" cy="94.161" rx="0.14" ry="0.079"/>
	<ellipse fill="#515151" cx="58.047" cy="95.947" rx="0.14" ry="0.079"/>
	<ellipse fill="#515151" cx="58.047" cy="91.661" rx="0.14" ry="0.077"/>
	<ellipse fill="#515151" cx="68.766" cy="97.019" rx="0.14" ry="0.08"/>
	<ellipse fill="#515151" cx="60.478" cy="97.092" rx="0.141" ry="0.078"/>
	<ellipse fill="#515151" cx="63.763" cy="96.306" rx="0.141" ry="0.078"/>
	<ellipse fill="#515151" cx="60.904" cy="94.52" rx="0.14" ry="0.077"/>
	<g>
		<g>
			<path fill="#F23B3B" d="M58.836,91.237c-0.602-4.284,7.321-0.314,8.6,0.096c1.007,0.323,6.21,0.052,6.274-1.222
				c-0.098,1.935,2.902,1.925,3,0c0.094-1.858-0.892-3.138-2.848-2.894c-1.099,0.138-2.142,0.62-3.182,0.98
				c-2.329,0.806-4.321-0.511-6.409-1.364c-4.394-1.795-9.04,0.134-8.328,5.2C56.211,93.943,59.102,93.128,58.836,91.237
				L58.836,91.237z"/>
		</g>
	</g>
	<ellipse fill="#515151" cx="59.735" cy="90.52" rx="0.139" ry="0.078"/>
	<ellipse fill="#515151" cx="61.811" cy="87.235" rx="0.14" ry="0.077"/>
	<ellipse fill="#515151" cx="75.21" cy="90.189" rx="0.139" ry="0.078"/>
	<ellipse fill="#515151" cx="67.184" cy="93.351" rx="0.14" ry="0.077"/>
	<ellipse fill="#515151" cx="62.827" cy="92.306" rx="0.139" ry="0.078"/>
	<ellipse fill="#515151" cx="73.34" cy="88.334" rx="0.14" ry="0.079"/>
	<ellipse fill="#515151" cx="64.395" cy="89.735" rx="0.14" ry="0.079"/>
	<ellipse fill="#515151" cx="58.664" cy="92.663" rx="0.14" ry="0.078"/>
</g>
<g>
	<path fill="none" stroke="#C4C4C4" stroke-width="3" stroke-miterlimit="10" d="M108.5,96.081c0,1.615-0.646,2.419-1.632,2.419
		H86.753c-0.986,0-2.253-0.804-2.253-2.419V50.665c0-1.616,0.28-4.165,1.267-4.165h21.102c0.986,0,1.632,2.549,1.632,4.165V96.081z"
		/>
	<path fill="#C4C4C4" d="M109.546,45.187c0,1.27-0.801,2.3-1.787,2.3H84.894c-0.988,0-1.789-1.03-1.789-2.3v-4.602
		c0-1.271,0.801-2.301,1.789-2.301h22.865c0.986,0,1.787,1.03,1.787,2.301V45.187z"/>
	<path fill="#FFFFFF" d="M107,97.134c0,0.65,0.337,0.866-0.233,0.866H87.077C86.505,98,86,97.784,86,97.134V82.21
		c0-0.649,0.505-1.21,1.077-1.21h19.689c0.342,0,0.233,0.561,0.233,1.21V97.134z"/>
	<g>
		<ellipse fill="#515151" cx="90.277" cy="83.73" rx="0.14" ry="0.102"/>
		<ellipse fill="#515151" cx="98.853" cy="83.73" rx="0.139" ry="0.102"/>
		<ellipse fill="#515151" cx="102.068" cy="88.332" rx="0.14" ry="0.102"/>
		<ellipse fill="#515151" cx="99.566" cy="91.552" rx="0.14" ry="0.102"/>
		<ellipse fill="#515151" cx="98.853" cy="88.332" rx="0.139" ry="0.102"/>
		<ellipse fill="#515151" cx="95.993" cy="86.031" rx="0.141" ry="0.102"/>
		<ellipse fill="#515151" cx="88.848" cy="88.332" rx="0.14" ry="0.102"/>
		<ellipse fill="#515151" cx="94.564" cy="84.191" rx="0.14" ry="0.101"/>
		<ellipse fill="#515151" cx="90.992" cy="96.614" rx="0.14" ry="0.1"/>
		<ellipse fill="#515151" cx="95.279" cy="92.014" rx="0.14" ry="0.101"/>
		<ellipse fill="#515151" cx="87.062" cy="97.074" rx="0.141" ry="0.101"/>
		<ellipse fill="#515151" cx="91.706" cy="86.492" rx="0.139" ry="0.101"/>
		<ellipse fill="#515151" cx="86.705" cy="85.571" rx="0.14" ry="0.101"/>
		<ellipse fill="#515151" cx="107.07" cy="86.492" rx="0.14" ry="0.101"/>
		<ellipse fill="#515151" cx="104.569" cy="84.191" rx="0.141" ry="0.101"/>
		<ellipse fill="#515151" cx="103.855" cy="80.97" rx="0.14" ry="0.101"/>
		<ellipse fill="#515151" cx="99.209" cy="93.854" rx="0.14" ry="0.101"/>
		<path fill="#515151" d="M105.065,89.712c0,0.056-0.061,0.102-0.141,0.102c-0.076,0-0.139-0.046-0.139-0.102
			s0.063-0.101,0.139-0.101C105.005,89.611,105.065,89.656,105.065,89.712z"/>
		<ellipse fill="#515151" cx="105.641" cy="93.854" rx="0.14" ry="0.101"/>
		<ellipse fill="#515151" cx="105.641" cy="97.534" rx="0.14" ry="0.101"/>
		<ellipse fill="#515151" cx="102.425" cy="95.693" rx="0.141" ry="0.102"/>
		<ellipse fill="#515151" cx="102.068" cy="92.014" rx="0.14" ry="0.101"/>
		<ellipse fill="#515151" cx="88.49" cy="94.313" rx="0.14" ry="0.101"/>
		<ellipse fill="#515151" cx="94.207" cy="88.792" rx="0.14" ry="0.101"/>
		<ellipse fill="#515151" cx="97.423" cy="94.774" rx="0.139" ry="0.1"/>
		<ellipse fill="#515151" cx="94.922" cy="97.074" rx="0.14" ry="0.101"/>
		<ellipse fill="#515151" cx="94.207" cy="94.774" rx="0.14" ry="0.1"/>
		<ellipse fill="#515151" cx="91.349" cy="92.474" rx="0.139" ry="0.101"/>
		<ellipse fill="#515151" cx="88.134" cy="81.892" rx="0.139" ry="0.1"/>
		<ellipse fill="#515151" cx="97.066" cy="82.353" rx="0.14" ry="0.099"/>
		<ellipse fill="#515151" cx="101.711" cy="85.571" rx="0.14" ry="0.101"/>
		<ellipse fill="#515151" cx="93.85" cy="82.353" rx="0.14" ry="0.099"/>
		<ellipse fill="#515151" cx="90.992" cy="80.05" rx="0.14" ry="0.102"/>
	</g>
	<g>
		<g>
			<path fill="#FFFFFF" d="M89.495,83.47c-0.317-4.002,5.604-0.326,7.294,0.21c0.971,0.308,2.266,0.689,3.296,0.347
				c1.124-0.374,2.934-2.097,4.084-1.239c1.553,1.158,3.045-1.448,1.514-2.59c-1.482-1.105-2.834-1.13-4.415-0.201
				c-3.088,1.814-4.851-0.129-7.862-1.013c-3.603-1.059-7.238,0.349-6.91,4.486C86.646,85.385,89.648,85.399,89.495,83.47
				L89.495,83.47z"/>
		</g>
	</g>
</g>
</svg>
