<?xml version="1.0" encoding="utf-8"?>
<!-- Generator: Adobe Illustrator 16.0.3, SVG Export Plug-In . SVG Version: 6.00 Build 0)  -->
<!DOCTYPE svg PUBLIC "-//W3C//DTD SVG 1.1//EN" "http://www.w3.org/Graphics/SVG/1.1/DTD/svg11.dtd">
<svg version="1.1" id="Layer_1" xmlns="http://www.w3.org/2000/svg" xmlns:xlink="http://www.w3.org/1999/xlink" x="0px" y="0px"
	 width="133px" height="133px" viewBox="0 0 133 133" enable-background="new 0 0 133 133" xml:space="preserve">
<g>
	<path fill="#FFCB32" d="M54,89.066c0,0.811-1.586,1.467-3,1.467l0,0c-1.413,0-3-0.656-3-1.467V47.67c0-0.809,1.587-1.466,3-1.466
		l0,0c1.414,0,3,0.657,3,1.466V89.066z"/>
	<path fill="#515151" d="M54.597,86h-5.871C47.645,86,46,87.456,46,88.396v27.613c0,0.939,1.645,1.99,2.726,1.99h5.871
		c1.081,0,1.403-1.051,1.403-1.99V88.396C56,87.456,55.678,86,54.597,86z M51.615,114.66c-1.055,0-1.91-0.818-1.91-1.827
		c0-1.008,0.855-1.825,1.91-1.825c1.057,0,1.911,0.817,1.911,1.825C53.526,113.842,52.672,114.66,51.615,114.66z"/>
	<path fill="#FFCB32" d="M65.36,13H38.564c-1.331,0-2.409,1.01-2.409,2.341l2.71,31.545c0,1.331,1.078,2.113,2.409,2.113H62.65
		c1.33,0,2.408-0.782,2.408-2.113l2.71-31.545C67.769,14.01,66.69,13,65.36,13z M44,42.493C44,42.865,44.285,43,43.871,43h-0.5
		C42.957,43,42,42.865,42,42.493V18.674C42,18.302,42.957,18,43.371,18h0.5C44.285,18,44,18.302,44,18.674V42.493z M52,42.493
		C52,42.865,52.285,43,51.871,43h-0.5C50.957,43,50,42.865,50,42.493V18.674C50,18.302,50.957,18,51.371,18h0.5
		C52.285,18,52,18.302,52,18.674V42.493z M60,42.493C60,42.865,60.285,43,59.871,43h-0.5C58.957,43,58,42.865,58,42.493V18.674
		C58,18.302,58.957,18,59.371,18h0.5C60.285,18,60,18.302,60,18.674V42.493z"/>
</g>
<g>
	<path fill="none" stroke="#C4C4C4" stroke-miterlimit="10" d="M95.315,108.926c0.274,4.898-3.918,8.882-8.75,8.882l0,0
		c-4.835,0-9.019-3.983-8.755-8.882c0.367-6.804,2.938-27.096,2.938-27.096s1.052-16.639,5.706-16.639l0,0
		c4.874,0,5.804,16.455,5.804,16.455S94.933,102.074,95.315,108.926z"/>
	<path fill="none" stroke="#C4C4C4" stroke-miterlimit="10" d="M90.109,108.926c0.11,4.904-1.588,8.882-3.544,8.882l0,0
		c-1.96,0-3.653-3.978-3.546-8.882c0.147-6.779,1.188-27.096,1.188-27.096s0.426-16.639,2.312-16.639l0,0
		c1.974,0,2.351,16.455,2.351,16.455S89.954,102.102,90.109,108.926z"/>
	<path fill="none" stroke="#C4C4C4" stroke-miterlimit="10" d="M99.082,108.926c0.389,4.89-5.604,8.882-12.517,8.882l0,0
		c-6.916,0-12.897-3.99-12.52-8.882c0.525-6.835,4.198-27.096,4.198-27.096s1.506-16.639,8.161-16.639l0,0
		c6.973,0,8.303,16.455,8.303,16.455S98.533,102.041,99.082,108.926z"/>
	<path fill="#FFCB32" d="M86.565,14.814c-1.708,0-4.084,0.748-4.084,1.669l1.021,47.151c0,0.921,1.355,1.669,3.063,1.669
		c1.706,0,3.061-0.748,3.061-1.669l1.021-47.151C90.647,15.562,88.271,14.814,86.565,14.814z M86.742,20.819
		c-0.938,0-1.7-0.762-1.7-1.701c0-0.939,0.762-1.702,1.7-1.702c0.939,0,1.701,0.762,1.701,1.702
		C88.443,20.057,87.682,20.819,86.742,20.819z"/>
	<path fill="#515151" d="M90.139,65.917c0,0.091-0.446,0.159-1.279,0.159h-4.522c-0.832,0-1.346-0.068-1.346-0.159v-2.679
		c0-0.09,0.514-0.225,1.346-0.225h4.522c0.833,0,1.279,0.134,1.279,0.225V65.917z"/>
</g>
</svg>
