<?xml version="1.0" encoding="utf-8"?>
<!-- Generator: Adobe Illustrator 16.0.3, SVG Export Plug-In . SVG Version: 6.00 Build 0)  -->
<!DOCTYPE svg PUBLIC "-//W3C//DTD SVG 1.1//EN" "http://www.w3.org/Graphics/SVG/1.1/DTD/svg11.dtd">
<svg version="1.1" id="Layer_1" xmlns="http://www.w3.org/2000/svg" xmlns:xlink="http://www.w3.org/1999/xlink" x="0px" y="0px"
	 width="133px" height="133px" viewBox="0 0 133 133" enable-background="new 0 0 133 133" xml:space="preserve">
<path fill="#FFFFFF" d="M113.916,35H37.261C34.679,35,14,65.416,14,67.998V83.11c0,2.581,2.604,4.89,5.187,4.89h5.609
	c0-6,5.021-11.219,11.218-11.219C42.208,76.781,47.231,82,47.231,88h39.886c0-6,5.022-11.219,11.218-11.219
	c6.194,0,11.218,5.219,11.218,11.219h4.363c2.581,0,4.084-2.309,4.084-4.89V39.174C118,36.593,116.497,35,113.916,35z"/>
<circle fill="#FFFFFF" cx="36.21" cy="87.785" r="8.296"/>
<circle fill="#FFFFFF" cx="98.45" cy="87.785" r="8.296"/>
<path fill="#0EAA97" d="M55,59.131C55,59.64,55.424,61,54.735,61H20.861c-0.688,0,12.62-20,13.308-20h20.566
	C55.424,41,55,40.677,55,41.185V59.131z"/>
<rect x="14.513" y="68.154" fill="#F23B3B" width="104.076" height="2.181"/>
<circle fill="none" stroke="#F23B3B" stroke-width="3" stroke-miterlimit="10" cx="83.3" cy="51.249" r="12.542"/>
<path fill="#F23B3B" d="M92.727,50H85v-8.021C85,41.806,85.419,42,85.247,42h-3.738C81.336,42,81,41.806,81,41.979V50h-6.971
	C73.857,50,73,49.285,73,49.457v3.739C73,53.368,73.857,54,74.029,54H81v6.675C81,60.848,81.336,62,81.509,62h3.738
	C85.419,62,85,60.848,85,60.675V54h7.727C92.898,54,92,53.368,92,53.196v-3.739C92,49.285,92.898,50,92.727,50z"/>
<path fill="#F23B3B" d="M49.347,33.979c0-2.624-2.127-4.948-4.75-4.948c-2.624,0-4.75,2.423-4.75,5.047
	c0,0.214,0.035,0.922,0.063,0.922h9.374C49.311,35,49.347,34.193,49.347,33.979z"/>
<path fill="#F23B3B" d="M45.097,26.776c0,0.192-0.168,0.349-0.375,0.349h-0.25c-0.207,0-0.375-0.156-0.375-0.349v-6.74
	c0-0.192,0.168-0.349,0.375-0.349h0.25c0.207,0,0.375,0.156,0.375,0.349V26.776z"/>
<path fill="#F23B3B" d="M41.798,27.414c0.097,0.167,0.029,0.387-0.15,0.49l-0.217,0.125c-0.179,0.104-0.402,0.052-0.498-0.115
	l-3.371-5.837c-0.096-0.166-0.028-0.386,0.15-0.489l0.217-0.125c0.18-0.104,0.403-0.052,0.5,0.114L41.798,27.414z"/>
<path fill="#F23B3B" d="M39.261,29.616c0.167,0.097,0.219,0.32,0.115,0.5l-0.126,0.217c-0.103,0.179-0.322,0.246-0.489,0.149
	l-5.838-3.369c-0.166-0.096-0.217-0.32-0.113-0.499l0.125-0.217c0.104-0.179,0.323-0.247,0.49-0.151L39.261,29.616z"/>
<path fill="#F23B3B" d="M50.474,30.411c-0.167,0.095-0.387,0.029-0.49-0.151l-0.127-0.216c-0.102-0.18-0.05-0.403,0.118-0.5
	l5.835-3.371c0.167-0.096,0.387-0.028,0.49,0.152l0.124,0.216c0.103,0.179,0.053,0.404-0.113,0.5L50.474,30.411z"/>
<path fill="#F23B3B" d="M48.272,27.873c-0.098,0.166-0.32,0.218-0.5,0.115l-0.219-0.124c-0.178-0.105-0.244-0.324-0.146-0.492
	l3.367-5.837c0.097-0.167,0.32-0.218,0.501-0.114l0.215,0.125c0.179,0.104,0.248,0.324,0.151,0.489L48.272,27.873z"/>
</svg>
