<?xml version="1.0" encoding="utf-8"?>
<!-- Generator: Adobe Illustrator 16.0.3, SVG Export Plug-In . SVG Version: 6.00 Build 0)  -->
<!DOCTYPE svg PUBLIC "-//W3C//DTD SVG 1.1//EN" "http://www.w3.org/Graphics/SVG/1.1/DTD/svg11.dtd">
<svg version="1.1" id="Layer_1" xmlns="http://www.w3.org/2000/svg" xmlns:xlink="http://www.w3.org/1999/xlink" x="0px" y="0px"
	 width="133px" height="133px" viewBox="0 0 133 133" enable-background="new 0 0 133 133" xml:space="preserve">
<g>
	<path fill="none" stroke="#FFFFFF" stroke-width="2" stroke-miterlimit="10" d="M62,81.22V19.758C62,15.895,60.154,14,57.055,14
		h-0.13C53.825,14,51,15.895,51,19.758v61.263c-3,1.67-3.551,4.329-3.551,7.326c0,5.056,4.222,9.152,9.337,9.152
		c5.111,0,8.963-4.097,8.963-9.152C65.749,85.467,64,82.896,62,81.22z"/>
	<ellipse fill="#F23B3B" cx="56.662" cy="87.81" rx="5.271" ry="5.582"/>
	<path fill="#F23B3B" d="M58.512,84.565c0,1.165-1.004,1.978-2.086,1.978h-0.087c-1.081,0-1.529-0.813-1.529-1.978V32.51
		c0-1.165,0.448-1.966,1.529-1.966h0.087c1.082,0,2.086,0.802,2.086,1.966V84.565z"/>
	<g>
		<g>
			<path fill="#FFFFFF" d="M58.512,25.033c1.2,0,2.4,0,3.601,0c0.484,0,0.484-0.75,0-0.75c-1.2,0-2.4,0-3.601,0
				C58.028,24.283,58.028,25.033,58.512,25.033L58.512,25.033z"/>
		</g>
	</g>
	<g>
		<g>
			<path fill="#FFFFFF" d="M60.313,27.801c0.6,0,1.2,0,1.8,0c0.484,0,0.484-0.75,0-0.75c-0.6,0-1.2,0-1.8,0
				C59.829,27.051,59.829,27.801,60.313,27.801L60.313,27.801z"/>
		</g>
	</g>
	<g>
		<g>
			<path fill="#FFFFFF" d="M58.512,30.293c1.2,0,2.4,0,3.601,0c0.484,0,0.484-0.75,0-0.75c-1.2,0-2.4,0-3.601,0
				C58.028,29.543,58.028,30.293,58.512,30.293L58.512,30.293z"/>
		</g>
	</g>
	<g>
		<g>
			<path fill="#FFFFFF" d="M60.313,33.062c0.6,0,1.2,0,1.8,0c0.484,0,0.484-0.75,0-0.75c-0.6,0-1.2,0-1.8,0
				C59.829,32.312,59.829,33.062,60.313,33.062L60.313,33.062z"/>
		</g>
	</g>
	<g>
		<g>
			<path fill="#FFFFFF" d="M58.512,35.277c1.2,0,2.4,0,3.601,0c0.484,0,0.484-0.75,0-0.75c-1.2,0-2.4,0-3.601,0
				C58.028,34.527,58.028,35.277,58.512,35.277L58.512,35.277z"/>
		</g>
	</g>
	<g>
		<g>
			<path fill="#FFFFFF" d="M60.313,38.045c0.6,0,1.2,0,1.8,0c0.484,0,0.484-0.75,0-0.75c-0.6,0-1.2,0-1.8,0
				C59.829,37.295,59.829,38.045,60.313,38.045L60.313,38.045z"/>
		</g>
	</g>
	<g>
		<g>
			<path fill="#FFFFFF" d="M58.512,40.537c1.2,0,2.4,0,3.601,0c0.484,0,0.484-0.75,0-0.75c-1.2,0-2.4,0-3.601,0
				C58.028,39.787,58.028,40.537,58.512,40.537L58.512,40.537z"/>
		</g>
	</g>
	<g>
		<g>
			<path fill="#FFFFFF" d="M60.313,43.305c0.6,0,1.2,0,1.8,0c0.484,0,0.484-0.75,0-0.75c-0.6,0-1.2,0-1.8,0
				C59.829,42.555,59.829,43.305,60.313,43.305L60.313,43.305z"/>
		</g>
	</g>
	<g>
		<g>
			<path fill="#FFFFFF" d="M58.512,45.797c1.2,0,2.4,0,3.601,0c0.484,0,0.484-0.75,0-0.75c-1.2,0-2.4,0-3.601,0
				C58.028,45.047,58.028,45.797,58.512,45.797L58.512,45.797z"/>
		</g>
	</g>
	<g>
		<g>
			<path fill="#FFFFFF" d="M60.313,48.566c0.6,0,1.2,0,1.8,0c0.484,0,0.484-0.75,0-0.75c-0.6,0-1.2,0-1.8,0
				C59.829,47.816,59.829,48.566,60.313,48.566L60.313,48.566z"/>
		</g>
	</g>
	<g>
		<g>
			<path fill="#FFFFFF" d="M58.512,51.058c1.2,0,2.4,0,3.601,0c0.484,0,0.484-0.75,0-0.75c-1.2,0-2.4,0-3.601,0
				C58.028,50.308,58.028,51.058,58.512,51.058L58.512,51.058z"/>
		</g>
	</g>
	<g>
		<g>
			<path fill="#FFFFFF" d="M60.313,53.826c0.6,0,1.2,0,1.8,0c0.484,0,0.484-0.75,0-0.75c-0.6,0-1.2,0-1.8,0
				C59.829,53.076,59.829,53.826,60.313,53.826L60.313,53.826z"/>
		</g>
	</g>
	<g>
		<g>
			<path fill="#FFFFFF" d="M58.512,56.041c1.2,0,2.4,0,3.601,0c0.484,0,0.484-0.75,0-0.75c-1.2,0-2.4,0-3.601,0
				C58.028,55.291,58.028,56.041,58.512,56.041L58.512,56.041z"/>
		</g>
	</g>
	<g>
		<g>
			<path fill="#FFFFFF" d="M60.313,58.81c0.6,0,1.2,0,1.8,0c0.484,0,0.484-0.75,0-0.75c-0.6,0-1.2,0-1.8,0
				C59.829,58.06,59.829,58.81,60.313,58.81L60.313,58.81z"/>
		</g>
	</g>
	<g>
		<g>
			<path fill="#FFFFFF" d="M58.512,61.301c1.2,0,2.4,0,3.601,0c0.484,0,0.484-0.75,0-0.75c-1.2,0-2.4,0-3.601,0
				C58.028,60.551,58.028,61.301,58.512,61.301L58.512,61.301z"/>
		</g>
	</g>
	<g>
		<g>
			<path fill="#FFFFFF" d="M60.313,64.07c0.6,0,1.2,0,1.8,0c0.484,0,0.484-0.75,0-0.75c-0.6,0-1.2,0-1.8,0
				C59.829,63.32,59.829,64.07,60.313,64.07L60.313,64.07z"/>
		</g>
	</g>
	<g>
		<g>
			<path fill="#FFFFFF" d="M58.512,66.562c1.2,0,2.4,0,3.601,0c0.484,0,0.484-0.75,0-0.75c-1.2,0-2.4,0-3.601,0
				C58.028,65.812,58.028,66.562,58.512,66.562L58.512,66.562z"/>
		</g>
	</g>
	<g>
		<g>
			<path fill="#FFFFFF" d="M60.313,69.33c0.6,0,1.2,0,1.8,0c0.484,0,0.484-0.75,0-0.75c-0.6,0-1.2,0-1.8,0
				C59.829,68.58,59.829,69.33,60.313,69.33L60.313,69.33z"/>
		</g>
	</g>
	<g>
		<g>
			<path fill="#FFFFFF" d="M58.512,71.821c1.2,0,2.4,0,3.601,0c0.484,0,0.484-0.75,0-0.75c-1.2,0-2.4,0-3.601,0
				C58.028,71.071,58.028,71.821,58.512,71.821L58.512,71.821z"/>
		</g>
	</g>
	<g>
		<g>
			<path fill="#FFFFFF" d="M60.313,74.591c0.6,0,1.2,0,1.8,0c0.484,0,0.484-0.75,0-0.75c-0.6,0-1.2,0-1.8,0
				C59.829,73.841,59.829,74.591,60.313,74.591L60.313,74.591z"/>
		</g>
	</g>
	<g>
		<g>
			<path fill="#FFFFFF" d="M58.512,76.806c1.2,0,2.4,0,3.601,0c0.484,0,0.484-0.75,0-0.75c-1.2,0-2.4,0-3.601,0
				C58.028,76.056,58.028,76.806,58.512,76.806L58.512,76.806z"/>
		</g>
	</g>
	<g>
		<g>
			<path fill="#FFFFFF" d="M60.313,79.573c0.6,0,1.2,0,1.8,0c0.484,0,0.484-0.75,0-0.75c-0.6,0-1.2,0-1.8,0
				C59.829,78.823,59.829,79.573,60.313,79.573L60.313,79.573z"/>
		</g>
	</g>
</g>
<g>
	<g>
		<path fill="#FFCB32" d="M115.806,68.089c-2.929-3.999-5.577-7.4-8.405-11.424c-1.009-1.468-2.068-3.568-3.331-4.758
			c-1.855-1.633-3.061,1.083-3.858,2.41c-1.698,2.677-3.371,5.457-5.044,8.235c-0.988,1.642-2.282,3.36-2.851,5.167
			c-0.851,2.413,1.006,2.758,2.852,2.835c3.693,0.157,7.271,0.505,10.859,0.687c1.809,0.141,3.679,0.32,5.486,0.463
			c1.48,0.115,4.88,1.043,5.576-0.689c0.444-1.023-1.171-2.769-1.171-2.769"/>
	</g>
	<path fill="#C4C4C4" d="M81.042,105.191c-0.232,0.387-1.565-0.244-2.13-0.584l-0.098-0.061c-0.565-0.34-1.026-0.787-0.795-1.174
		l28.821-47.887c0.232-0.386,0.815-0.14,1.382,0.201l0.098,0.059c0.564,0.34,1.775,1.174,1.543,1.559L81.042,105.191z"/>
	<path fill="#C4C4C4" d="M70.146,109.61c-2.386,3.646-4.888,13.408-3.244,14.397c1.645,0.989,9.48-5.559,11.729-9.291
		c2.248-3.736,4.633-11.655,2.452-13.197C79.517,100.412,72.638,105.803,70.146,109.61z"/>
	<g>
		<g>
			<path fill="#FFFFFF" d="M76.004,106.387c-3.525,1.973-6.197,6.259-6.099,10.343c0.012,0.482,0.762,0.484,0.75,0
				c-0.092-3.823,2.43-7.851,5.728-9.694C76.805,106.799,76.427,106.15,76.004,106.387L76.004,106.387z"/>
		</g>
	</g>
</g>
</svg>
