<?xml version="1.0" encoding="utf-8"?>
<!-- Generator: Adobe Illustrator 16.0.3, SVG Export Plug-In . SVG Version: 6.00 Build 0)  -->
<!DOCTYPE svg PUBLIC "-//W3C//DTD SVG 1.1//EN" "http://www.w3.org/Graphics/SVG/1.1/DTD/svg11.dtd">
<svg version="1.1" id="Layer_1" xmlns="http://www.w3.org/2000/svg" xmlns:xlink="http://www.w3.org/1999/xlink" x="0px" y="0px"
	 width="133px" height="133px" viewBox="0 0 133 133" enable-background="new 0 0 133 133" xml:space="preserve">
<g>
	<path fill="#FFCB32" d="M51.092,11.904c-0.204,1.663-1.72,2.846-3.384,2.642l-2.439-0.301c-1.664-0.204-2.846-1.719-2.641-3.382
		l0.039-0.324c0.205-1.664,1.719-2.846,3.383-2.641l2.439,0.3c1.663,0.205,2.847,1.719,2.642,3.382L51.092,11.904z"/>
	<path fill="#515151" d="M42.787,9.426c0,0-23.31-1.426-8.408,30.574h2.404c0,0-14.996-30.104,5.845-29.205"/>
	<path fill="#FFCB32" d="M61.444,11.904c0.205,1.663,1.719,2.846,3.383,2.642l2.438-0.301c1.665-0.204,2.848-1.719,2.643-3.382
		l-0.04-0.324c-0.204-1.664-1.719-2.846-3.383-2.641l-2.439,0.3c-1.662,0.205-2.847,1.719-2.641,3.382L61.444,11.904z"/>
	<path fill="#515151" d="M69.749,9.426c0,0,23.309-1.426,8.408,30.574h-2.403c0,0,14.994-30.104-5.846-29.205"/>
	<path fill="#FFFFFF" d="M56.526,79.601C69.319,78.969,78.795,40,78.795,40H75.32c0,0-9.081,36.168-18.794,36.131
		C46.814,76.096,37.339,40,37.339,40h-3.553C44.288,82,56.526,79.601,56.526,79.601z"/>
	<g>
		<g>
			<path fill="#FFFFFF" d="M54.356,79.067c1.013,3.274,2.215,6.383,2.458,9.835c0.293,4.153-1.816,8.127-3.563,11.738
				c-1.986,4.105-2.77,8.203-2.18,12.749c1.049,8.083,8.025,15.121,16.606,13.649c8.908-1.527,15.424-12.942,13.842-21.544
				c-1.783-9.693-9.108-25.592,7.222-25.71c1.934-0.014,1.936-3.014,0-3c-7.373,0.054-13.198,3.516-13.719,11.293
				c-0.253,3.785,0.955,7.737,1.935,11.341c1.838,6.762,2.288,12.058-1.488,18.393c-3.447,5.781-9.645,8.114-15.733,4.757
				c-4.798-2.646-6.118-8.989-5.838-13.969c0.315-5.612,4.357-10.487,5.6-15.946c1.134-4.979-0.805-9.718-2.249-14.383
				C56.679,76.428,53.783,77.215,54.356,79.067L54.356,79.067z"/>
		</g>
	</g>
	<circle fill="none" stroke="#515151" stroke-width="2" stroke-miterlimit="10" cx="96.165" cy="78.434" r="6.932"/>
	<circle fill="#FFCB32" cx="96.132" cy="78.404" r="4.946"/>
</g>
<path fill="none" stroke="#000000" stroke-linecap="round" stroke-linejoin="round" stroke-miterlimit="10" d="M97.201,51.848"/>
<path fill="none" stroke="#000000" stroke-linecap="round" stroke-linejoin="round" stroke-miterlimit="10" d="M96.045,50.691"/>
<path fill="none" stroke="#000000" stroke-linecap="round" stroke-linejoin="round" stroke-miterlimit="10" d="M116.205,45.726"/>
<polyline fill="none" stroke="#F23B3B" stroke-width="2" stroke-miterlimit="10" points="97.201,51.848 103.779,58.425 
	112.964,49.241 "/>
<path fill="none" stroke="#F23B3B" stroke-width="2" stroke-miterlimit="10" d="M116.205,45.726c1.524-2.54,1.194-5.901-0.987-8.084
	l-0.154-0.153c-2.569-2.569-6.772-2.57-9.345,0l-1.939,1.939l-1.938-1.941c-2.57-2.568-6.774-2.568-9.345,0l-0.155,0.154
	c-2.569,2.571-2.569,6.776,0,9.345l1.941,1.941"/>
<polyline fill="none" stroke="#FFFFFF" stroke-miterlimit="10" points="90.414,48.996 99.068,48.996 100.207,45.763 103.418,53.456 
	104.576,41.742 "/>
<polyline fill="none" stroke="#FFFFFF" stroke-miterlimit="10" points="117.834,49.077 108.614,49.054 107.168,51.576 
	104.576,41.742 103.418,53.456 "/>
<path fill="none" stroke="#000000" stroke-linecap="round" stroke-linejoin="round" stroke-miterlimit="10" d="M119.495,49.077"/>
<path fill="none" stroke="#000000" stroke-linecap="round" stroke-linejoin="round" stroke-miterlimit="10" d="M89.598,49.077"/>
</svg>
