<?xml version="1.0" encoding="utf-8"?>
<!-- Generator: Adobe Illustrator 16.0.3, SVG Export Plug-In . SVG Version: 6.00 Build 0)  -->
<!DOCTYPE svg PUBLIC "-//W3C//DTD SVG 1.1//EN" "http://www.w3.org/Graphics/SVG/1.1/DTD/svg11.dtd">
<svg version="1.1" id="Layer_1" xmlns="http://www.w3.org/2000/svg" xmlns:xlink="http://www.w3.org/1999/xlink" x="0px" y="0px"
	 width="133px" height="133px" viewBox="0 0 133 133" enable-background="new 0 0 133 133" xml:space="preserve">
<g>
	<path fill="#FFFFFF" d="M44.629,37.527c0.908-1.508,0.472-3.439-1.037-4.349c-1.508-0.909-3.421-0.396-4.33,1.113l-3.206,5.318
		l5.367,3.236L44.629,37.527z"/>
	<path fill="#F23B3B" d="M36.056,39.61l-3.145,5.216c-0.909,1.508-0.471,3.439,1.037,4.349s3.42,0.395,4.329-1.113l3.146-5.215
		L36.056,39.61z"/>
</g>
<g>
	<path fill="#FFFFFF" d="M44.174,59.847c-1.046-1.417-2.997-1.752-4.415-0.706c-1.416,1.045-1.674,3.009-0.628,4.426l3.687,4.998
		l5.043-3.72L44.174,59.847z"/>
	<path fill="#F23B3B" d="M42.817,68.564l3.615,4.9c1.046,1.418,2.998,1.752,4.414,0.707c1.419-1.047,1.675-3.01,0.628-4.426
		l-3.614-4.901L42.817,68.564z"/>
</g>
<g>
	<path fill="#FFFFFF" d="M32.612,96.656c-0.725,1.604-0.065,3.471,1.541,4.197c1.604,0.725,3.441-0.01,4.168-1.615l2.56-5.658
		l-5.708-2.582L32.612,96.656z"/>
	<path fill="#F23B3B" d="M40.881,93.58l2.51-5.549c0.729-1.604,0.065-3.471-1.539-4.195c-1.604-0.728-3.443,0.008-4.169,1.613
		l-2.51,5.549L40.881,93.58z"/>
</g>
<g>
	<path fill="#282828" d="M110.58,52.16c-1.555-10.594-10.343-18.729-21.227-18.729c-11.077,0-20.077,8.418-21.389,19.287
		C67.906,52.924,68,53.135,68,53.352v0.283c0,0.588-0.076,1.182-0.076,1.781S68,56.607,68,57.196v42.942
		c0,1.666,1.881,3.861,4.077,3.861h35.815c2.197,0,2.107-2.195,2.107-3.861V53.352C110,52.926,110.58,52.689,110.58,52.16z"/>
	<path fill="#FFFFFF" d="M97,32.979C97,34.095,96.127,35,94.994,35H83.098C81.965,35,81,34.095,81,32.979v-9.957
		C81,21.905,81.965,21,83.098,21h11.896C96.127,21,97,21.905,97,23.021V32.979z"/>
	<rect x="68" y="56" fill="#FFFFFF" width="42" height="27"/>
	<circle fill="#F23B3B" cx="89.758" cy="69.377" r="11.267"/>
	<rect x="80.879" y="68" fill="#FFFFFF" width="18" height="3"/>
	<rect x="88" y="61" fill="#FFFFFF" width="3" height="18"/>
</g>
</svg>
