<?xml version="1.0" encoding="utf-8"?>
<!-- Generator: Adobe Illustrator 16.0.3, SVG Export Plug-In . SVG Version: 6.00 Build 0)  -->
<!DOCTYPE svg PUBLIC "-//W3C//DTD SVG 1.1//EN" "http://www.w3.org/Graphics/SVG/1.1/DTD/svg11.dtd">
<svg version="1.1" id="Layer_1" xmlns="http://www.w3.org/2000/svg" xmlns:xlink="http://www.w3.org/1999/xlink" x="0px" y="0px"
	 width="133px" height="133px" viewBox="0 0 133 133" enable-background="new 0 0 133 133" xml:space="preserve">
<g>
	<path fill="#FFFFFF" d="M65.165,75.091c-0.303,0.739-1.295,1.017-2.223,0.638l-7.988-3.266c-0.929-0.379-1.442-1.274-1.14-2.013
		l4.739-11.593c0.302-0.739,1.3-1.03,2.229-0.65l7.988,3.266c0.928,0.38,1.437,1.286,1.135,2.025L65.165,75.091z"/>
	<path fill="#C4C4C4" d="M74.226,62.35c-0.621,1.519-2,2.391-3.079,1.95L57.14,58.573c-1.08-0.441-1.452-2.029-0.831-3.548
		L75.975,6.923c0.62-1.518,1.988-2.364,3.066-1.923l14.01,5.727c1.077,0.441,1.461,2.003,0.84,3.521L74.226,62.35z"/>
	<path fill="#FFFFFF" d="M73.777,63.444c-0.374,0.915-1.472,1.33-2.453,0.928L56.961,58.5c-0.981-0.401-1.473-1.468-1.101-2.381
		l0.733-1.792c0.374-0.914,1.472-1.33,2.452-0.928l14.364,5.872c0.98,0.401,1.474,1.467,1.1,2.38L73.777,63.444z"/>
	<path fill="#282828" d="M95.485,12.205c-0.383,0.938-1.62,1.32-2.69,0.883L77.13,6.683c-1.069-0.438-1.684-1.576-1.301-2.515
		l0.753-1.84c0.383-0.938,1.612-1.3,2.682-0.863l15.665,6.404c1.07,0.438,1.692,1.557,1.31,2.496L95.485,12.205z"/>
	<path fill="none" stroke="#C4C4C4" stroke-width="6" stroke-miterlimit="10" d="M92.413,35.896
		c7.208,6.76,11.712,16.371,11.712,27.033c0,20.463-16.588,37.052-37.051,37.052c-11.473,0-21.728-5.214-28.523-13.401"/>
	<circle fill="#282828" cx="87.511" cy="32.313" r="7.805"/>
	<circle fill="#4C4C4C" cx="87.511" cy="32.313" r="6.073"/>
	<circle fill="#282828" cx="87.511" cy="32.313" r="1.972"/>
	<path fill="#282828" d="M82,86.521C82,88.126,81.318,89,80.073,89H35.159C33.914,89,33,88.126,33,86.521v0.016
		C33,84.934,33.914,84,35.159,84h44.914C81.318,84,82,84.934,82,86.537V86.521z"/>
	<path fill="#C4C4C4" stroke="#828282" stroke-miterlimit="10" d="M93.935,117.034L71.67,94.461
		c-2.522-2.521-6.613-2.675-9.136-0.152L40.27,117.11c-1.334,1.334-1.961,1.39-1.885,5.39h57.435
		C95.896,118.5,95.269,118.367,93.935,117.034z"/>
	<circle fill="#A0A0A0" cx="66.939" cy="100.376" r="4.907"/>
</g>
</svg>
