<?xml version="1.0" encoding="utf-8"?>
<!-- Generator: Adobe Illustrator 16.0.3, SVG Export Plug-In . SVG Version: 6.00 Build 0)  -->
<!DOCTYPE svg PUBLIC "-//W3C//DTD SVG 1.1//EN" "http://www.w3.org/Graphics/SVG/1.1/DTD/svg11.dtd">
<svg version="1.1" id="Layer_1" xmlns="http://www.w3.org/2000/svg" xmlns:xlink="http://www.w3.org/1999/xlink" x="0px" y="0px"
	 width="133px" height="133px" viewBox="0 0 133 133" enable-background="new 0 0 133 133" xml:space="preserve">
<rect x="23" y="26" fill="#282828" width="84" height="81"/>
<line fill="none" stroke="#FFFFFF" stroke-width="3" stroke-linecap="round" stroke-linejoin="round" stroke-miterlimit="10" x1="65.5" y1="95" x2="65.5" y2="43"/>
<line fill="none" stroke="#FFFFFF" stroke-width="2" stroke-linecap="round" stroke-linejoin="round" stroke-miterlimit="10" x1="43" y1="60" x2="88" y2="60"/>
<path fill="none" stroke="#FFFFFF" stroke-width="2" stroke-linecap="round" stroke-linejoin="round" stroke-miterlimit="10" d="
	M45.88,89.709c4.893-3.993,12.161-6.523,20.275-6.523c8.02,0,15.218,2.475,20.108,6.389"/>
<path fill="none" stroke="#FFFFFF" stroke-width="2" stroke-linecap="round" stroke-linejoin="round" stroke-miterlimit="10" d="
	M45.88,83.373c4.893-3.994,12.161-6.524,20.275-6.524c8.022,0,15.215,2.472,20.108,6.389"/>
<path fill="none" stroke="#FFFFFF" stroke-width="2" stroke-linecap="round" stroke-linejoin="round" stroke-miterlimit="10" d="
	M45.88,77.392c4.893-3.993,12.161-6.524,20.275-6.524c8.018,0,15.217,2.474,20.108,6.391"/>
<path fill="none" stroke="#FFFFFF" stroke-width="2" stroke-linecap="round" stroke-linejoin="round" stroke-miterlimit="10" d="
	M45.88,71.41c4.893-3.993,12.161-6.523,20.275-6.523c8.02,0,15.218,2.475,20.108,6.39"/>
<line fill="none" stroke="#FFFFFF" stroke-width="4" stroke-linecap="round" stroke-linejoin="round" stroke-miterlimit="10" x1="23.93" y1="83.051" x2="38.11" y2="65.301"/>
<circle fill="#FFFFFF" cx="37.018" cy="64.169" r="2.431"/>
<circle fill="#FFFFFF" cx="39.332" cy="66.019" r="2.431"/>
<line fill="none" stroke="#FFFFFF" stroke-width="4" stroke-linecap="round" stroke-linejoin="round" stroke-miterlimit="10" x1="107.764" y1="83.051" x2="93.583" y2="65.301"/>
<circle fill="#FFFFFF" cx="94.676" cy="64.169" r="2.431"/>
<circle fill="#FFFFFF" cx="92.361" cy="66.019" r="2.431"/>
<g>
	<path fill="#FFFFFF" d="M84,104.455c0-4.928-4.08-8.922-9.008-8.922c-1.186,0-2.076,0.513-2.076,0.513
		c-2.825,1.705-5.854,3.101-6.705,3.101c-0.851,0-3.871-1.392-6.698-3.094c0,0-0.645-0.52-1.81-0.52
		c-4.928,0-8.703,3.994-8.703,8.922c0,0.811,0,0.811,0,0.811c0,0.842,2.566,1.734,5.866,1.734h22.651c3.3,0,6.482-0.893,6.482-1.734
		C84,105.266,84,105.266,84,104.455z"/>
</g>
<circle fill="#282828" cx="56.734" cy="102.349" r="3.38"/>
<circle fill="#282828" cx="75.591" cy="102.349" r="3.38"/>
<rect x="23" y="25" fill="none" stroke="#9A9B9B" stroke-width="4" stroke-miterlimit="10" width="86" height="82"/>
</svg>
